<svg xmlns="http://www.w3.org/2000/svg" viewBox="0 0 191.25 46.51"><defs><style>.cls-1{fill:#231f20;}</style></defs><title>Asset 6logo</title><g id="Layer_2" data-name="Layer 2"><g id="Layer_1-2" data-name="Layer 1"><path class="cls-1" d="M95.71,21.32,95.88,20l.33,1.51.5,1.68.5,1.85H94.7Zm-1.85-3.19L90,29.72h3.52L94,27.54h3.86l.5,2.18h3.53L98.06,18.13Z"/><polygon class="cls-1" points="108.97 18.13 107.46 24.01 107.12 25.36 106.95 26.7 106.79 25.69 106.28 24.01 104.77 18.13 101.25 18.13 105.11 29.72 108.8 29.72 112.5 18.13 108.97 18.13"/><rect class="cls-1" x="113.17" y="18.13" width="3.19" height="11.59"/><path class="cls-1" d="M122.57,21.32l.33-1.34.34,1.51.34,1.68.5,1.85h-2.52Zm-1.85-3.19-3.86,11.58h3.53l.5-2.18h3.86l.51,2.18h3.52l-3.86-11.58Z"/><polygon class="cls-1" points="128.45 18.13 128.45 20.65 131.3 20.65 131.3 29.72 134.49 29.72 134.49 20.65 137.35 20.65 137.35 18.13 128.45 18.13"/><rect class="cls-1" x="138.35" y="18.13" width="3.19" height="11.59"/><path class="cls-1" d="M148.09,27.2l-.5-.17-.34-.17-.33-.33-.34-.5-.17-.67L146.24,24l.17-1.51.17-.67.34-.5.33-.34.34-.17.5-.17.5-.17.67.17h.33l.5.33.34.34.17.5.17.67.17,1.51-.17,1.51-.17.5-.17.5-.34.33-.5.17-.33.17-.67.17Zm.5-9.23h-1.17l-1.18.34-1,.5-.84.67-.67.84-.33,1-.33,1.18-.18,1.34.18,1.51.33,1.18.33,1,.67.84.84.67,1,.5,1,.34h2.68l1.18-.34,1-.5.68-.67.67-.84.5-1,.17-1.18L154.3,24l-.17-1.51L154,21.33l-.5-1-.67-.84-.68-.67-1-.5L149.94,18Z"/><polygon class="cls-1" points="164.04 18.13 164.04 23.34 164.21 26.19 164.04 26.19 159.84 18.13 155.82 18.13 155.82 29.72 158.5 29.72 158.5 24.51 158.33 21.49 158.5 21.49 162.7 29.72 166.9 29.72 166.9 18.13 164.04 18.13"/><polygon class="cls-1" points="171.43 18.13 171.43 20.65 174.28 20.65 174.28 29.72 177.47 29.72 177.47 20.65 180.33 20.65 180.33 18.13 171.43 18.13"/><path class="cls-1" d="M185,18.13h-3.69V29.72h3v-4.2h.84l2.52,4.2h3.53l-3.36-5,.84-.67.67-.67.33-.84.17-1-.17-.67-.17-.67-.33-.67-.5-.5-.68-.33-.84-.34-1-.17Z"/><path class="cls-1" d="M94.2,43.65l-.33-.33v-.51l.17-.67.5-.5,1.85,2-.5.17L95.2,44h-.67Zm.5-5.71-.17-.5v-.51l.33-.17L95,36.6h.34l.51.17.17.17.17.34-.17.34-.17.34-.17.33-.51.33Zm.67-3.36h-.84l-.67.17-.68.17-.5.33-.33.34-.34.5-.17.51-.17.67.17.67.17.67.34.67.5.67-1,.5-.68.84-.5.84V44l.5.84.5.67,1,.5,1,.34,1.17.17,1.35-.17,1-.17,1.18-.67.67.84h4l-2.52-2.52.67-.84.51-1,.5-1.18.34-1H99.23l-.34,1-.5,1L96.88,40.3l1-.67.5-.67.5-.84V36.6l-.17-.51-.33-.5-.33-.34-.51-.33-.67-.17-.67-.17Z"/><polygon class="cls-1" points="107.29 34.59 107.29 46.34 114.84 46.34 114.84 43.82 110.48 43.82 110.48 34.59 107.29 34.59"/><path class="cls-1" d="M120.39,43.65l-.5-.33-.33-.34-.17-.51-.17-.5L119,40.46l.17-1.51.17-.5.17-.5.33-.34.5-.34.33-.17h1.18l.5.17.34.34.33.34.34.33.17.67.17,1.51L123.58,42l-.17.5-.34.51-.33.34-.34.33-.5.17h-1.18Zm-.34-9.07-1.18.34-1,.33-.68.67-.67,1-.5,1-.34,1.18v2.69L116,43l.5,1,.67,1,.68.67,1,.33,1.18.34,1.34.17,1.17-.17,1.18-.34,1-.33.84-.67.67-.84L126.6,43l.33-1.17V39.12l-.33-1.18-.34-1.18-.67-.84-.84-.67-1-.33-1-.34-1.34-.17Z"/><polygon class="cls-1" points="132.81 34.59 131.64 34.92 130.46 35.43 129.63 36.1 128.95 36.94 128.45 37.95 128.11 39.12 127.94 40.46 128.11 41.81 128.45 42.98 128.78 43.99 129.46 44.83 130.29 45.67 131.3 46.01 132.31 46.34 133.65 46.51 136 46.34 138.19 45.84 138.19 39.46 133.15 39.46 133.15 41.98 135.17 41.98 135.17 43.82 133.99 43.82 133.32 43.82 132.81 43.66 132.31 43.32 131.97 42.98 131.64 42.48 131.47 41.98 131.3 40.46 131.3 39.79 131.47 39.12 131.64 38.45 131.97 37.95 132.48 37.61 132.98 37.27 133.49 37.1 134.16 37.1 135.67 37.27 136.84 37.78 137.85 35.26 136.17 34.76 135.17 34.59 134.16 34.42 132.81 34.59"/><rect class="cls-1" x="139.87" y="34.59" width="3.19" height="11.75"/><polygon class="cls-1" points="147.93 34.59 147.09 34.76 146.25 34.92 145.57 35.43 145.07 35.93 144.73 36.44 144.56 37.1 144.4 37.95 144.56 38.79 144.73 39.46 145.07 39.96 145.57 40.46 146.25 40.97 147.25 41.47 148.76 42.31 149.27 42.65 149.44 42.98 149.27 43.32 149.1 43.66 148.59 43.82 148.09 43.99 147.09 43.82 146.25 43.66 145.24 43.32 144.4 42.98 144.4 45.67 145.24 46.01 146.08 46.34 147.93 46.51 149.27 46.34 150.44 46.01 151.28 45.5 151.95 44.66 152.46 43.82 152.46 42.81 152.46 41.64 151.95 40.8 151.12 40.13 149.77 39.29 147.93 38.45 147.59 38.11 147.59 37.78 147.59 37.44 147.93 37.27 148.26 37.1 148.76 36.94 150.11 37.27 151.62 37.78 152.46 35.26 150.61 34.76 149.77 34.59 148.76 34.42 147.93 34.59"/><polygon class="cls-1" points="152.8 34.59 152.8 37.27 155.65 37.27 155.65 46.34 158.84 46.34 158.84 37.27 161.69 37.27 161.69 34.59 152.8 34.59"/><rect class="cls-1" x="162.7" y="34.59" width="3.19" height="11.75"/><polygon class="cls-1" points="171.26 34.76 170.59 34.92 169.92 35.26 169.25 35.6 168.75 36.1 168.24 36.77 167.9 37.27 167.4 38.79 167.24 40.46 167.4 41.81 167.57 43.15 168.07 44.16 168.75 45 169.42 45.67 170.42 46.01 171.43 46.34 172.78 46.51 174.46 46.34 175.96 45.84 175.96 43.15 174.63 43.66 173.78 43.82 173.11 43.82 172.44 43.82 171.93 43.66 171.43 43.49 171.1 42.98 170.93 42.65 170.59 41.98 170.42 40.46 170.59 39.12 170.93 38.45 171.1 37.95 171.43 37.61 171.93 37.27 172.27 37.11 172.94 37.11 173.62 37.11 174.28 37.27 175.63 37.78 176.47 35.26 175.63 34.92 174.79 34.76 173.78 34.59 172.94 34.42 171.26 34.76"/><polygon class="cls-1" points="180.5 34.59 179.66 34.76 178.99 34.92 178.31 35.43 177.81 35.93 177.48 36.44 177.31 37.1 177.14 37.95 177.31 38.79 177.48 39.46 177.81 39.96 178.31 40.46 178.99 40.97 179.99 41.47 181.51 42.31 182.01 42.65 182.01 42.98 182.01 43.32 181.84 43.66 181.34 43.82 180.67 43.99 179.83 43.82 178.99 43.66 177.98 43.32 177.14 42.98 177.14 45.67 177.98 46.01 178.66 46.34 180.67 46.51 182.01 46.34 183.19 46.01 184.02 45.5 184.7 44.66 185.03 43.82 185.2 42.81 185.03 41.64 184.7 40.8 183.85 40.13 182.52 39.29 180.67 38.45 180.33 38.11 180.33 37.78 180.33 37.44 180.5 37.27 181 37.1 181.51 36.94 182.68 37.27 184.19 37.78 185.2 35.26 183.35 34.76 182.52 34.59 181.51 34.42 180.5 34.59"/><polygon class="cls-1" points="53.9 11.75 25.52 11.75 27.87 18.97 28.04 19.31 28.54 19.48 36.27 19.48 36.44 19.48 36.44 19.64 36.44 46.34 38.28 46.17 39.96 45.67 41.64 44.83 42.98 43.66 44.16 42.31 45 40.63 45.5 38.95 45.67 37.11 45.67 19.64 45.84 19.48 46.01 19.48 53.9 19.48 54.06 19.48 54.06 19.31 54.06 11.92 54.06 11.75 53.9 11.75"/><polygon class="cls-1" points="55.58 46.17 55.58 46.34 55.74 46.34 78.25 46.34 78.25 46.17 78.08 44.66 77.57 43.32 76.9 41.98 75.89 40.97 74.89 39.96 73.54 39.29 72.2 38.79 70.69 38.62 65.15 38.62 64.98 38.62 64.81 38.45 64.81 20.99 64.64 19.14 64.14 17.46 63.3 15.78 62.13 14.44 60.78 13.26 59.1 12.42 57.42 11.92 55.58 11.75 55.58 46.17"/><path class="cls-1" d="M22.33,11.75,21,11.92l-1.34.34-1.34.33-1.17.5L16,13.6l-1.18.67-1.17.67-1,.84-1,.84-.84,1-.84,1-.84,1.17L8.4,21l-.5,1.18-.5,1.34L0,46.17l.17.17h9.91l.17-.17,1.51-5.71.34-.33.5-.17H23.17l.51,1.34.67,1.18.84,1.18,1.18.84,1.17.84,1.17.51,1.34.33,1.51.17h3.52L23.68,11.75Z"/><polygon class="cls-1" points="70.01 14.95 70.01 15.11 70.19 15.11 70.36 15.11 70.52 15.11 72.54 12.09 69.51 11.59 70.01 14.95"/><path class="cls-1" d="M65.15,9.41,65,9.74v.17l.17.17.34.17,2.35.34L78.08,0Zm4.2,1.51,4.2.67,1-.17.84-.34.68-.67.34-.84L78.08,0Z"/></g></g></svg>