<svg xmlns="http://www.w3.org/2000/svg" xmlns:xlink="http://www.w3.org/1999/xlink" viewBox="0 0 194.83 68.04"><defs><style>.cls-1{fill:none;}.cls-2{clip-path:url(#clip-path);}.cls-3{fill:#231f20;}.cls-4{clip-path:url(#clip-path-2);}.cls-5{clip-path:url(#clip-path-3);}.cls-6{clip-path:url(#clip-path-4);}.cls-7{clip-path:url(#clip-path-5);}.cls-8{clip-path:url(#clip-path-6);}.cls-9{clip-path:url(#clip-path-7);}</style><clipPath id="clip-path"><path class="cls-1" d="M7.38,56.94v1.57c0,.59,0,1,.05,1.55h0a9.65,9.65,0,0,0-.68-1.22l-1.2-1.91H5V60.7h.46V59.09c0-.62,0-1.08,0-1.55h0a10.81,10.81,0,0,0,.7,1.26l1.2,1.91h.49V56.94Z"/></clipPath><clipPath id="clip-path-2"><path class="cls-1" d="M46.91,56.94l-.5,1.9c-.12.47-.22.89-.3,1.31h0c-.06-.4-.16-.85-.26-1.29l-.46-1.91h-.51l-.5,1.9c-.13.49-.25.93-.31,1.31h0c-.07-.36-.17-.83-.28-1.3l-.45-1.9h-.52l1,3.77h.51l.54-2a11.67,11.67,0,0,0,.29-1.23h0a11.62,11.62,0,0,0,.25,1.23l.48,2h.51l1.07-3.77Z"/></clipPath><clipPath id="clip-path-3"><path class="cls-1" d="M57.7,58.84c0-.83.4-1.57,1.21-1.57s1.2.78,1.2,1.53-.44,1.57-1.21,1.57-1.21-.72-1.21-1.52m-.52,0a1.72,1.72,0,0,0,1.69,1.91,1.77,1.77,0,0,0,1.76-2,1.72,1.72,0,0,0-1.7-1.91,1.79,1.79,0,0,0-1.75,2"/></clipPath><clipPath id="clip-path-4"><path class="cls-1" d="M71.28,57.33a1.94,1.94,0,0,1,.49,0c.51,0,.87.22.87.71s-.33.71-.85.71h-.5ZM70.8,57V60.7h.48V59.07h.46c.44,0,.64.21.76.73a4.6,4.6,0,0,0,.25.9h.5a6.2,6.2,0,0,1-.29-1,1,1,0,0,0-.55-.76h0a1,1,0,0,0,.71-1,.94.94,0,0,0-.3-.71,1.53,1.53,0,0,0-1.09-.31,5,5,0,0,0-.94.08"/></clipPath><clipPath id="clip-path-5"><path class="cls-1" d="M85.3,56.94l-1.15,1.41c-.1.12-.2.26-.3.4h0V56.94h-.49V60.7h.49V59.27l.36-.41,1.25,1.85H86l-1.47-2.17,1.37-1.6Z"/></clipPath><clipPath id="clip-path-6"><path class="cls-1" d="M95.8,57.9c0,.53.38.85,1,1.07s.71.4.71.75-.29.64-.79.64a1.72,1.72,0,0,1-.87-.25l-.12.41a2,2,0,0,0,1,.24c.89,0,1.32-.5,1.32-1.08s-.33-.86-1-1.11-.75-.37-.75-.73.2-.56.71-.56a1.6,1.6,0,0,1,.72.17l.13-.39a1.72,1.72,0,0,0-.83-.18,1.08,1.08,0,0,0-1.22,1"/></clipPath><clipPath id="clip-path-7"><path class="cls-1" d="M155.17,54a2.36,2.36,0,0,1,1.56-.48A2,2,0,0,1,159,55.67v4.39a1.94,1.94,0,0,1-2.23,2,2,2,0,0,1-2.22-2V55.69a2.45,2.45,0,0,1,.28-1.22l0,0ZM126.71,57.6v-3a1.36,1.36,0,0,1,1.54-1.5,2.09,2.09,0,0,1,.61.09l.26.16,0,0a1.32,1.32,0,0,1,.65,1.25v3A1.34,1.34,0,0,1,128.25,59a1.39,1.39,0,0,1-1.54-1.39M132.64,43V33c0-3.41,1.93-5.29,5.43-5.29a5.82,5.82,0,0,1,3.73,1.12l0,.07.42.24a5.23,5.23,0,0,1,1.33,3.8V43a5.27,5.27,0,0,1-.65,2.7l-.29.42h0A5.69,5.69,0,0,1,138.08,48c-2.51,0-5.43-1.3-5.43-5m-6.3-23.06V16.2a1.91,1.91,0,0,1,3.82,0v3.77a1.67,1.67,0,0,1-1.92,1.73,1.72,1.72,0,0,1-1.91-1.73m21.07-6V8.76a2.65,2.65,0,0,1,5.31,0V14c0,2.09-1.67,2.41-2.65,2.41A2.4,2.4,0,0,1,147.41,14m-1.16-5.19V14a3.22,3.22,0,0,0,2.29,3.32l-5.9,10.05A7.37,7.37,0,0,0,138.14,26a7.11,7.11,0,0,0-5.41,2l-3.21-5.75A2.3,2.3,0,0,0,131,19.93V16.22a2.74,2.74,0,0,0-5.48,0v3.72a2.49,2.49,0,0,0,2.75,2.57h.22l3.58,6.4a7.76,7.76,0,0,0-1,4.1V43a6.68,6.68,0,0,0,1,3.8l-3.57,5.64-.23,0A2,2,0,0,0,126,54.59v3a2.21,2.21,0,0,0,4.41,0v-3a2.06,2.06,0,0,0-.93-1.89l3.23-5.1a7.53,7.53,0,0,0,5.36,2,7.09,7.09,0,0,0,5.8-2.53L154,53.92a3.54,3.54,0,0,0-.43,1.79V60a2.87,2.87,0,0,0,3.08,3h.25a2.85,2.85,0,0,0,3-3V55.72a2.91,2.91,0,0,0-3.16-3.18,3.43,3.43,0,0,0-2.1.61l-10.22-7a7.21,7.21,0,0,0,.68-3.2V33a7.17,7.17,0,0,0-1.7-5L149.6,17.5c.16,0,.32,0,.48,0,1.83,0,3.79-.94,3.79-3.57V8.8A3.48,3.48,0,0,0,150.1,5c-2.44,0-3.84,1.38-3.84,3.78"/></clipPath></defs><title>Asset 14logo</title><g id="Layer_2" data-name="Layer 2"><g id="Layer_1-2" data-name="Layer 1"><g class="cls-2"><rect class="cls-3" y="51.94" width="12.84" height="13.76"/></g><polygon class="cls-3" points="18.22 56.94 18.22 60.7 20.34 60.7 20.34 60.29 18.71 60.29 18.71 58.94 20.18 58.94 20.18 58.53 18.71 58.53 18.71 57.35 20.26 57.35 20.26 56.94 18.22 56.94"/><polygon class="cls-3" points="30.17 56.94 30.17 57.35 31.32 57.35 31.32 60.7 31.8 60.7 31.8 57.35 32.96 57.35 32.96 56.94 30.17 56.94"/><g class="cls-4"><rect class="cls-3" x="37.79" y="51.94" width="14.61" height="13.77"/></g><g class="cls-5"><rect class="cls-3" x="52.18" y="51.87" width="13.45" height="13.89"/></g><g class="cls-6"><rect class="cls-3" x="65.79" y="51.91" width="12.46" height="13.79"/></g><g class="cls-7"><rect class="cls-3" x="78.33" y="51.94" width="12.67" height="13.77"/></g><g class="cls-8"><rect class="cls-3" x="90.71" y="51.88" width="12.29" height="13.88"/></g><path class="cls-3" d="M12.83,29.77l3.23,9.14H9.59Zm-.58-3.27-8,22.73H5.94L9,40.51h7.62l3,8.72h1.73l-8-22.73Z"/><polygon class="cls-3" points="64.16 26.49 57.81 35.95 51.45 26.49 49.54 26.49 56.85 37.42 48.95 49.23 50.95 49.23 57.81 38.9 64.75 49.27 66.55 49.02 58.82 37.42 66.13 26.49 64.16 26.49"/><polygon class="cls-3" points="94.75 26.49 94.75 28.08 97.42 28.15 97.42 49.23 99.03 49.23 99.03 26.49 94.75 26.49"/><polygon class="cls-3" points="193.41 26.49 185.97 46.34 178.55 26.49 177.13 26.49 177.13 49.22 178.7 49.22 178.7 31.44 185.31 49.22 185.97 49.22 185.97 49.23 186.02 49.23 186.58 49.22 193.25 31.42 193.25 49.22 194.83 49.22 194.83 26.49 193.41 26.49"/><g class="cls-9"><rect class="cls-3" x="120.51" width="44.42" height="68.04"/></g></g></g></svg>