<svg xmlns="http://www.w3.org/2000/svg" xmlns:xlink="http://www.w3.org/1999/xlink" viewBox="0 0 94.35 107.94"><defs><style>.cls-1{fill:none;}.cls-2{clip-path:url(#clip-path);}.cls-3{fill:#231f20;}.cls-4{clip-path:url(#clip-path-2);}.cls-5{clip-path:url(#clip-path-3);}.cls-6{clip-path:url(#clip-path-4);}.cls-7{clip-path:url(#clip-path-5);}.cls-8{clip-path:url(#clip-path-6);}.cls-9{clip-path:url(#clip-path-7);}.cls-10{clip-path:url(#clip-path-8);}.cls-11{clip-path:url(#clip-path-9);}.cls-12{clip-path:url(#clip-path-10);}.cls-13{clip-path:url(#clip-path-11);}.cls-14{clip-path:url(#clip-path-12);}.cls-15{clip-path:url(#clip-path-13);}.cls-16{clip-path:url(#clip-path-14);}.cls-17{clip-path:url(#clip-path-15);}.cls-18{clip-path:url(#clip-path-16);}.cls-19{clip-path:url(#clip-path-17);}.cls-20{clip-path:url(#clip-path-18);}.cls-21{clip-path:url(#clip-path-19);}.cls-22{clip-path:url(#clip-path-20);}.cls-23{clip-path:url(#clip-path-21);}.cls-24{clip-path:url(#clip-path-22);}.cls-25{clip-path:url(#clip-path-23);}.cls-26{clip-path:url(#clip-path-24);}.cls-27{clip-path:url(#clip-path-25);}.cls-28{clip-path:url(#clip-path-26);}.cls-29{clip-path:url(#clip-path-27);}.cls-30{clip-path:url(#clip-path-28);}.cls-31{clip-path:url(#clip-path-29);}.cls-32{clip-path:url(#clip-path-30);}.cls-33{clip-path:url(#clip-path-31);}.cls-34{clip-path:url(#clip-path-32);}.cls-35{clip-path:url(#clip-path-33);}.cls-36{clip-path:url(#clip-path-34);}</style><clipPath id="clip-path"><path class="cls-1" d="M7.42,96.43c0-1.35,0-2.69,0-4,0-.09.16-.26.24-.26a16.15,16.15,0,0,1,2.05.15,1.37,1.37,0,0,1,1.16,1.18,4.61,4.61,0,0,1,0,1.68,1.74,1.74,0,0,1-1.41,1.32,4,4,0,0,1-.92.1,4.88,4.88,0,0,1-1.08-.13m0-4.87V88.26a4.45,4.45,0,0,1,2.11,0,1.32,1.32,0,0,1,1,1.37,1.64,1.64,0,0,1-1,1.7,4,4,0,0,1-1.37.23,5.56,5.56,0,0,1-.75-.05M5,87.63V88l.4,0c.69.08.73.09.74.77,0,2.42,0,4.84,0,7.27a.6.6,0,0,1-.36.6c-.11,0-.16.18-.24.28l.07.13a37.1,37.1,0,0,0,4.16-.17,2.91,2.91,0,0,0,2.53-2.34,2.07,2.07,0,0,0-1.77-2.73l-.59-.1a9.26,9.26,0,0,0,1.19-.68A1.93,1.93,0,0,0,11.82,89a1.67,1.67,0,0,0-1.58-1.31,6.86,6.86,0,0,0-.79-.05H5"/></clipPath><clipPath id="clip-path-2"><path class="cls-1" d="M41.17,95.23a6.1,6.1,0,0,1-1-3.54,9.26,9.26,0,0,1,.14-1,3.36,3.36,0,0,1,4.82-2.35A3.51,3.51,0,0,1,47.23,91a6.43,6.43,0,0,1-.06,3.2,3.06,3.06,0,0,1-2.58,2.46,4.44,4.44,0,0,1-.68.05,3.22,3.22,0,0,1-2.74-1.44M40.5,88.6a5.19,5.19,0,0,0-1.35,5.63,4.09,4.09,0,0,0,3,2.89c.33.08.67.13,1,.19h.64l.22-.06a5,5,0,0,0,4.67-4.72,4.52,4.52,0,0,0-1.16-3.73,5.05,5.05,0,0,0-3.62-1.38A5.32,5.32,0,0,0,40.5,88.6"/></clipPath><clipPath id="clip-path-3"><path class="cls-1" d="M82.08,87.68c0,.12,0,.24,0,.35l.46.05c.64.06.73.12.73.74q0,3.55,0,7.11c0,.63-.11.69-.74.73l-.37,0c0,.13,0,.25,0,.36h6.49c.33,0,.46-.12.47-.46,0-.52.11-1,.16-1.54v-.32l-.43.06c-.08.33-.17.65-.22,1a.59.59,0,0,1-.59.57l-2.34.08c-.38,0-.76,0-1.17,0,0-1.28,0-2.46,0-3.64a.37.37,0,0,1,.25-.26c.8,0,1.59,0,2.39,0a.43.43,0,0,1,.43.48c0,.23,0,.47,0,.71h.41v-3c-.27-.1-.39,0-.39.26a1.38,1.38,0,0,1-.06.47c-.07.13-.2.33-.31.33-.91,0-1.82,0-2.72,0V88.18c.47,0,.9,0,1.31,0,.7,0,1.4.11,2.1.18a.38.38,0,0,1,.38.42c0,.3,0,.6.09,1.06.18-.16.38-.23.4-.34.09-.59.13-1.18.19-1.83Z"/></clipPath><clipPath id="clip-path-4"><path class="cls-1" d="M57.64,87.54a4.87,4.87,0,0,0-.47,9.53c.44.11.88.16,1.32.24h.72l.3-.07c.73-.19,1.46-.37,2.18-.59.39-.12.41-.48.48-.89l-.28.14a4.79,4.79,0,0,1-3.49.57A4.59,4.59,0,0,1,56,89.09a4.47,4.47,0,0,1,4.87-.75,1.19,1.19,0,0,1,.61,1.06c0,.2,0,.39,0,.6h.35l.33-2a9.91,9.91,0,0,0-3.2-.57,8.26,8.26,0,0,0-1.27.1"/></clipPath><clipPath id="clip-path-5"><path class="cls-1" d="M73.58,87.66V88a3.23,3.23,0,0,1,.75.09c.17.06.41.23.42.37.07,1.07.1,2.14.14,3.21a1.08,1.08,0,0,1-.22.06h-5c-.26,0-.26-.16-.26-.35,0-.88,0-1.76.06-2.64,0-.56.1-.65.67-.7l.51-.06v-.36H67V88l.57.06c.49,0,.61.14.61.65q0,3.59,0,7.19c0,.64-.12.72-.76.75l-.45,0c0,.16,0,.27,0,.38h3.71v-.35c-1.31-.14-1.16,0-1.21-1.43,0-.94,0-1.89,0-2.89h5.32c0,1.3,0,2.54,0,3.79a.42.42,0,0,1-.43.44l-.8.07c0,.14,0,.25,0,.36h3.77v-.37h-.22c-1-.05-1-.07-1-1,0-2.17,0-4.34,0-6.51,0-1,0-1,1-1.1l.25,0c0-.14,0-.25,0-.35Z"/></clipPath><clipPath id="clip-path-6"><path class="cls-1" d="M18.37,87.65h-1c0,.08,0,.15,0,.21a1.17,1.17,0,0,0,0,.16l.24,0c.94.1,1,.1,1,1.06,0,1.81,0,3.62,0,5.43,0,.43,0,.85,0,1.28,0,.7-.12.81-.81.84l-.41,0v.36h3.77c0-.14,0-.25,0-.39h-.51c-.54,0-.65-.14-.69-.67s-.05-1,0-1.47c0-1.93,0-3.86,0-5.8,0-.3.11-.48.41-.49a10.08,10.08,0,0,1,1.62,0A1.5,1.5,0,0,1,23.3,89.3a2,2,0,0,1-1.37,2.57,7.82,7.82,0,0,1-1.14.13,3,3,0,0,0-.32.07,1.36,1.36,0,0,0,.12.28c1,1.39,2.08,2.76,3.09,4.16.29.4.58.66,1.1.56a3,3,0,0,1,.84,0c.31,0,.37-.11.23-.32a2.19,2.19,0,0,1-.7-.5c-.64-.82-1.26-1.65-1.88-2.49L22.2,92.3l.41-.12a3.16,3.16,0,0,0,1.54-.93,2.24,2.24,0,0,0,.45-2.31,1.88,1.88,0,0,0-1.74-1.25c-.29,0-.58-.06-.87-.06l-3.62,0"/></clipPath><clipPath id="clip-path-7"><path class="cls-1" d="M30.37,87.66V88c.23,0,.43.06.63.06.37,0,.57.18.57.57,0,2.42,0,4.85,0,7.26,0,.65-.12.72-.76.74l-.45,0c0,.16,0,.27,0,.38h3.74v-.35l-.09,0-.28,0c-.76,0-.86-.1-.86-.86,0-2.24,0-4.48,0-6.71,0-.92,0-1,.95-1,.31,0,.36-.14.26-.4Z"/></clipPath><clipPath id="clip-path-8"><path class="cls-1" d="M51.21,14.16c1.35-.8,2.69-1.62,4.09-2.31A16.08,16.08,0,0,1,62,10.34a11.18,11.18,0,0,1,7,1.91,13.21,13.21,0,0,1,3.89,4.33A50.52,50.52,0,0,1,79,32.65a35.78,35.78,0,0,1,.58,6.52c0,1.68,0,3.36-.07,5a43,43,0,0,1-1.83,9.75,55.75,55.75,0,0,1-4.8,11.5,12,12,0,0,1-5.16,5.11,12.15,12.15,0,0,1-6.08,1.1,17.86,17.86,0,0,1-9-3,22.79,22.79,0,0,0-6.24-2.95,21.46,21.46,0,0,0-8.16-.61c-2.9.31-5.79.56-8.68.86-2.38.24-4.75.51-7.13.75-.87.08-1.74.18-2.61.19a3.87,3.87,0,0,1-4.05-3.8c0-.4,0-.8,0-1.2h-.09c.17-1.65.37-3.3.51-5,.21-2.57.44-5.15.55-7.73s.11-5,.12-7.54c0-2.72,0-5.44-.08-8.15-.09-3.49-.38-7-.81-10.43a18.72,18.72,0,0,1-.12-4.74,3.86,3.86,0,0,1,3.79-3.23c1.5.07,3,.2,4.48.35,2.64.26,5.28.56,7.92.84,2.08.22,4.17.38,6.26.61a22.81,22.81,0,0,0,2.54.14,20.13,20.13,0,0,0,10.46-2.89m3.09-4.93c-1.61,1-3.24,1.94-4.92,2.78a20.21,20.21,0,0,1-8.77,2.06,67.56,67.56,0,0,1-6.79-.46c-2.19-.2-4.39-.44-6.58-.67-2.39-.25-4.77-.53-7.16-.75-1.41-.13-2.83-.24-4.25-.28a4.2,4.2,0,0,0-3.9,3.1,12.94,12.94,0,0,0-.22,2.93c.1,1.86.35,3.71.54,5.57.44,4.39.64,8.79.7,13.2,0,1.84,0,3.68,0,5.51-.07,3.65-.12,7.3-.3,10.94-.13,2.55-.44,5.09-.68,7.63a32.28,32.28,0,0,0-.27,4.94,4.28,4.28,0,0,0,4.59,4.37c2.26-.08,4.5-.36,6.74-.58s4.75-.52,7.13-.76,4.81-.47,7.22-.67a25,25,0,0,1,3.46-.17,23.38,23.38,0,0,1,11.28,3.52c1.24.77,2.5,1.52,3.8,2.18a18.78,18.78,0,0,0,8.59,1.88,12.53,12.53,0,0,0,5.66-1.25,13.51,13.51,0,0,0,5.61-5.41,53.18,53.18,0,0,0,3.79-8,52.26,52.26,0,0,0,4-20c0-.53,0-1.06,0-1.6a44.34,44.34,0,0,0-1.09-9.62A56.36,56.36,0,0,0,78,17.31a32.26,32.26,0,0,0-3.29-5.65A12.27,12.27,0,0,0,65.3,6.55q-.58,0-1.15,0a18.77,18.77,0,0,0-9.86,2.71"/></clipPath><clipPath id="clip-path-9"><path class="cls-1" d="M5.91,102.34v-.87h.2c.52,0,.82.19.82.64a.6.6,0,0,1-.66.63c-.27,0-.35-.08-.35-.39m0-1.85c0-.14,0-.19.06-.21a.51.51,0,0,1,.24,0,.51.51,0,0,1,.57.55c0,.36-.2.55-.67.55h-.2Zm-.72-.4v.12c.34,0,.36.05.36.41v1.72c0,.36,0,.39-.39.41v.12H6.1a1.71,1.71,0,0,0,.84-.17.73.73,0,0,0,.41-.65c0-.43-.33-.61-.76-.68h0a.68.68,0,0,0,.58-.64.58.58,0,0,0-.24-.49,1.07,1.07,0,0,0-.64-.15Z"/></clipPath><clipPath id="clip-path-10"><path class="cls-1" d="M9.42,100.59h0l.38,1.09H9l.4-1.09m0-.52-.88,2.25c-.15.38-.21.4-.48.44v.12H9v-.12c-.32,0-.36-.07-.26-.34s.12-.36.19-.55h.91c.09.26.18.49.24.66s0,.2-.25.24v.12h1v-.12c-.28,0-.33-.06-.47-.43-.28-.74-.56-1.56-.82-2.29Z"/></clipPath><clipPath id="clip-path-11"><path class="cls-1" d="M13.31,100.1v.12h.09c.2,0,.2.06.07.22a9.55,9.55,0,0,1-.72.76.74.74,0,0,1-.3.2v-.75c0-.38,0-.41.37-.44v-.12h-1.1v.12c.34,0,.38,0,.38.44v1.67c0,.38,0,.41-.36.43v.12h1.11v-.12c-.35,0-.39-.06-.39-.43v-.81c.07,0,.13,0,.23.12.39.45.73.87,1.06,1.24h.66v-.12c-.21,0-.29-.06-.52-.31s-.68-.76-1-1.16c.29-.3.59-.6.76-.75a.92.92,0,0,1,.7-.32v-.12Z"/></clipPath><clipPath id="clip-path-12"><path class="cls-1" d="M15.21,100.1v.12c.33,0,.37,0,.37.43v1.71c0,.35,0,.38-.42.41v.12h2.06c0-.13.12-.53.15-.68l-.13,0a1.24,1.24,0,0,1-.21.4c-.1.11-.21.15-.54.15a1,1,0,0,1-.44-.06c-.08-.06-.1-.15-.1-.35v-.81h.41c.37,0,.4,0,.46.33h.13V101H16.8c-.05.29-.08.32-.46.32h-.4v-1c0-.13,0-.14.14-.14h.32c.31,0,.42,0,.48.12a1.08,1.08,0,0,1,.14.37l.12,0c0-.22,0-.51,0-.62Z"/></clipPath><clipPath id="clip-path-13"><path class="cls-1" d="M19,100.47c0-.11,0-.17,0-.19a.42.42,0,0,1,.23,0,.58.58,0,0,1,.63.63.62.62,0,0,1-.24.53.7.7,0,0,1-.46.12H19Zm-.72-.37v.12c.33,0,.37,0,.37.41v1.72c0,.36,0,.39-.39.42v.12h1.12v-.12c-.34,0-.38-.05-.38-.42v-.68h.14c.22,0,.29.05.37.17s.28.48.43.69a.78.78,0,0,0,.69.39h.15l0-.11a.61.61,0,0,1-.31-.2,3.67,3.67,0,0,1-.35-.44c-.13-.19-.31-.48-.38-.62a.78.78,0,0,0,.54-.73.64.64,0,0,0-.28-.56,1.2,1.2,0,0,0-.68-.15Z"/></clipPath><clipPath id="clip-path-14"><path class="cls-1" d="M22.82,100.09v.12c.33,0,.35.07.25.28s-.35.68-.51,1c-.18-.32-.39-.67-.57-1-.08-.14-.09-.19.22-.23v-.12h-1v.12c.26,0,.3.07.47.36s.39.68.54.94a.45.45,0,0,1,.09.25v.57c0,.36,0,.39-.42.42v.12h1.21v-.12c-.39,0-.43-.06-.43-.42v-.58a.49.49,0,0,1,.07-.27c.2-.38.35-.62.54-.94s.21-.3.51-.34v-.12Z"/></clipPath><clipPath id="clip-path-15"><path class="cls-1" d="M26.26,101.95a.55.55,0,1,0,.56-.57.56.56,0,0,0-.56.57"/></clipPath><clipPath id="clip-path-16"><path class="cls-1" d="M30,101.53a1.4,1.4,0,0,0,1.53,1.42,3.58,3.58,0,0,0,.78-.12,4.74,4.74,0,0,0,.24-.65l-.12,0c-.21.43-.44.66-.88.66a1.2,1.2,0,0,1-1.12-1.35,1.14,1.14,0,0,1,1.09-1.25.74.74,0,0,1,.83.64l.13,0c0-.23-.05-.4-.09-.65a3.41,3.41,0,0,0-.76-.11,1.5,1.5,0,0,0-1.64,1.5"/></clipPath><clipPath id="clip-path-17"><path class="cls-1" d="M34.65,100.59h0l.38,1.09h-.79l.4-1.09m0-.52-.88,2.25c-.15.38-.21.4-.48.44v.12h.93v-.12c-.32,0-.36-.07-.26-.34s.12-.36.19-.55h.91c.09.26.18.49.24.66s0,.2-.25.24v.12h1v-.12c-.28,0-.33-.06-.47-.43-.27-.74-.56-1.56-.83-2.29Z"/></clipPath><clipPath id="clip-path-18"><path class="cls-1" d="M38.91,100a.23.23,0,0,1-.22.11H37c-.12,0-.18,0-.24-.11h-.08c0,.23,0,.51-.05.77h.13a1.39,1.39,0,0,1,.14-.38c.05-.1.14-.13.49-.13h.27v2.11c0,.34,0,.38-.42.41v.12h1.22v-.12c-.41,0-.44-.07-.44-.41v-2.11h.3c.32,0,.39,0,.46.13a1,1,0,0,1,.14.38H39c0-.25,0-.56,0-.76Z"/></clipPath><clipPath id="clip-path-19"><path class="cls-1" d="M39.92,100.1v.12c.33,0,.37,0,.37.43v1.71c0,.35,0,.38-.42.41v.12h2.06c0-.13.12-.53.15-.68l-.13,0a1.22,1.22,0,0,1-.21.4c-.09.11-.21.15-.54.15a1,1,0,0,1-.44-.06c-.08-.06-.1-.15-.1-.35v-.81h.4c.37,0,.4,0,.46.33h.13V101h-.13c-.05.29-.08.32-.46.32h-.4v-1c0-.13,0-.14.14-.14h.32c.31,0,.42,0,.48.12a1.05,1.05,0,0,1,.14.37l.13,0c0-.22,0-.51,0-.62Z"/></clipPath><clipPath id="clip-path-20"><path class="cls-1" d="M43.67,100.47c0-.11,0-.17,0-.19a.42.42,0,0,1,.23,0,.58.58,0,0,1,.63.63.62.62,0,0,1-.23.53.7.7,0,0,1-.46.12h-.21ZM43,100.1v.12c.33,0,.37,0,.37.41v1.72c0,.36,0,.39-.39.42v.12h1.12v-.12c-.34,0-.38-.05-.38-.42v-.68h.14c.22,0,.29.05.37.17s.28.48.43.69a.78.78,0,0,0,.69.39h.15l0-.11a.6.6,0,0,1-.31-.2,3.57,3.57,0,0,1-.35-.44c-.13-.19-.31-.48-.38-.62a.78.78,0,0,0,.54-.73.65.65,0,0,0-.28-.56,1.21,1.21,0,0,0-.68-.15Z"/></clipPath><clipPath id="clip-path-21"><path class="cls-1" d="M46.18,100.09v.12c.35,0,.38.05.38.42v1.71c0,.36,0,.39-.38.42v.12h1.13v-.12c-.35,0-.39,0-.39-.42v-1.71c0-.36,0-.39.39-.42v-.12Z"/></clipPath><clipPath id="clip-path-22"><path class="cls-1" d="M50.13,100.09v.12c.3,0,.4.07.42.26a6.72,6.72,0,0,1,0,.71v1.06h0l-1.78-2.15h-.63v.12a.46.46,0,0,1,.38.16c.08.1.09.12.09.43v.94c0,.39,0,.6,0,.73s-.13.27-.37.28v.12h1v-.12c-.29,0-.39-.07-.41-.29s0-.33,0-.72v-1.08h0l1.82,2.24h.13v-1.73a5.89,5.89,0,0,1,0-.72c0-.19.12-.25.36-.26v-.12Z"/></clipPath><clipPath id="clip-path-23"><path class="cls-1" d="M52,101.51a1.43,1.43,0,0,0,1.57,1.43,4.09,4.09,0,0,0,1-.16,1.88,1.88,0,0,1,0-.4V102c0-.25,0-.27.27-.31v-.12H53.68v.12c.42,0,.45.06.45.37v.36c0,.18-.05.23-.14.28a.85.85,0,0,1-.37.08,1.23,1.23,0,0,1-1.18-1.34,1.14,1.14,0,0,1,1.13-1.27.74.74,0,0,1,.83.66l.12,0c0-.28-.06-.52-.07-.67a3.61,3.61,0,0,0-.82-.12A1.48,1.48,0,0,0,52,101.51"/></clipPath><clipPath id="clip-path-24"><path class="cls-1" d="M57.3,101.95a.55.55,0,1,0,.56-.57.56.56,0,0,0-.56.57"/></clipPath><clipPath id="clip-path-25"><path class="cls-1" d="M61.77,102.32v-1.78c0-.17,0-.22.05-.24a.69.69,0,0,1,.33-.05,1.32,1.32,0,0,1,.73.18,1.13,1.13,0,0,1,.5,1,1.15,1.15,0,0,1-1.16,1.28c-.31,0-.45-.08-.45-.41M61,100.1v.12c.33,0,.36,0,.36.41v1.72c0,.37,0,.39-.4.42v.12h1a2,2,0,0,0,1.27-.35,1.36,1.36,0,0,0,.53-1.14,1.27,1.27,0,0,0-.36-.92,1.69,1.69,0,0,0-1.21-.36Z"/></clipPath><clipPath id="clip-path-26"><path class="cls-1" d="M64.74,100.1v.12c.33,0,.37,0,.37.43v1.71c0,.35,0,.38-.42.41v.12h2.06c0-.13.12-.53.15-.68l-.13,0a1.22,1.22,0,0,1-.21.4c-.09.11-.21.15-.54.15a1,1,0,0,1-.44-.06c-.08-.06-.1-.15-.1-.35v-.81h.4c.37,0,.4,0,.46.33h.13V101h-.13c-.05.29-.08.32-.46.32h-.4v-1c0-.13,0-.14.14-.14h.32c.31,0,.42,0,.48.12a1.06,1.06,0,0,1,.14.37l.13,0c0-.22,0-.51,0-.62Z"/></clipPath><clipPath id="clip-path-27"><path class="cls-1" d="M67.74,100.09v.12c.35,0,.38,0,.38.41v1.71c0,.36,0,.39-.39.42v.12h1.93c0-.13.13-.54.15-.67l-.13,0a1.23,1.23,0,0,1-.22.42c-.1.11-.24.13-.48.13a1,1,0,0,1-.41-.06c-.08,0-.1-.13-.1-.36v-1.69c0-.36,0-.38.38-.41v-.12Z"/></clipPath><clipPath id="clip-path-28"><path class="cls-1" d="M70.63,100.09v.12c.35,0,.39.05.39.42v1.71c0,.36,0,.39-.39.42v.12h1.13v-.12c-.35,0-.38,0-.38-.42v-1.71c0-.36,0-.39.38-.42v-.12Z"/></clipPath><clipPath id="clip-path-29"><path class="cls-1" d="M74.49,100.09v.12c.35,0,.37.08.29.32-.14.43-.46,1.26-.68,1.8h0c-.29-.74-.6-1.56-.71-1.87s-.05-.22.25-.25v-.12h-1v.12c.25,0,.32.06.44.38.25.62.6,1.54.88,2.33h.13c.32-.88.77-2,.89-2.25s.22-.42.51-.46v-.12Z"/></clipPath><clipPath id="clip-path-30"><path class="cls-1" d="M76.29,100.1v.12c.33,0,.37,0,.37.43v1.71c0,.35,0,.38-.42.41v.12h2.06c0-.13.12-.53.15-.68l-.13,0a1.24,1.24,0,0,1-.21.4c-.09.11-.21.15-.54.15a1,1,0,0,1-.44-.06c-.08-.06-.1-.15-.1-.35v-.81h.4c.37,0,.4,0,.46.33H78V101h-.12c-.05.29-.08.32-.46.32H77v-1c0-.13,0-.14.14-.14h.32c.31,0,.42,0,.48.12a1.06,1.06,0,0,1,.14.37l.12,0c0-.22,0-.51,0-.62Z"/></clipPath><clipPath id="clip-path-31"><path class="cls-1" d="M80,100.47c0-.11,0-.17,0-.19a.42.42,0,0,1,.23,0,.58.58,0,0,1,.63.63.62.62,0,0,1-.23.53.71.71,0,0,1-.47.12H80Zm-.72-.37v.12c.33,0,.37,0,.37.41v1.72c0,.36,0,.39-.39.42v.12h1.12v-.12c-.34,0-.38-.05-.38-.42v-.68h.14c.22,0,.29.05.37.17s.28.48.43.69a.78.78,0,0,0,.69.39h.15l0-.11a.61.61,0,0,1-.31-.2,3.78,3.78,0,0,1-.35-.44c-.13-.19-.31-.48-.38-.62a.78.78,0,0,0,.54-.73.64.64,0,0,0-.28-.56,1.2,1.2,0,0,0-.68-.15Z"/></clipPath><clipPath id="clip-path-32"><path class="cls-1" d="M82.54,100.09v.12c.35,0,.39.05.39.42v1.71c0,.36,0,.39-.39.42v.12h1.13v-.12c-.35,0-.38,0-.38-.42v-1.71c0-.36,0-.39.38-.42v-.12Z"/></clipPath><clipPath id="clip-path-33"><path class="cls-1" d="M84.64,100.1v.12c.33,0,.36,0,.36.43v1.71c0,.35,0,.38-.42.41v.12h2.06c0-.13.12-.53.15-.68l-.13,0a1.24,1.24,0,0,1-.21.4c-.09.11-.21.15-.54.15a1,1,0,0,1-.44-.06c-.08-.06-.1-.15-.1-.35v-.81h.4c.37,0,.4,0,.46.33h.13V101h-.13c-.05.29-.08.32-.46.32h-.4v-1c0-.13,0-.14.14-.14h.33c.31,0,.42,0,.48.12a1.08,1.08,0,0,1,.14.37l.13,0c0-.22,0-.51,0-.62Z"/></clipPath><clipPath id="clip-path-34"><path class="cls-1" d="M87.73,100.79c0,.49.43.7.71.84s.55.32.55.64a.48.48,0,0,1-.51.51c-.44,0-.63-.43-.7-.69l-.12,0a5.4,5.4,0,0,0,.11.66l.21.09a1.44,1.44,0,0,0,.42.07.87.87,0,0,0,.95-.76v-.1c0-.44-.42-.64-.74-.8s-.54-.32-.54-.64a.45.45,0,0,1,.47-.47c.37,0,.48.3.56.57l.12,0-.07-.59a1.78,1.78,0,0,0-.54-.1.79.79,0,0,0-.88.76"/></clipPath></defs><title>Asset 5logo</title><g id="Layer_2" data-name="Layer 2"><g id="Layer_1-2" data-name="Layer 1"><g class="cls-2"><rect class="cls-3" y="82.63" width="17.37" height="19.49"/></g><g class="cls-4"><rect class="cls-3" x="33.85" y="82.42" width="19.9" height="19.88"/></g><g class="cls-5"><rect class="cls-3" x="77.08" y="82.68" width="17.26" height="19.38"/></g><g class="cls-6"><rect class="cls-3" x="48.54" y="82.44" width="18.62" height="19.86"/></g><path class="cls-3" d="M6.67,1H88.12V82.7H6.67Zm-1,82.72H89.09V0H5.7Z"/><g class="cls-7"><rect class="cls-3" x="61.93" y="82.66" width="20.46" height="19.4"/></g><g class="cls-8"><rect class="cls-3" x="12.39" y="82.62" width="18.54" height="19.47"/></g><g class="cls-9"><rect class="cls-3" x="25.35" y="82.66" width="13.8" height="19.4"/></g><g class="cls-10"><rect class="cls-3" x="6.68" y="1.52" width="81.86" height="78.97"/></g><g class="cls-11"><rect class="cls-3" x="0.16" y="95.1" width="12.19" height="12.78"/></g><g class="cls-12"><rect class="cls-3" x="3.1" y="95.03" width="12.79" height="12.85"/></g><g class="cls-13"><rect class="cls-3" x="6.73" y="95.1" width="12.68" height="12.78"/></g><g class="cls-14"><rect class="cls-3" x="10.16" y="95.1" width="12.21" height="12.78"/></g><g class="cls-15"><rect class="cls-3" x="13.21" y="95.1" width="12.53" height="12.82"/></g><g class="cls-16"><rect class="cls-3" x="16.18" y="95.1" width="12.58" height="12.78"/></g><g class="cls-17"><rect class="cls-3" x="21.26" y="96.38" width="11.11" height="11.14"/></g><g class="cls-18"><rect class="cls-3" x="25" y="95.03" width="12.56" height="12.91"/></g><g class="cls-19"><rect class="cls-3" x="28.33" y="95.03" width="12.79" height="12.85"/></g><g class="cls-20"><rect class="cls-3" x="31.63" y="94.99" width="12.41" height="12.89"/></g><g class="cls-21"><rect class="cls-3" x="34.87" y="95.1" width="12.21" height="12.78"/></g><g class="cls-22"><rect class="cls-3" x="37.93" y="95.1" width="12.53" height="12.82"/></g><g class="cls-23"><rect class="cls-3" x="41.18" y="95.1" width="11.13" height="12.78"/></g><g class="cls-24"><rect class="cls-3" x="43.16" y="95.1" width="12.98" height="12.82"/></g><g class="cls-25"><rect class="cls-3" x="47" y="95.03" width="12.77" height="12.91"/></g><g class="cls-26"><rect class="cls-3" x="52.3" y="96.38" width="11.11" height="11.14"/></g><g class="cls-27"><rect class="cls-3" x="55.99" y="95.1" width="12.8" height="12.78"/></g><g class="cls-28"><rect class="cls-3" x="59.69" y="95.1" width="12.21" height="12.78"/></g><g class="cls-29"><rect class="cls-3" x="62.73" y="95.1" width="12.09" height="12.78"/></g><g class="cls-30"><rect class="cls-3" x="65.63" y="95.1" width="11.13" height="12.78"/></g><g class="cls-31"><rect class="cls-3" x="67.59" y="95.1" width="12.86" height="12.83"/></g><g class="cls-32"><rect class="cls-3" x="71.24" y="95.1" width="12.21" height="12.78"/></g><g class="cls-33"><rect class="cls-3" x="74.29" y="95.1" width="12.53" height="12.82"/></g><g class="cls-34"><rect class="cls-3" x="77.54" y="95.1" width="11.13" height="12.78"/></g><g class="cls-35"><rect class="cls-3" x="79.59" y="95.1" width="12.21" height="12.78"/></g><g class="cls-36"><rect class="cls-3" x="82.66" y="95.03" width="11.69" height="12.91"/></g></g></g></svg>