<svg xmlns="http://www.w3.org/2000/svg" xmlns:xlink="http://www.w3.org/1999/xlink" viewBox="0 0 146.9 51.45"><defs><style>.cls-1{fill:none;}.cls-2{clip-path:url(#clip-path);}.cls-3{fill:#231f20;}.cls-4{clip-path:url(#clip-path-2);}.cls-5{clip-path:url(#clip-path-3);}.cls-6{clip-path:url(#clip-path-4);}.cls-7{clip-path:url(#clip-path-5);}.cls-8{clip-path:url(#clip-path-6);}.cls-9{clip-path:url(#clip-path-7);}.cls-10{clip-path:url(#clip-path-8);}.cls-11{clip-path:url(#clip-path-9);}.cls-12{clip-path:url(#clip-path-10);}.cls-13{clip-path:url(#clip-path-11);}.cls-14{clip-path:url(#clip-path-12);}</style><clipPath id="clip-path"><path class="cls-1" d="M56.49,16.56h3.73a4.61,4.61,0,0,1,2,.29,2.11,2.11,0,0,1,1.28,2A2.26,2.26,0,0,1,62.2,21,4.92,4.92,0,0,1,60,21.4H56.49Zm0-7.26h3.15a3.62,3.62,0,0,1,1.62.29,2.07,2.07,0,0,1,1.15,2,2.07,2.07,0,0,1-1,1.91,3.72,3.72,0,0,1-1.93.4h-3Zm-3-2.71V24.11h5.84a10.78,10.78,0,0,0,3.29-.37,5,5,0,0,0,3.8-4.92,3.83,3.83,0,0,0-3.18-4v-.05a4,4,0,0,0,2.06-3.67,4.37,4.37,0,0,0-2.53-4,6.63,6.63,0,0,0-3-.56Z"/></clipPath><clipPath id="clip-path-2"><path class="cls-1" d="M111.39,11.38c0,6,8.76,4.33,8.76,8.08,0,1.59-1.64,2.28-3.41,2.28a9,9,0,0,1-4.7-1.38l-1.22,2.45a10.71,10.71,0,0,0,5.81,1.56c3.94,0,6.65-2.07,6.65-5.34,0-5.92-8.84-4.49-8.84-8.07,0-1.38,1.38-1.89,3-1.89a10.37,10.37,0,0,1,4.8,1.23l.05-2.87a11.54,11.54,0,0,0-4.77-1c-3.62,0-6.12,1.75-6.12,4.94"/></clipPath><clipPath id="clip-path-3"><path class="cls-1" d="M52,36.19c0,5.26,2.95,8.93,8.08,8.93a10.92,10.92,0,0,0,4.77-1l-.89-2.55a7.72,7.72,0,0,1-3.57.88c-3.39,0-5.29-2.81-5.29-6.27s2-6.24,5.29-6.24a7.81,7.81,0,0,1,3.57.88l.89-2.55a10.94,10.94,0,0,0-4.77-1c-5.13,0-8.08,4.09-8.08,9"/></clipPath><clipPath id="clip-path-4"><path class="cls-1" d="M116.42,36.19c0,5.26,2.95,8.93,8.09,8.93a10.88,10.88,0,0,0,4.77-1l-.88-2.55a7.73,7.73,0,0,1-3.58.88c-3.39,0-5.29-2.81-5.29-6.27s2-6.24,5.29-6.24a7.82,7.82,0,0,1,3.58.88l.88-2.55a10.9,10.9,0,0,0-4.77-1c-5.14,0-8.09,4.09-8.09,9"/></clipPath><clipPath id="clip-path-5"><path class="cls-1" d="M68.49,36.16c0-3.85,2.14-6.3,5-6.3s5,2.45,5,6.27-2.14,6.3-5,6.3-5-2.44-5-6.27m-3.1.06c0,5.26,3.23,8.9,8.13,8.9s8.13-3.77,8.13-9-3.23-8.9-8.13-8.9-8.13,3.77-8.13,9"/></clipPath><clipPath id="clip-path-6"><path class="cls-1" d="M94.58,27.35v11c0,2.92-1.49,4-4,4s-4-1.09-4-4v-11H83.65V38.26c0,4.76,2.64,6.86,6.89,6.86s7-2.1,7-6.86V27.35Z"/></clipPath><clipPath id="clip-path-7"><path class="cls-1" d="M111.27,27.35v9.59c0,.83,0,1.75.08,2.34h-.05l-8-11.93h-3.18v17.5h2.95V34.44c0-.82,0-1.76-.08-2.34h.05l8.55,12.75h2.6V27.35Z"/></clipPath><clipPath id="clip-path-8"><path class="cls-1" d="M71.43,9.31h3.05c2.06,0,3,1.17,3,2.6,0,1.59-1,2.71-3.1,2.71H71.43ZM68.49,6.6v17.5h2.94V17.33h2.74c1,0,1.69,1.49,4.2,6.78h3.36c-2.87-5.84-3.7-7.49-4.48-7.94v0a4.46,4.46,0,0,0,3.18-4.49c0-2.66-1.7-5-6.13-5Z"/></clipPath><clipPath id="clip-path-9"><path class="cls-1" d="M5,15a9.92,9.92,0,0,0,9.82,10,9.92,9.92,0,0,0,9.83-10A9.92,9.92,0,0,0,14.83,5,9.92,9.92,0,0,0,5,15"/></clipPath><clipPath id="clip-path-10"><path class="cls-1" d="M26,15a9.83,9.83,0,1,0,19.65,0A9.83,9.83,0,1,0,26,15"/></clipPath><clipPath id="clip-path-11"><path class="cls-1" d="M5,36.44a9.92,9.92,0,0,0,9.82,10,10,10,0,0,0,0-20A9.92,9.92,0,0,0,5,36.44"/></clipPath><clipPath id="clip-path-12"><path class="cls-1" d="M26,36.44a9.83,9.83,0,1,0,9.82-10,9.92,9.92,0,0,0-9.82,10"/></clipPath></defs><title>Asset 10logo</title><g id="Layer_2" data-name="Layer 2"><g id="Layer_1-2" data-name="Layer 1"><g class="cls-2"><rect class="cls-3" x="48.54" y="1.6" width="22.93" height="27.51"/></g><rect class="cls-3" x="83.66" y="6.6" width="2.95" height="17.51"/><rect class="cls-3" x="105.05" y="6.6" width="2.94" height="17.51"/><g class="cls-4"><rect class="cls-3" x="105.81" y="1.44" width="22.47" height="27.93"/></g><polygon class="cls-3" points="137.22 6.6 137.22 13.78 128.88 13.78 128.88 6.6 125.93 6.6 125.93 24.11 128.88 24.11 128.88 16.57 137.22 16.57 137.22 24.11 140.17 24.11 140.17 6.6 137.22 6.6"/><g class="cls-5"><rect class="cls-3" x="46.97" y="22.18" width="22.85" height="27.94"/></g><g class="cls-6"><rect class="cls-3" x="111.42" y="22.18" width="22.85" height="27.94"/></g><g class="cls-7"><rect class="cls-3" x="60.39" y="22.19" width="26.27" height="27.93"/></g><g class="cls-8"><rect class="cls-3" x="78.65" y="22.35" width="23.87" height="27.77"/></g><g class="cls-9"><rect class="cls-3" x="95.14" y="22.35" width="24.07" height="27.5"/></g><rect class="cls-3" x="131.59" y="27.35" width="2.94" height="17.51"/><polygon class="cls-3" points="137.22 27.35 137.22 44.86 146.9 44.86 146.9 42.14 140.17 42.14 140.17 27.35 137.22 27.35"/><polygon class="cls-3" points="88.86 6.61 88.86 9.34 94.36 9.34 94.36 24.11 97.3 24.11 97.3 9.34 102.8 9.34 102.8 6.61 88.86 6.61"/><g class="cls-10"><rect class="cls-3" x="63.49" y="1.6" width="23.24" height="27.5"/></g><g class="cls-11"><rect class="cls-3" width="29.65" height="30.03"/></g><g class="cls-12"><rect class="cls-3" x="21.03" width="29.65" height="30.03"/></g><g class="cls-13"><rect class="cls-3" y="21.43" width="29.65" height="30.02"/></g><g class="cls-14"><rect class="cls-3" x="21.03" y="21.43" width="29.65" height="30.02"/></g></g></g></svg>