<svg xmlns="http://www.w3.org/2000/svg" xmlns:xlink="http://www.w3.org/1999/xlink" viewBox="0 0 125.56 71.61"><defs><style>.cls-1{fill:none;}.cls-2{clip-path:url(#clip-path);}.cls-3{fill:#231f20;}.cls-4{clip-path:url(#clip-path-2);}.cls-5{clip-path:url(#clip-path-3);}.cls-6{clip-path:url(#clip-path-4);}.cls-7{clip-path:url(#clip-path-5);}.cls-8{clip-path:url(#clip-path-6);}.cls-9{clip-path:url(#clip-path-7);}.cls-10{clip-path:url(#clip-path-8);}.cls-11{clip-path:url(#clip-path-9);}.cls-12{clip-path:url(#clip-path-10);}.cls-13{clip-path:url(#clip-path-11);}.cls-14{clip-path:url(#clip-path-12);}.cls-15{clip-path:url(#clip-path-13);}.cls-16{clip-path:url(#clip-path-14);}.cls-17{clip-path:url(#clip-path-15);}.cls-18{clip-path:url(#clip-path-16);}.cls-19{clip-path:url(#clip-path-17);}.cls-20{clip-path:url(#clip-path-18);}.cls-21{clip-path:url(#clip-path-19);}.cls-22{clip-path:url(#clip-path-20);}.cls-23{clip-path:url(#clip-path-21);}</style><clipPath id="clip-path"><path class="cls-1" d="M70.17,9.88a.18.18,0,0,1-.08-.16V5.86a.14.14,0,0,1,.09-.14A5,5,0,0,1,71,5.65c1.26,0,2,.86,2,2.36a2.19,2.19,0,0,1-.72,1.84,1.48,1.48,0,0,1-.89.21,3.78,3.78,0,0,1-1.31-.19m-.52-4.62-1.4,0c-.14,0-.19,0-.19.1a.12.12,0,0,0,.1.1l.4,0c.39.06.46.26.48.66s0,.72,0,2.59v2.12a24.85,24.85,0,0,1-.07,2.6c0,.35-.08.58-.31.64a1.57,1.57,0,0,1-.36.06.09.09,0,0,0-.09.1c0,.07.07.1.19.1.36,0,1.16,0,1.17,0s.81,0,1.45,0c.13,0,.18,0,.18-.1s0-.1-.09-.1a4,4,0,0,1-.52-.06c-.36-.06-.43-.29-.47-.64s-.05-1.43-.05-2.59v-.28c0-.07,0-.1.08-.1l1.51,0a.18.18,0,0,1,.16.07c.25.33.78,1.1,1.28,1.76a6.18,6.18,0,0,0,1.61,1.76,2.25,2.25,0,0,0,1.26.25h.74c.22,0,.28,0,.28-.1a.1.1,0,0,0-.1-.1,1.94,1.94,0,0,1-.42,0,2.15,2.15,0,0,1-1.32-.83c-.68-.75-1.5-1.84-2.48-3.11a3.56,3.56,0,0,0,1.45-2.74,2.14,2.14,0,0,0-.82-1.64,3.72,3.72,0,0,0-2.21-.52l-1.48,0"/></clipPath><clipPath id="clip-path-2"><path class="cls-1" d="M112,5.67v6.88c0,1.08,0,1.41-.34,1.49a1.73,1.73,0,0,1-.48.08.09.09,0,0,0-.1.1c0,.08.07.1.19.1.54,0,1,0,1.15,0s.58,0,1.25,0c.13,0,.21,0,.21-.1a.09.09,0,0,0-.09-.1,2.55,2.55,0,0,1-.59-.08c-.32-.08-.43-.38-.46-1.37L112.56,7c.36.42,1.69,1.89,3.06,3.41s3,3.14,3.08,3.25c.66.64.78.74.9.74s.09-.07.09-.86l0-7c0-.72,0-1,.41-1a1.37,1.37,0,0,1,.28,0,.14.14,0,0,0,.14-.12c0-.07-.1-.08-.22-.08-.48,0-.87,0-1,0s-.69,0-1.23,0c-.14,0-.23,0-.23.08s0,.12.09.12a3.49,3.49,0,0,1,.58.06c.36.07.43.34.44,1.11l.12,6c-.36-.4-1.62-1.82-2.8-3.1-1.82-2-3.55-3.9-3.74-4.09s-.32-.37-.46-.37-.15.12-.15.61"/></clipPath><clipPath id="clip-path-3"><path class="cls-1" d="M64.63,5.25c-.05,0-.82,0-1.34,0-.13,0-.18,0-.18.1a.1.1,0,0,0,.09.1l.4,0c.39.06.44.26.47.66s0,.75,0,2.61V9c0,.07,0,.07-.06.07H59.09S59,9.06,59,9V8.73c0-1.87,0-2.23,0-2.61s.1-.59.42-.66a1.38,1.38,0,0,1,.3,0,.12.12,0,0,0,.09-.1c0-.07-.05-.1-.18-.1l-1.17,0c-.07,0-.82,0-1.36,0-.13,0-.18,0-.18.1a.12.12,0,0,0,.09.1l.4,0c.39.06.46.26.49.66s0,.72,0,2.59v2.12a25.58,25.58,0,0,1-.07,2.6c-.05.35-.08.58-.31.64a1.56,1.56,0,0,1-.36.06.1.1,0,0,0-.1.1c0,.07.07.1.19.1.36,0,1.11,0,1.18,0s.81,0,1.47,0c.13,0,.19,0,.19-.1a.1.1,0,0,0-.1-.1,4.6,4.6,0,0,1-.54-.06c-.35-.06-.39-.29-.43-.64S59,12,59,10.85V9.65c0-.06,0-.08.07-.08H64s.06,0,.06.08v1.2c0,1.16,0,2.06-.06,2.56s-.08.59-.32.65a1.42,1.42,0,0,1-.35.06.09.09,0,0,0-.1.1c0,.07.05.1.19.1.35,0,1.12,0,1.17,0s.82,0,1.47,0c.13,0,.2,0,.2-.1a.1.1,0,0,0-.1-.1,4.39,4.39,0,0,1-.53-.06c-.36-.06-.39-.29-.43-.64s-.07-1.44-.07-2.6V8.7c0-1.87,0-2.2,0-2.59s.09-.59.4-.66a1.47,1.47,0,0,1,.3,0,.12.12,0,0,0,.1-.1c0-.07-.07-.1-.2-.1l-1.17,0"/></clipPath><clipPath id="clip-path-4"><path class="cls-1" d="M48.42,6.34a4.86,4.86,0,0,0-1.33,3.28,4.62,4.62,0,0,0,1.43,3.56,5.43,5.43,0,0,0,3.9,1.29,6.74,6.74,0,0,0,2.14-.27c.2-.08.23-.13.29-.35a13.34,13.34,0,0,0,.28-1.54c0-.08-.05-.17-.11-.17s-.09,0-.12.17a2.29,2.29,0,0,1-.46,1,2.41,2.41,0,0,1-1.95.56,4.26,4.26,0,0,1-4.26-4.35A4,4,0,0,1,49.3,6.39,3.52,3.52,0,0,1,52,5.55a3.72,3.72,0,0,1,2.33.66,1.61,1.61,0,0,1,.5,1.2c0,.17,0,.25.09.25S55,7.6,55,7.42s0-.83,0-1.23.05-.58.05-.68,0-.13-.15-.13a8.49,8.49,0,0,1-1.21-.18A10.77,10.77,0,0,0,52,5.06a4.74,4.74,0,0,0-3.6,1.28"/></clipPath><clipPath id="clip-path-5"><path class="cls-1" d="M104.49,10.38l1.1-3.29c.07-.19.14-.19.21,0L107,10.38c0,.06,0,.09,0,.09h-2.39s-.05,0,0-.09m1.11-4.92L102.82,13c-.23.6-.46,1-1,1.1l-.35,0a.11.11,0,0,0-.11.1c0,.07.09.1.23.1.48,0,1.08,0,1.2,0s.78,0,1.06,0c.11,0,.18,0,.18-.1s0-.1-.13-.1h-.1c-.2,0-.41-.09-.41-.33a2.57,2.57,0,0,1,.18-.8l.67-1.93c0-.07.07-.1.13-.1h2.73c.07,0,.08,0,.1.07l1.07,2.76a.23.23,0,0,1-.11.33c-.06,0-.08,0-.08.08s.19.07.41.09c.82,0,1.7,0,1.87,0s.27,0,.27-.1-.08-.1-.15-.1A1.44,1.44,0,0,1,110,14c-.26-.08-.58-.24-1-1.31-.73-1.82-2.62-6.78-2.84-7.29-.12-.26-.16-.44-.28-.44s-.14.07-.28.47"/></clipPath><clipPath id="clip-path-6"><path class="cls-1" d="M78.63,5.25l-1.2,0c-.13,0-.19,0-.19.1a.11.11,0,0,0,.1.1,2.09,2.09,0,0,1,.36,0c.25.06.35.24.38.65s0,.72,0,2.59v2.12c0,1.16,0,2.1-.07,2.6s-.08.58-.31.64a1.66,1.66,0,0,1-.36.06.1.1,0,0,0-.1.1c0,.07.07.1.19.1.36,0,1.1,0,1.17,0s.82,0,1.47,0c.14,0,.19,0,.19-.1a.09.09,0,0,0-.09-.1,4.81,4.81,0,0,1-.54-.06c-.35-.06-.39-.29-.42-.64s-.06-1.44-.06-2.6V8.7c0-1.87,0-2.21,0-2.59s.1-.59.42-.66a1.37,1.37,0,0,1,.3,0,.12.12,0,0,0,.09-.1c0-.07-.05-.1-.18-.1l-1.18,0"/></clipPath><clipPath id="clip-path-7"><path class="cls-1" d="M99.11,5.25l-1.2,0c-.14,0-.19,0-.19.1a.11.11,0,0,0,.1.1,2.08,2.08,0,0,1,.36,0c.26.06.35.24.38.65s0,.72,0,2.59v2.12c0,1.16,0,2.1-.07,2.6s-.08.58-.31.64a1.6,1.6,0,0,1-.36.06c-.07,0-.09.05-.09.1s.06.1.19.1c.36,0,1.1,0,1.17,0s.81,0,1.47,0c.14,0,.19,0,.19-.1a.09.09,0,0,0-.09-.1,4.81,4.81,0,0,1-.54-.06c-.35-.06-.39-.29-.43-.64s-.05-1.44-.05-2.6V8.7c0-1.87,0-2.21,0-2.59s.09-.59.42-.66a1.35,1.35,0,0,1,.29,0,.12.12,0,0,0,.1-.1c0-.07-.05-.1-.19-.1l-1.18,0"/></clipPath><clipPath id="clip-path-8"><path class="cls-1" d="M88.84,5.28c0,.1-.25,1.17-.25,1.3a.09.09,0,0,0,.08.1s.09,0,.12-.11A2,2,0,0,1,89,6.19c.17-.28.46-.37,1.19-.38l1.71,0v5c0,1.16,0,2.1-.06,2.6s-.11.59-.35.65a1.49,1.49,0,0,1-.35.06.08.08,0,0,0-.09.09c0,.07.05.1.19.1.35,0,1.17,0,1.22,0s.82,0,1.47,0c.13,0,.19,0,.19-.1s0-.1-.09-.1a4.69,4.69,0,0,1-.54-.06c-.36-.06-.41-.29-.46-.64S93,12,93,10.82v-5l1.48,0c1.13,0,1.39.3,1.43.67V6.6c0,.17,0,.21.09.21s.11-.06.11-.16,0-1,0-1.37c0-.07,0-.14-.05-.14l-.34.06a6.26,6.26,0,0,1-.84.05H90.42c-.14,0-.6,0-.94-.05A4,4,0,0,1,89,5.06s-.09.16-.12.23"/></clipPath><clipPath id="clip-path-9"><path class="cls-1" d="M82.39,7.3c0,.84.42,1.57,1.7,2.57l.54.43c1,.82,1.49,1.23,1.49,2.09A1.57,1.57,0,0,1,84.34,14a1.73,1.73,0,0,1-1.87-1.19,1.68,1.68,0,0,1,0-.44c0-.09,0-.14-.1-.14s-.09.07-.09.2-.07.67-.07,1.27c0,.32,0,.37.17.45a4.16,4.16,0,0,0,1.72.33A3.45,3.45,0,0,0,85.94,14,2.37,2.37,0,0,0,87,12c0-1-.5-1.86-1.94-2.9l-.33-.24c-1.17-.83-1.54-1.27-1.54-2s.72-1.3,1.58-1.3c1.06,0,1.45.45,1.54.59a2.27,2.27,0,0,1,.17.59c0,.1,0,.15.11.15s.1-.07.1-.25c0-.82.05-1.21.05-1.27s0-.09-.12-.09a1.59,1.59,0,0,1-.42-.05A4.5,4.5,0,0,0,85,5c-1.56,0-2.62.85-2.62,2.26"/></clipPath><clipPath id="clip-path-10"><path class="cls-1" d="M98,22.37a7.26,7.26,0,0,1-1.56.17c-.77,0-8.2,0-8.86,0-.19,0-2.33-.08-3.88-.08-.39,0-.54.08-.54.28a.34.34,0,0,0,.27.29,11.31,11.31,0,0,1,1.17.08c1.13.16,1.32.74,1.4,1.92s.08,2.08.08,7.48v6.13a73.07,73.07,0,0,1-.2,7.51c-.15,1-.23,1.72-.89,1.84a9,9,0,0,1-1.05.17.27.27,0,0,0-.27.28c0,.21.2.29.54.29,1,0,3.19-.12,3.38-.12s2.37.12,4.28.12c.39,0,.54-.13.54-.29a.27.27,0,0,0-.27-.28A13,13,0,0,1,90.59,48c-.93-.17-1.13-.82-1.24-1.84-.16-1.35-.16-4.08-.16-7.51V35.85c0-.24,0-.33.23-.33.59,0,4.63,0,5.48.08,1,.16,1.59.61,1.75,1.1A5.4,5.4,0,0,1,96.88,38c0,.17,0,.33.23.33s.31-.37.31-.7,0-1.63.12-2.33a14.52,14.52,0,0,1,.32-1.92c0-.17,0-.29-.2-.29s-.27.17-.43.37c-.31.41-.78.53-1.59.61-.47,0-1,0-1.56,0l-4.66,0c-.23,0-.23-.12-.23-.32V24.33c0-.29.08-.37.28-.37l5.59.08a2.53,2.53,0,0,1,2.33,1,4,4,0,0,1,.31,1.31c0,.25.12.41.28.41s.27-.21.31-.37c.08-.41.12-2,.15-2.28.12-1,.27-1.39.27-1.64s-.08-.32-.23-.32-.28.16-.47.2"/></clipPath><clipPath id="clip-path-11"><path class="cls-1" d="M118.18,22.33c-.28,0-.9.16-1.56.21s-7.93,0-8.16,0-2.41-.08-4-.08c-.39,0-.54.08-.54.28a.34.34,0,0,0,.27.29,11.44,11.44,0,0,1,1.17.08c1.12.16,1.32.74,1.4,1.92s.08,2.08.08,7.48v6.13a72.69,72.69,0,0,1-.2,7.51c-.16,1-.23,1.72-.89,1.84a9.09,9.09,0,0,1-1,.17.27.27,0,0,0-.27.28c0,.21.19.29.54.29.54,0,1.32,0,2-.08s1.4,0,1.48,0c.51,0,1.4,0,2.84.09s3.38.13,5.94.13c1.33,0,1.68,0,1.91-.91a30.32,30.32,0,0,0,.47-3.35c0-.25,0-.53-.23-.53s-.27.13-.35.53a2.61,2.61,0,0,1-1.56,2.4,10.73,10.73,0,0,1-3.42.37c-3.38,0-4-.45-4.08-2.78,0-.7,0-4.74,0-5.92v-2.9c0-.12,0-.24.23-.24.58,0,4.24,0,5.17.16,1.32.16,1.64.57,1.75,1.06a3.28,3.28,0,0,1,.15,1.15c0,.2.08.32.23.32s.31-.37.31-.66.08-1.55.15-2.25a19.17,19.17,0,0,1,.27-1.92c0-.21-.08-.29-.2-.29s-.27.2-.5.45-.86.41-1.67.49-5.28.08-5.71.08c-.2,0-.2-.12-.2-.37V24.29c0-.25,0-.37.2-.37.39,0,4.35,0,4.93.12,1.86.25,2.22.49,2.45,1.06a4.07,4.07,0,0,1,.19,1.22c0,.29.08.46.27.46s.27-.21.31-.37c.08-.41.16-2,.2-2.28.08-1,.27-1.39.27-1.64s0-.32-.15-.32a2,2,0,0,0-.47.16"/></clipPath><clipPath id="clip-path-12"><path class="cls-1" d="M73.25,22.54c-.2,0-2.33-.08-3.46-.08-.39,0-.55.08-.55.28a.3.3,0,0,0,.28.29,6.16,6.16,0,0,1,1,.12c.74.16,1,.7,1.09,1.88s.08,2.08.08,7.48v6.13c0,3.35,0,6.09-.2,7.51-.11,1-.23,1.68-.89,1.84a4.58,4.58,0,0,1-1.05.17.27.27,0,0,0-.27.28c0,.21.2.29.54.29,1,0,3.19-.12,3.38-.12s2.37.12,4.28.12c.39,0,.54-.13.54-.29a.27.27,0,0,0-.27-.28A13.25,13.25,0,0,1,76.24,48c-1-.17-1.12-.82-1.24-1.84-.15-1.43-.15-4.16-.15-7.51V32.5c0-5.39,0-6.37,0-7.48s.27-1.71,1.2-1.92a3.75,3.75,0,0,1,.86-.08.34.34,0,0,0,.28-.29c0-.2-.16-.28-.55-.28-1,0-3.27.08-3.42.08"/></clipPath><clipPath id="clip-path-13"><path class="cls-1" d="M52.46,22.54c-.19,0-2.33-.08-3.89-.08-.38,0-.54.08-.54.28a.34.34,0,0,0,.27.29,11.19,11.19,0,0,1,1.16.08c1.13.16,1.32.74,1.4,1.92s.08,2.08.08,7.48v6.13a74.57,74.57,0,0,1-.19,7.51c-.16,1-.23,1.68-.89,1.84a4.6,4.6,0,0,1-1,.17.27.27,0,0,0-.27.28c0,.21.19.29.54.29.54,0,1.28,0,2-.08s1.24,0,1.4,0c1,0,2.18,0,3.73.09s3.49.13,5.94.13c1.83,0,1.94-.12,2.18-.95a23.15,23.15,0,0,0,.51-3.47c0-.37-.08-.53-.24-.53s-.31.21-.35.45a4.36,4.36,0,0,1-.82,2c-.82,1-2.34,1.06-4.12,1.06-2.68,0-4-.24-4.54-.81s-.7-2.7-.7-7.8V32.5c0-5.39,0-6.37,0-7.48s.27-1.76,1.29-2c.39,0,.89-.08,1.12-.08a.3.3,0,0,0,.27-.25c0-.2-.2-.28-.55-.28-1,0-3.61.08-3.77.08"/></clipPath><clipPath id="clip-path-14"><path class="cls-1" d="M79.41,56.36a5.33,5.33,0,0,1-.6.08c-.29,0-3,0-3.11,0s-.92,0-1.51,0c-.15,0-.21,0-.21.11a.14.14,0,0,0,.11.11l.45,0c.43.06.5.28.53.73s0,.79,0,2.85v2.34c0,1.28,0,2.32-.07,2.86s-.09.66-.34.7-.28.06-.4.06a.11.11,0,0,0-.1.11c0,.08.08.11.21.11l.76,0,.57,0c.19,0,.53,0,1.08,0s1.29,0,2.27,0c.51,0,.64,0,.73-.34A12.35,12.35,0,0,0,80,64.84c0-.09,0-.2-.09-.2s-.11,0-.14.2a1,1,0,0,1-.59.92,4.17,4.17,0,0,1-1.3.14c-1.29,0-1.53-.17-1.56-1.06,0-.26,0-1.81,0-2.26V61.47a.08.08,0,0,1,.09-.09c.23,0,1.62,0,2,.06s.62.22.67.41a1.25,1.25,0,0,1,.06.44c0,.08,0,.13.09.13s.11-.14.11-.25,0-.59.06-.86a7.24,7.24,0,0,1,.1-.73c0-.08,0-.11-.07-.11s-.1.08-.19.17-.33.16-.64.18-2,0-2.18,0-.08,0-.08-.14v-3.6c0-.1,0-.15.08-.15s1.66,0,1.88,0c.72.1.84.19.94.41a1.59,1.59,0,0,1,.07.46c0,.12,0,.18.11.18s.11-.08.12-.14.06-.75.07-.87c0-.37.11-.53.11-.62s0-.13-.06-.13-.12,0-.18.06"/></clipPath><clipPath id="clip-path-15"><path class="cls-1" d="M66.58,58.7c0,.92.46,1.73,1.87,2.84L69,62c1.16.9,1.64,1.35,1.64,2.31a1.73,1.73,0,0,1-2,1.76,1.92,1.92,0,0,1-2.06-1.31,1.94,1.94,0,0,1,0-.49c0-.11,0-.16-.12-.16s-.1.07-.1.22-.07.75-.07,1.41c0,.36,0,.4.19.5a4.53,4.53,0,0,0,1.9.36,3.77,3.77,0,0,0,2.07-.47,2.62,2.62,0,0,0,1.22-2.26c0-1.14-.55-2.06-2.13-3.2l-.37-.26c-1.29-.92-1.7-1.41-1.7-2.24s.78-1.44,1.73-1.44c1.17,0,1.61.5,1.7.66a2.42,2.42,0,0,1,.19.65c0,.11,0,.17.12.17s.1-.08.1-.28c0-.9.06-1.34.06-1.4s0-.1-.13-.1a1.66,1.66,0,0,1-.46-.06,5.2,5.2,0,0,0-1.35-.17c-1.72,0-2.89.94-2.89,2.5"/></clipPath><clipPath id="clip-path-16"><path class="cls-1" d="M58.81,58.7c0,.92.46,1.73,1.87,2.84l.59.46c1.16.9,1.65,1.35,1.65,2.31a1.74,1.74,0,0,1-2,1.76,1.91,1.91,0,0,1-2.06-1.31,2.2,2.2,0,0,1,0-.49c0-.11,0-.16-.12-.16s-.1.07-.1.22-.07.75-.07,1.41c0,.36,0,.4.19.5a4.49,4.49,0,0,0,1.9.36,3.78,3.78,0,0,0,2.07-.47,2.61,2.61,0,0,0,1.22-2.26c0-1.14-.55-2.06-2.13-3.2l-.37-.26c-1.29-.92-1.69-1.41-1.69-2.24s.79-1.44,1.74-1.44c1.17,0,1.6.5,1.69.66a2.21,2.21,0,0,1,.19.65c0,.11,0,.17.12.17s.1-.08.1-.28a13.79,13.79,0,0,1,.06-1.4c0-.08,0-.1-.14-.1a1.65,1.65,0,0,1-.46-.06,5.18,5.18,0,0,0-1.35-.17c-1.72,0-2.89.94-2.89,2.5"/></clipPath><clipPath id="clip-path-17"><path class="cls-1" d="M98.56,65.81c-.4-.21-.4-.36-.45-1,0-.2,0-1.79,0-2.82v-.73c0-.07,0-.1.08-.1a9.83,9.83,0,0,1,1,0,2.67,2.67,0,0,1,1.17.35A2.93,2.93,0,0,1,101.61,64c0,1.7-1.05,2-1.91,2a3,3,0,0,1-1.14-.19m-.38-5.15c-.05,0-.09,0-.09-.14V57c0-.08,0-.11.17-.14a3.5,3.5,0,0,1,.67-.06A1.91,1.91,0,0,1,100.77,59a2.07,2.07,0,0,1-.51,1.42c-.27.31-.55.35-1.27.35a3.53,3.53,0,0,1-.81-.07m-.6-4.22c-.08,0-.92,0-1.51,0-.15,0-.21,0-.21.11s.06.08.1.08l.44,0c.43.06.51.31.53.76s0,.79,0,2.85v2.34c0,1.28,0,2.32-.07,2.87-.06.39-.09.69-.34.73a3.36,3.36,0,0,1-.4.07c-.07,0-.1,0-.1.08s.08.11.2.11l.79,0,.54,0,.84,0c.42,0,.89,0,1.12,0a3,3,0,0,0,3.28-2.95,3.1,3.1,0,0,0-2.3-2.76,3.18,3.18,0,0,0,1.32-2.32c0-.7-.57-2-2.74-2-.61,0-1.22,0-1.53,0"/></clipPath><clipPath id="clip-path-18"><path class="cls-1" d="M118.43,56.44c-.1,0-.56,0-.9,0-.14,0-.21,0-.21.08s.07.12.2.16.21.15.21.34a1.46,1.46,0,0,1-.22.68c-.24.43-1.87,3.27-2.13,3.83L113,57.37a1.17,1.17,0,0,1-.17-.52.23.23,0,0,1,.16-.21c.12-.05.21-.1.21-.14s0-.09-.18-.09c-.51,0-1,0-1.13,0l-1.29,0c-.12,0-.16,0-.16.09a.13.13,0,0,0,.13.12,1.27,1.27,0,0,1,.55.19,3.36,3.36,0,0,1,.86,1c.45.7,2.21,3.65,2.32,3.85a2.53,2.53,0,0,1,.28,1.35v1.14c0,.22,0,.78,0,1.32s-.12.64-.39.7a1.73,1.73,0,0,1-.39.06.1.1,0,0,0-.1.11c0,.08.06.11.21.11.39,0,1.22,0,1.28,0s.92,0,1.65,0c.13,0,.21,0,.21-.11a.11.11,0,0,0-.1-.11,4.94,4.94,0,0,1-.59-.06c-.39-.06-.47-.31-.5-.7s0-1.11,0-1.32V63a2.77,2.77,0,0,1,.16-1.32c.27-.56,2.11-3.68,2.54-4.21a2.26,2.26,0,0,1,.65-.66,1.29,1.29,0,0,1,.61-.17.16.16,0,0,0,.16-.14s-.07-.08-.16-.08l-1.28,0"/></clipPath><clipPath id="clip-path-19"><path class="cls-1" d="M106.21,56.44c-.08,0-.89,0-1.48,0-.15,0-.21,0-.21.11a.13.13,0,0,0,.1.11l.45,0c.43.06.51.28.53.73s0,.79,0,2.85v2.34a28.06,28.06,0,0,1-.07,2.86c-.06.4-.09.64-.34.7a1.78,1.78,0,0,1-.4.06.1.1,0,0,0-.1.11c0,.08.08.11.21.11l.76,0,.54,0,1.42,0c.61,0,1.33,0,2.27,0,.7,0,.74,0,.83-.35a8.6,8.6,0,0,0,.19-1.33c0-.14,0-.2-.09-.2s-.12.08-.13.17a1.65,1.65,0,0,1-.32.74c-.31.39-.89.41-1.57.41-1,0-1.53-.09-1.73-.31s-.27-1-.27-3V60.24c0-2.06,0-2.43,0-2.85s.1-.67.49-.75l.42,0s.11,0,.11-.09-.08-.11-.21-.11l-1.44,0"/></clipPath><clipPath id="clip-path-20"><path class="cls-1" d="M91.75,56.44,88,64.66,84,56.43a.29.29,0,0,0-.27-.2c-.07,0-.14.09-.15.23l-.95,8.65c-.07.5-.08,1-.51,1.06a2.59,2.59,0,0,1-.39,0c-.08,0-.14.05-.14.09s.09.13.22.13c.36,0,1,0,1.1,0s.73,0,1.22,0c.15,0,.24,0,.24-.13a.11.11,0,0,0-.1-.09,2,2,0,0,1-.5-.08.36.36,0,0,1-.32-.37c0-.22,0-.47,0-.67l.51-6h.06c.22.55,1.27,2.78,1.66,3.62s1.19,2.42,1.53,3.07c.25.48.33.61.45.61s.2-.13.46-.71l3.15-6.77h0l.63,6.7c0,.25,0,.45-.06.48a.11.11,0,0,0-.09.1c0,.06.06.11.37.14.48.05,1.93.08,2.23.08.14,0,.27,0,.27-.13a.1.1,0,0,0-.1-.09,2.66,2.66,0,0,1-.85-.12c-.54-.19-.62-.9-.67-1.37l-.89-8.14c0-.25-.1-.35-.19-.35s-.15.09-.21.21"/></clipPath><clipPath id="clip-path-21"><path class="cls-1" d="M51.22,62.1l1.21-3.64c.08-.2.15-.2.22,0l1.29,3.64c0,.05,0,.09,0,.09H51.27s-.06,0,0-.09m1.23-5.43L49.38,65c-.25.67-.5,1.14-1.1,1.21l-.39,0a.12.12,0,0,0-.12.11c0,.08.09.11.26.11.54,0,1.19,0,1.32,0s.86,0,1.17,0c.12,0,.19,0,.19-.11s0-.11-.13-.11h-.12c-.22,0-.44-.09-.44-.36a2.83,2.83,0,0,1,.19-.88l.74-2.12c0-.08.08-.11.14-.11h3c.08,0,.09,0,.12.08l1.17,3a.26.26,0,0,1-.12.36c-.06,0-.09,0-.09.09s.21.08.46.1c.91,0,1.87,0,2.06,0s.3,0,.3-.11-.09-.11-.17-.11a1.83,1.83,0,0,1-.52-.08c-.28-.09-.64-.27-1.11-1.45-.8-2-2.9-7.48-3.13-8-.14-.29-.18-.48-.31-.48s-.15.08-.31.51"/></clipPath></defs><title>Asset 17logo</title><g id="Layer_2" data-name="Layer 2"><g id="Layer_1-2" data-name="Layer 1"><g class="cls-2"><rect class="cls-3" x="63.05" y="0.23" width="18.96" height="19.09"/></g><g class="cls-4"><rect class="cls-3" x="106.04" y="0.06" width="19.52" height="19.34"/></g><g class="cls-5"><rect class="cls-3" x="51.94" y="0.23" width="19.36" height="19.09"/></g><g class="cls-6"><rect class="cls-3" x="42.08" y="0.06" width="18.05" height="19.42"/></g><g class="cls-7"><rect class="cls-3" x="96.37" width="19.27" height="19.32"/></g><g class="cls-8"><rect class="cls-3" x="72.24" y="0.23" width="13.05" height="19.09"/></g><g class="cls-9"><rect class="cls-3" x="92.71" y="0.23" width="13.06" height="19.09"/></g><g class="cls-10"><rect class="cls-3" x="83.59" y="0.06" width="17.53" height="19.26"/></g><g class="cls-11"><rect class="cls-3" x="77.17" y="0.04" width="14.88" height="19.43"/></g><g class="cls-12"><rect class="cls-3" x="78.16" y="17.17" width="25.55" height="36.56"/></g><g class="cls-13"><rect class="cls-3" x="98.95" y="17.17" width="25.66" height="36.64"/></g><g class="cls-14"><rect class="cls-3" x="64.25" y="17.45" width="18.82" height="36.28"/></g><g class="cls-15"><rect class="cls-3" x="43.02" y="17.45" width="26.79" height="36.36"/></g><g class="cls-16"><rect class="cls-3" x="68.98" y="51.3" width="15.98" height="20.17"/></g><g class="cls-17"><rect class="cls-3" x="61.33" y="51.2" width="15.38" height="20.4"/></g><g class="cls-18"><rect class="cls-3" x="53.56" y="51.2" width="15.38" height="20.4"/></g><g class="cls-19"><rect class="cls-3" x="90.86" y="51.41" width="16.97" height="20.06"/></g><g class="cls-20"><rect class="cls-3" x="105.42" y="51.41" width="19.45" height="20.03"/></g><g class="cls-21"><rect class="cls-3" x="99.52" y="51.41" width="16.4" height="20.06"/></g><g class="cls-22"><rect class="cls-3" x="76.62" y="51.22" width="23.04" height="20.21"/></g><g class="cls-23"><rect class="cls-3" x="42.77" y="51.16" width="20.23" height="20.27"/></g><rect class="cls-3" x="46.08" y="17.37" width="75.49" height="0.08"/><rect class="cls-3" x="46.02" y="52.36" width="75.61" height="0.08"/><polygon class="cls-3" points="10.64 3.2 10.08 3.2 9.5 3.22 8.92 3.24 8.33 3.27 7.74 3.31 7.15 3.35 6.55 3.4 5.96 3.46 5.36 3.53 4.75 3.61 4.15 3.69 3.54 3.79 2.93 3.89 2.31 4 1.71 4.12 1.09 4.25 0.87 4.3 0.82 4.53 0.74 4.94 0.66 5.36 0.58 5.78 0.51 6.22 0.44 6.66 0.37 7.11 0.32 7.57 0.26 8.03 0.21 8.5 0.17 8.99 0.12 9.47 0.09 9.96 0.06 10.46 0.04 10.96 0.02 11.47 0.01 11.98 0 12.5 0 13.03 0.01 13.55 0.03 14.09 0.04 14.62 0.07 15.16 0.11 15.7 0.15 16.25 0.21 16.8 0.26 17.35 0.33 17.91 0.41 18.46 0.49 19.02 0.58 19.58 0.68 20.15 0.79 20.71 0.83 20.9 1 20.97 1.4 21.14 1.82 21.31 2.24 21.48 2.67 21.64 3.1 21.8 3.54 21.95 3.99 22.1 4.45 22.24 4.91 22.39 5.38 22.52 5.86 22.65 6.34 22.77 6.83 22.89 7.32 23 7.82 23.11 8.32 23.2 8.83 23.29 9.34 23.38 9.86 23.46 10.38 23.53 10.91 23.59 11.44 23.65 11.97 23.7 12.51 23.74 13.04 23.77 13.58 23.79 14.12 23.81 14.67 23.82 15.21 23.82 15.76 23.8 16.31 23.78 16.86 23.75 17.1 23.74 17.17 23.5 17.32 22.99 17.47 22.47 17.61 21.94 17.74 21.41 17.88 20.87 18.01 20.32 18.14 19.76 18.25 19.2 18.37 18.63 18.48 18.05 18.58 17.47 18.68 16.88 18.78 16.28 18.87 15.68 18.95 15.07 19.03 14.46 19.1 13.84 19.16 13.22 19.22 12.59 19.27 11.96 19.32 11.33 19.35 10.69 19.38 10.05 19.4 9.4 19.42 8.75 19.42 8.1 19.42 7.45 19.41 6.79 19.39 6.14 19.36 5.48 19.33 4.82 19.28 4.15 19.26 3.86 18.99 3.82 18.52 3.75 18.05 3.68 17.56 3.61 17.07 3.55 16.57 3.49 16.06 3.44 15.55 3.39 15.03 3.35 14.5 3.31 13.97 3.28 13.43 3.25 12.88 3.23 12.33 3.21 11.77 3.2 11.21 3.2 10.64 3.2"/><polygon class="cls-3" points="34.96 26.41 34.41 26.44 33.88 26.5 33.33 26.57 32.8 26.65 32.27 26.75 31.74 26.87 31.22 27 30.7 27.15 30.18 27.32 29.67 27.5 29.16 27.69 28.66 27.9 28.16 28.12 27.66 28.36 27.18 28.61 26.69 28.87 26.22 29.14 25.75 29.42 25.29 29.72 24.83 30.02 24.38 30.34 23.93 30.66 23.5 30.99 23.07 31.34 22.65 31.69 22.24 32.05 21.84 32.42 21.67 32.58 21.62 32.97 21.52 34.16 21.41 35.35 21.32 36.54 21.24 37.72 21.16 38.89 21.1 40.06 21.04 41.24 20.98 42.4 20.94 43.56 20.91 44.7 20.88 45.85 20.86 46.98 20.84 48.11 20.83 49.23 20.83 50.33 20.84 51.43 20.85 52.51 20.87 53.59 20.89 54.66 20.92 55.71 20.96 56.75 21 57.77 21.04 58.78 21.1 59.78 21.15 60.77 21.21 61.74 21.28 62.69 21.34 63.63 21.41 64.55 21.49 65.45 21.57 66.33 21.66 67.2 21.7 67.69 21.93 67.8 22.54 68.07 23.15 68.32 23.77 68.56 24.37 68.77 24.98 68.97 25.59 69.15 26.19 69.31 26.79 69.46 27.39 69.58 27.99 69.69 28.58 69.78 29.16 69.86 29.75 69.92 30.34 69.97 30.91 70 31.48 70.02 32.05 70.03 32.61 70.02 33.17 69.99 33.72 69.96 34.26 69.91 34.8 69.85 35.34 69.78 35.86 69.7 36.39 69.61 36.9 69.5 37.41 69.39 37.9 69.27 38.4 69.14 38.88 69 39.36 68.85 39.82 68.7 40.09 68.61 40.11 68 40.16 66.6 40.2 65.2 40.23 63.8 40.24 62.41 40.25 61.02 40.25 59.64 40.25 58.27 40.23 56.89 40.21 55.53 40.19 54.17 40.15 52.82 40.1 51.48 40.05 50.14 39.99 48.81 39.94 47.49 39.86 46.19 39.78 44.9 39.7 43.61 39.61 42.34 39.52 41.07 39.42 39.82 39.31 38.59 39.2 37.37 39.09 36.16 38.97 34.97 38.84 33.79 38.71 32.63 38.58 31.48 38.44 30.35 38.3 29.24 38.16 28.15 38.01 27.07 37.94 26.56 37.7 26.53 37.14 26.47 36.6 26.42 36.05 26.4 35.5 26.4 34.96 26.41"/><polygon class="cls-3" points="10.64 26.4 10.08 26.42 9.5 26.45 8.92 26.5 8.33 26.56 7.74 26.64 7.15 26.73 6.55 26.84 5.96 26.96 5.36 27.11 4.75 27.27 4.15 27.45 3.54 27.65 2.93 27.86 2.31 28.1 1.71 28.35 1.09 28.63 0.87 28.73 0.82 29.21 0.74 30.09 0.66 30.97 0.58 31.87 0.51 32.79 0.44 33.73 0.37 34.68 0.32 35.65 0.26 36.63 0.21 37.63 0.17 38.64 0.12 39.67 0.09 40.71 0.06 41.77 0.04 42.82 0.02 43.9 0.01 44.99 0 46.09 0 47.19 0.01 48.31 0.03 49.44 0.04 50.57 0.07 51.71 0.11 52.87 0.15 54.02 0.21 55.18 0.26 56.35 0.33 57.53 0.41 58.7 0.49 59.88 0.58 61.07 0.68 62.26 0.79 63.45 0.83 63.85 1 64 1.4 64.37 1.82 64.73 2.24 65.08 2.67 65.43 3.1 65.76 3.54 66.09 3.99 66.4 4.45 66.71 4.91 67 5.38 67.28 5.86 67.55 6.34 67.81 6.83 68.06 7.32 68.3 7.82 68.52 8.32 68.73 8.83 68.92 9.34 69.1 9.86 69.27 10.38 69.42 10.91 69.55 11.44 69.67 11.97 69.77 12.51 69.85 13.04 69.93 13.58 69.98 14.12 70.01 14.67 70.02 15.21 70.02 15.76 69.99 16.31 69.95 16.86 69.89 17.1 69.86 17.17 69.35 17.32 68.27 17.47 67.18 17.61 66.07 17.74 64.93 17.88 63.79 18.01 62.63 18.14 61.45 18.25 60.26 18.37 59.05 18.48 57.83 18.58 56.6 18.68 55.35 18.78 54.08 18.87 52.81 18.95 51.53 19.03 50.23 19.1 48.92 19.16 47.6 19.22 46.28 19.27 44.94 19.32 43.6 19.35 42.25 19.38 40.89 19.4 39.53 19.42 38.16 19.42 36.78 19.42 35.4 19.41 34.01 19.39 32.61 19.36 31.22 19.33 29.82 19.28 28.42 19.26 27.82 18.99 27.72 18.52 27.57 18.05 27.42 17.56 27.28 17.07 27.15 16.57 27.03 16.06 26.91 15.55 26.81 15.03 26.72 14.5 26.64 13.97 26.57 13.43 26.51 12.88 26.46 12.33 26.43 11.77 26.4 11.21 26.4 10.64 26.4"/><polygon class="cls-3" points="28.9 3.2 28.48 3.2 27.93 3.21 27.38 3.23 26.82 3.25 26.29 3.28 25.75 3.31 25.23 3.35 24.71 3.39 24.19 3.44 23.69 3.49 23.18 3.55 22.69 3.61 22.21 3.68 21.73 3.75 21.27 3.82 20.99 3.87 20.97 4.15 20.93 4.81 20.89 5.48 20.87 6.13 20.84 6.79 20.83 7.45 20.83 8.1 20.84 8.75 20.86 9.4 20.88 10.05 20.91 10.69 20.94 11.33 20.98 11.96 21.04 12.59 21.1 13.22 21.16 13.84 21.23 14.46 21.3 15.07 21.39 15.68 21.48 16.28 21.57 16.88 21.67 17.47 21.78 18.05 21.89 18.63 22.01 19.2 22.12 19.76 22.25 20.32 22.38 20.87 22.51 21.41 22.65 21.94 22.79 22.47 22.93 22.98 23.08 23.5 23.15 23.74 23.39 23.75 23.95 23.78 24.49 23.8 25.04 23.81 25.59 23.82 26.13 23.81 26.67 23.79 27.21 23.77 27.75 23.74 28.28 23.7 28.82 23.65 29.34 23.59 29.87 23.53 30.39 23.46 30.91 23.38 31.42 23.29 31.93 23.2 32.44 23.11 32.93 23 33.42 22.89 33.91 22.77 34.4 22.65 34.87 22.52 35.34 22.39 35.81 22.25 36.26 22.1 36.71 21.95 37.16 21.8 37.59 21.64 38.02 21.48 38.44 21.31 38.85 21.15 39.26 20.97 39.43 20.9 39.46 20.73 39.46 20.71 39.58 20.15 39.67 19.58 39.77 19.02 39.85 18.46 39.93 17.91 39.99 17.35 40.05 16.8 40.1 16.25 40.14 15.7 40.19 15.16 40.21 14.62 40.23 14.09 40.24 13.55 40.25 13.03 40.26 12.5 40.25 11.98 40.24 11.47 40.22 10.96 40.2 10.46 40.16 9.96 40.13 9.47 40.09 8.99 40.05 8.5 39.99 8.03 39.94 7.57 39.88 7.11 39.81 6.66 39.74 6.22 39.67 5.78 39.6 5.35 39.52 4.94 39.43 4.53 39.38 4.3 39.16 4.25 38.55 4.12 37.94 4 37.32 3.89 36.71 3.78 36.11 3.69 35.5 3.61 34.9 3.53 34.3 3.46 33.7 3.4 33.11 3.35 32.51 3.31 31.92 3.27 31.34 3.24 30.76 3.22 30.19 3.21 29.66 3.2 28.9 3.2"/></g></g></svg>