<svg xmlns="http://www.w3.org/2000/svg" xmlns:xlink="http://www.w3.org/1999/xlink" viewBox="0 0 233.32 106.61"><defs><style>.cls-1{fill:none;}.cls-2{clip-path:url(#clip-path);}.cls-3{fill:#fefefe;}.cls-4{clip-path:url(#clip-path-2);}.cls-5{fill:#b3b5b7;}.cls-6{fill:#231f20;}.cls-7{clip-path:url(#clip-path-3);}.cls-8{clip-path:url(#clip-path-4);}.cls-9{clip-path:url(#clip-path-5);}.cls-10{clip-path:url(#clip-path-6);}.cls-11{clip-path:url(#clip-path-7);}.cls-12{clip-path:url(#clip-path-8);}.cls-13{clip-path:url(#clip-path-9);}.cls-14{clip-path:url(#clip-path-10);}.cls-15{clip-path:url(#clip-path-11);}.cls-16{clip-path:url(#clip-path-12);}.cls-17{clip-path:url(#clip-path-13);}.cls-18{clip-path:url(#clip-path-14);}.cls-19{clip-path:url(#clip-path-15);}.cls-20{clip-path:url(#clip-path-16);}.cls-21{clip-path:url(#clip-path-17);}.cls-22{clip-path:url(#clip-path-18);}.cls-23{clip-path:url(#clip-path-19);}.cls-24{clip-path:url(#clip-path-20);}.cls-25{clip-path:url(#clip-path-21);}.cls-26{clip-path:url(#clip-path-22);}.cls-27{clip-path:url(#clip-path-23);}.cls-28{clip-path:url(#clip-path-24);}.cls-29{clip-path:url(#clip-path-25);}.cls-30{clip-path:url(#clip-path-26);}.cls-31{clip-path:url(#clip-path-27);}.cls-32{clip-path:url(#clip-path-28);}.cls-33{clip-path:url(#clip-path-29);}.cls-34{clip-path:url(#clip-path-30);}.cls-35{clip-path:url(#clip-path-31);}.cls-36{clip-path:url(#clip-path-32);}.cls-37{clip-path:url(#clip-path-33);}.cls-38{clip-path:url(#clip-path-34);}.cls-39{clip-path:url(#clip-path-35);}.cls-40{clip-path:url(#clip-path-36);}.cls-41{clip-path:url(#clip-path-37);}.cls-42{clip-path:url(#clip-path-38);}.cls-43{clip-path:url(#clip-path-39);}.cls-44{clip-path:url(#clip-path-40);}.cls-45{clip-path:url(#clip-path-41);}.cls-46{clip-path:url(#clip-path-42);}.cls-47{clip-path:url(#clip-path-43);}.cls-48{clip-path:url(#clip-path-44);}.cls-49{clip-path:url(#clip-path-45);}.cls-50{clip-path:url(#clip-path-46);}.cls-51{clip-path:url(#clip-path-47);}.cls-52{clip-path:url(#clip-path-48);}.cls-53{clip-path:url(#clip-path-49);}.cls-54{clip-path:url(#clip-path-50);}.cls-55{clip-path:url(#clip-path-51);}.cls-56{clip-path:url(#clip-path-52);}.cls-57{clip-path:url(#clip-path-53);}.cls-58{clip-path:url(#clip-path-54);}.cls-59{clip-path:url(#clip-path-55);}.cls-60{clip-path:url(#clip-path-56);}.cls-61{clip-path:url(#clip-path-57);}.cls-62{clip-path:url(#clip-path-58);}.cls-63{clip-path:url(#clip-path-59);}.cls-64{clip-path:url(#clip-path-60);}.cls-65{clip-path:url(#clip-path-61);}.cls-66{clip-path:url(#clip-path-62);}.cls-67{clip-path:url(#clip-path-63);}.cls-68{clip-path:url(#clip-path-64);}.cls-69{clip-path:url(#clip-path-65);}.cls-70{clip-path:url(#clip-path-66);}.cls-71{clip-path:url(#clip-path-67);}.cls-72{clip-path:url(#clip-path-68);}.cls-73{clip-path:url(#clip-path-69);}.cls-74{clip-path:url(#clip-path-70);}.cls-75{clip-path:url(#clip-path-71);}.cls-76{clip-path:url(#clip-path-72);}.cls-77{clip-path:url(#clip-path-73);}.cls-78{clip-path:url(#clip-path-74);}.cls-79{clip-path:url(#clip-path-75);}.cls-80{clip-path:url(#clip-path-76);}.cls-81{clip-path:url(#clip-path-77);}.cls-82{clip-path:url(#clip-path-78);}.cls-83{clip-path:url(#clip-path-79);}.cls-84{clip-path:url(#clip-path-80);}.cls-85{clip-path:url(#clip-path-81);}.cls-86{clip-path:url(#clip-path-82);}.cls-87{clip-path:url(#clip-path-83);}.cls-88{clip-path:url(#clip-path-84);}.cls-89{clip-path:url(#clip-path-85);}.cls-90{clip-path:url(#clip-path-86);}.cls-91{clip-path:url(#clip-path-87);}.cls-92{clip-path:url(#clip-path-88);}.cls-93{fill:#eeeeef;}.cls-94{clip-path:url(#clip-path-89);}.cls-95{fill:#a8aaad;}.cls-96{clip-path:url(#clip-path-90);}.cls-97{fill:#d0d2d3;}.cls-98{clip-path:url(#clip-path-91);}.cls-99{clip-path:url(#clip-path-92);}.cls-100{clip-path:url(#clip-path-93);}.cls-101{clip-path:url(#clip-path-94);}</style><clipPath id="clip-path"><path class="cls-1" d="M141,36.86A31.8,31.8,0,1,0,172.78,5,31.83,31.83,0,0,0,141,36.86"/></clipPath><clipPath id="clip-path-2"><path class="cls-1" d="M160.64,22.54a23.6,23.6,0,0,0-5.2,4.45,25.74,25.74,0,0,1-5,4.52c-2.69,1.61-5,1.24-6.94-1.19q-.29-.36-.57-.73a31.19,31.19,0,0,0,.64,16.8l2.26.39c2.15-1.14,4.22-2.4,6.43-3.44a47.89,47.89,0,0,1,17.62-4.44c2.64-2.49,5.12-5.16,7.87-7.55h0c-.32-.31-.64-.62-.95-.94-2.09-2.16-3.8-4.65-6-6.76a7.15,7.15,0,0,0-5.48-2.47,9.56,9.56,0,0,0-4.69,1.36"/></clipPath><clipPath id="clip-path-3"><path class="cls-1" d="M188.41,26.23l-.83-3.13-.28,0,0,3.24-1.21-3-.28.07.38,3.21-1.57-2.81-.26.11.77,3.13-1.89-2.58-.25.15,1.15,3-2.17-2.29-.24.19,1.49,2.78-2.41-2-.22.22,1.79,2.52-2.58-1.61-.2.27L181.62,30l-2.7-1.25-.17.31L181,30.94l-2.76-.88-.14.35L180.52,32l-2.76-.51-.1.39,2.51,1.22-2.71-.15c0,.14,0,.28-.05.42l2.55.86-2.61.19c0,.06,0,.12,0,.19s0,.18,0,.26l2.54.51-2.48.5c0,.16,0,.32.06.47l2.49.18-2.3.78q.06.24.13.49l2.39-.13-2.1,1c.06.17.13.33.2.49l2.25-.41-1.87,1.22q.13.25.27.49l2.09-.66-1.63,1.38.34.47,1.91-.89-1.39,1.51.41.44,1.71-1.07-1.14,1.61.48.4,1.5-1.23-.9,1.67.54.35,1.28-1.35-.66,1.71.59.29,1.07-1.45-.43,1.73.63.22.85-1.53-.2,1.72.67.15.64-1.58V46l.69.07.43-1.62.22,1.65h.7l.22-1.64L190,46l.7-.09V44.31l.61,1.52.68-.17L191.79,44l.8,1.44.65-.25-.4-1.61,1,1.34.62-.32-.61-1.57L195,44.28l.57-.39-.82-1.52,1.35,1.1.51-.45-1-1.44,1.52,1c.15-.16.3-.32.44-.49l-1.23-1.34,1.68.78c.13-.17.25-.35.37-.53l-1.44-1.22,1.83.58q.16-.27.3-.55l-1.65-1.07,2,.36q.12-.28.22-.56l-1.84-.89,2.09.12c.05-.19.1-.37.15-.56l-2-.68,2.18-.15q0-.28.07-.56l-2.18-.44,2.24-.45c0-.11,0-.22,0-.32s0-.14,0-.21L198,34.2l2.26-.76c0-.17,0-.33-.06-.5l-2.41.14L200,32c0-.16-.08-.31-.12-.47l-2.48.46,2.17-1.41-.16-.42-2.49.79,2-1.73-.2-.38L196.33,30l1.88-2L198,27.6l-2.37,1.49,1.66-2.34-.26-.27-2.24,1.83,1.4-2.6-.28-.22-2,2.15,1.09-2.83-.29-.18-1.8,2.45.74-3-.29-.13-1.51,2.71.37-3.13-.29-.08-1.18,2.93,0-3.19-.29,0-.82,3.09L189.12,23h-.29Z"/></clipPath><clipPath id="clip-path-4"><path class="cls-1" d="M188.82,23.17l-.41,3.06-.79-3-.32,0,0,3.1-1.16-2.88-.31.08.36,3.08L184.67,24l-.3.12.74,3-1.82-2.47-.28.17,1.1,2.86L182,25.44l-.27.21,1.43,2.66-2.3-1.88-.25.25,1.72,2.42-2.47-1.55-.22.3,2,2.13L179,28.78l-.19.34L181,30.94l-2.64-.84-.15.38,2.3,1.49-2.63-.48c0,.14-.08.28-.11.42l2.39,1.16-2.58-.15c0,.15,0,.3-.06.45l2.43.82-2.49.18c0,.07,0,.13,0,.2s0,.19,0,.29l2.41.48-2.35.47c0,.17,0,.34.07.51l2.35.17-2.18.73c0,.18.09.35.14.52l2.26-.12-2,1c.07.18.14.35.21.52l2.12-.39-1.76,1.14c.09.18.19.35.29.52l2-.62L179.48,41c.11.17.24.33.36.5l1.78-.83-1.3,1.42.44.47,1.59-1-1.07,1.5.5.43,1.4-1.14-.84,1.56.57.37,1.19-1.25-.61,1.59.62.31,1-1.34-.39,1.6.67.24.79-1.41L186,45.61l.71.16.59-1.46v1.56l.73.07.39-1.49.2,1.51h.74l.2-1.5.39,1.46.73-.09V44.31l.57,1.4.72-.18L191.79,44l.74,1.33.69-.26-.37-1.48.91,1.24.65-.34-.56-1.45,1.08,1.14.6-.41-.75-1.4,1.24,1,.54-.47-.95-1.33,1.4.88c.16-.17.32-.34.47-.52l-1.15-1.25,1.56.72c.14-.18.27-.37.39-.56l-1.34-1.13,1.71.54c.11-.19.22-.39.32-.58l-1.54-1,1.84.34q.13-.29.23-.6l-1.72-.83,2,.11c.06-.2.11-.4.15-.6L198,36.48l2-.15c0-.19.06-.39.08-.59l-2-.41,2.1-.42c0-.12,0-.23,0-.35s0-.14,0-.22L198,34.2l2.13-.72q0-.27-.06-.54l-2.28.13,2.12-1q-.06-.25-.12-.5l-2.35.43,2.06-1.33-.18-.45-2.37.75,1.95-1.65-.22-.41L196.33,30,198.12,28l-.26-.35-2.26,1.42,1.58-2.23-.28-.3-2.14,1.75,1.34-2.49-.3-.25-2,2.06,1-2.7-.32-.19-1.73,2.35.71-2.88-.32-.14-1.45,2.6.35-3-.33-.09-1.13,2.81,0-3.06-.33,0-.78,3-.41-3.06h-.32"/></clipPath><clipPath id="clip-path-5"><path class="cls-1" d="M188.8,23.29l-.39,2.94-.76-2.87-.35,0,0,3-1.11-2.76-.34.09.35,3-1.44-2.59-.33.14.71,2.88-1.74-2.37-.31.18,1.05,2.74-2-2.1-.29.23,1.37,2.55L181,26.5l-.27.28,1.64,2.31L180,27.61l-.24.32,1.88,2-2.46-1.14-.21.37L181,30.94l-2.51-.8-.17.41L180.52,32,178,31.52c0,.15-.08.3-.12.45l2.27,1.1-2.46-.14c0,.16,0,.32-.06.49l2.3.77-2.36.17c0,.07,0,.14,0,.2s0,.21,0,.31l2.28.45-2.22.45q0,.27.07.54l2.23.16-2.06.69c0,.19.09.37.15.55l2.13-.12-1.87.9c.07.19.15.37.22.56l2-.37-1.66,1.08c.1.18.2.37.3.55l1.84-.58L179.57,41c.12.18.25.35.38.52l1.67-.77L180.41,42l.46.49,1.48-.93-1,1.4c.17.16.35.3.53.45l1.29-1.06-.78,1.44.6.39,1.1-1.16-.56,1.47.65.32.91-1.24-.36,1.47.7.25.72-1.3L186,45.48l.74.17.54-1.34v1.43l.76.08.36-1.36.18,1.38h.77l.18-1.37.35,1.33q.39,0,.77-.1V44.31l.52,1.28.75-.19L191.79,44l.68,1.21.72-.28-.34-1.36.83,1.13.68-.36-.51-1.33,1,1q.32-.2.62-.43l-.69-1.29,1.14.93q.29-.24.56-.49l-.87-1.23,1.29.81q.25-.26.49-.55l-1.06-1.15,1.44.67c.14-.19.28-.39.41-.58l-1.24-1.05,1.58.5c.12-.2.23-.41.33-.61l-1.43-.93,1.71.31c.09-.21.17-.42.25-.63l-1.6-.77,1.82.1c.06-.21.12-.42.16-.63l-1.77-.6,1.91-.14q0-.31.08-.62l-1.92-.39,2-.39c0-.13,0-.25,0-.38s0-.15,0-.23l-2-.15,2-.68c0-.19,0-.38-.07-.57l-2.15.12,2-1q-.06-.27-.13-.53l-2.22.41,1.95-1.26-.19-.49-2.24.71,1.85-1.56-.24-.44-2.22,1,1.7-1.85-.28-.38-2.15,1.35L197.12,27l-.31-.32-2,1.66L196,25.94l-.33-.27-1.87,2,1-2.58-.35-.21-1.65,2.24.68-2.75-.36-.16-1.38,2.48.34-2.87-.36-.1-1.08,2.69,0-2.93-.36-.05-.75,2.84-.39-2.93h-.36"/></clipPath><clipPath id="clip-path-6"><path class="cls-1" d="M188.78,23.42l-.37,2.81-.73-2.75-.38,0,0,2.84-1.07-2.64-.37.1.33,2.82-1.38-2.47-.36.15.68,2.75-1.66-2.26-.34.2,1,2.61-1.9-2-.32.25,1.3,2.43-2.1-1.72-.29.3,1.57,2.2-2.25-1.41-.26.35L181.62,30l-2.34-1.08-.23.4,2,1.66-2.39-.76c-.06.15-.12.3-.18.45L180.52,32l-2.38-.44c0,.16-.09.33-.13.49l2.15,1-2.32-.13c0,.17,0,.35-.06.52l2.17.73-2.23.16c0,.07,0,.14,0,.21s0,.23,0,.34l2.15.43-2.09.42c0,.19,0,.39.08.58l2.09.15-1.93.65c0,.2.1.4.16.59l2-.11-1.75.84c.07.2.15.4.24.59l1.86-.34-1.54,1q.15.29.32.58l1.71-.54-1.34,1.13q.19.28.4.55l1.54-.72-1.12,1.22c.16.18.32.35.48.52l1.37-.86-.92,1.29c.18.16.37.32.56.47l1.19-1-.71,1.33q.3.21.63.41l1-1.06-.52,1.35q.34.18.69.34l.83-1.13-.33,1.34q.36.14.73.26l.66-1.18L186,45.35c.25.07.51.12.77.17l.49-1.21v1.3l.79.08.33-1.23.17,1.25h.81l.17-1.24.32,1.21c.27,0,.54-.06.8-.1V44.31l.47,1.16c.27-.06.53-.12.79-.2L191.79,44l.61,1.1.75-.29-.3-1.23.75,1q.36-.17.71-.37l-.46-1.21.9.95q.33-.21.65-.45l-.63-1.17,1,.85c.2-.17.4-.34.59-.52l-.79-1.12,1.18.74c.18-.18.35-.37.51-.57l-1-1.05,1.32.61c.15-.2.3-.4.43-.61l-1.14-1,1.45.46c.12-.21.24-.42.35-.64l-1.32-.86L199,39c.09-.22.18-.44.26-.66l-1.49-.72,1.69.09c.06-.22.12-.44.17-.67L198,36.48l1.78-.13q.05-.33.09-.66l-1.8-.36,1.84-.37c0-.13,0-.27,0-.4s0-.16,0-.24L198,34.2l1.88-.63c0-.2,0-.41-.07-.61l-2,.11,1.88-.91c0-.19-.09-.38-.14-.57l-2.09.38,1.84-1.19c-.06-.17-.13-.35-.2-.52l-2.12.67,1.75-1.48-.26-.47-2.11,1,1.61-1.75-.3-.41-2,1.28,1.43-2-.33-.35-1.93,1.58L196,26.05l-.36-.29-1.78,1.87.95-2.46-.37-.23-1.57,2.14.65-2.62-.39-.17-1.32,2.37.32-2.74-.39-.11-1,2.57,0-2.8-.39-.06-.72,2.71-.37-2.8h-.39"/></clipPath><clipPath id="clip-path-7"><path class="cls-1" d="M188.76,23.55l-.36,2.67-.69-2.62-.42,0,0,2.71-1-2.52-.41.11.32,2.69-1.31-2.36-.39.16.65,2.62-1.58-2.16-.37.22,1,2.49-1.81-1.91-.35.27,1.24,2.31-2-1.64-.32.33,1.49,2.09-2.14-1.34-.29.38,1.7,1.84-2.22-1-.24.43L181,30.94l-2.27-.72-.19.48,2,1.28-2.25-.41c0,.17-.09.35-.13.52l2,1-2.2-.12c0,.19,0,.37-.07.56l2,.69-2.1.15c0,.07,0,.15,0,.22s0,.24,0,.37l2,.4-2,.39q0,.31.08.61l2,.14-1.81.61q.07.31.17.62l1.86-.1-1.63.79q.12.31.25.62l1.73-.32-1.44.93c.11.21.22.41.34.61l1.59-.5-1.24,1c.14.2.28.39.42.58l1.42-.66-1,1.13c.16.19.33.37.51.54l1.26-.79-.84,1.18c.19.17.39.33.59.49l1.09-.89-.65,1.21q.32.22.65.43l.92-1-.47,1.22c.23.13.47.25.72.35l.75-1-.3,1.22q.38.15.77.27l.6-1.07-.14,1.2c.26.07.53.13.81.18l.44-1.09v1.16c.27,0,.55.07.83.09l.29-1.1.15,1.12h.84l.15-1.11.29,1.08c.28,0,.56-.06.84-.11V44.31l.42,1q.42-.09.82-.21L191.79,44l.55,1c.27-.09.53-.19.78-.3l-.27-1.1.68.92q.38-.18.74-.39l-.42-1.08.8.85c.23-.15.46-.3.68-.47l-.57-1.05.94.77c.21-.17.42-.35.62-.54l-.72-1,1.07.67q.28-.29.54-.6l-.88-1,1.2.56c.16-.21.31-.42.45-.64l-1-.88,1.33.42c.13-.22.25-.45.37-.68l-1.21-.78,1.45.27c.1-.23.19-.46.27-.69l-1.37-.66,1.56.09q.1-.35.18-.7L198,36.48l1.65-.12c0-.23.07-.46.09-.69l-1.67-.33,1.71-.34c0-.14,0-.29,0-.43s0-.16,0-.24L198,34.2l1.75-.59c0-.22,0-.43-.07-.64l-1.89.11,1.76-.85c0-.2-.09-.4-.15-.6l-2,.36,1.72-1.12q-.1-.28-.21-.55l-2,.63,1.64-1.39q-.13-.25-.27-.5l-2,.92,1.52-1.66-.32-.44-1.93,1.21L197,27.18l-.36-.38-1.83,1.5,1.15-2.14-.38-.31-1.69,1.78.9-2.33-.4-.25-1.49,2,.62-2.5L193,24.4l-1.26,2.26.3-2.6-.43-.12-1,2.44,0-2.66-.43-.06-.68,2.58-.36-2.67h-.43"/></clipPath><clipPath id="clip-path-8"><path class="cls-1" d="M188.75,23.69l-.34,2.54-.66-2.49-.45.05,0,2.58-1-2.39-.44.11.3,2.56-1.25-2.24-.43.18.61,2.49L183.6,25l-.4.23.91,2.37-1.72-1.82-.38.29,1.18,2.2-1.9-1.55-.35.35,1.41,2-2-1.27-.31.41L181.62,30l-2.11-1-.26.46L181,30.94l-2.14-.68q-.11.25-.2.51L180.52,32l-2.12-.39c-.05.18-.1.37-.14.56l1.91.93L178.11,33q0,.3-.07.59l1.92.65-2,.14c0,.08,0,.15,0,.23s0,.26,0,.39l1.89.38-1.84.37q0,.33.09.65l1.83.13-1.69.57q.08.33.17.66l1.72-.09-1.51.73c.08.22.17.44.26.65l1.6-.29-1.33.86c.11.22.23.43.36.64l1.46-.46-1.14,1c.14.21.29.41.45.61l1.3-.6-.95,1q.26.29.53.57l1.14-.72-.77,1.08c.2.18.4.35.61.51l1-.8-.59,1.1c.22.16.45.3.68.44l.83-.87-.42,1.1q.37.2.75.37l.67-.92-.27,1.09q.39.16.8.28l.53-1L186,45.09c.28.07.56.14.84.19l.39-1v1c.28,0,.57.07.86.09l.26-1,.13,1h.29l.59,0,.13-1,.25,1c.29,0,.59-.06.87-.11v-1l.37.91q.43-.09.85-.21l-.11-1,.48.87c.28-.09.55-.2.82-.31l-.24-1,.6.81q.39-.19.77-.41l-.37-1,.71.75c.24-.15.48-.31.71-.49l-.5-.94.84.68q.33-.27.64-.56l-.64-.91,1,.6c.2-.2.38-.41.56-.62l-.79-.86,1.08.5q.25-.32.48-.67l-.94-.8,1.2.38c.14-.23.26-.47.38-.71l-1.1-.71,1.32.24c.1-.24.2-.48.29-.73l-1.25-.61,1.43.08q.11-.36.19-.74l-1.4-.47,1.52-.11c0-.24.07-.48.1-.73l-1.54-.31,1.59-.32c0-.15,0-.3,0-.45s0-.17,0-.25L198,34.2l1.63-.55c0-.23,0-.45-.08-.68l-1.76.1,1.64-.79q-.07-.32-.16-.64l-1.84.34,1.61-1q-.11-.3-.23-.58l-1.87.59,1.54-1.31c-.09-.18-.19-.36-.29-.53l-1.87.87,1.43-1.56-.34-.47-1.82,1.14,1.28-1.8-.38-.4-1.73,1.42,1.09-2-.41-.33-1.6,1.68.85-2.21-.43-.27-1.42,1.93.58-2.37-.45-.2-1.19,2.14.29-2.47-.46-.13-.94,2.32,0-2.53-.46-.07-.65,2.46-.34-2.54h-.46"/></clipPath><clipPath id="clip-path-9"><path class="cls-1" d="M188.73,23.81l-.32,2.42-.62-2.36-.49.06,0,2.45-.92-2.27-.48.12.29,2.43L185,24.53l-.46.19.58,2.36-1.43-1.95-.43.25.86,2.24-1.64-1.72-.4.32,1.12,2.08-1.8-1.47-.37.38,1.34,1.88-1.92-1.2-.33.44L181.62,30l-2-.92c-.1.16-.19.32-.28.49l1.65,1.4-2-.64c-.08.18-.15.36-.22.54L180.52,32l-2-.37c-.06.2-.11.39-.15.59l1.79.87L178.24,33q0,.31-.08.63l1.8.6-1.84.13c0,.08,0,.16,0,.24s0,.28,0,.42l1.76.35-1.71.34c0,.23.05.46.09.68l1.69.12L178.4,37c.05.23.11.46.18.69l1.59-.09-1.4.67c.09.23.18.46.28.69l1.47-.27-1.22.79c.12.23.24.45.37.67l1.33-.42-1,.88c.15.22.3.43.47.64l1.18-.55-.86.94c.18.21.37.4.56.59l1-.65-.69,1c.21.19.42.36.64.54l.88-.72-.53,1c.23.16.47.32.72.47l.73-.77-.38,1c.26.14.51.27.78.38l.6-.81-.24,1c.27.11.55.21.83.29l.47-.83-.11.94c.29.08.58.14.88.2l.34-.84v.9c.3,0,.6.07.9.09l.22-.85.11.86h.3l.61,0,.11-.85.22.82q.46,0,.91-.12v-.85l.32.79c.3-.06.6-.14.89-.22l-.1-.85.42.75q.43-.14.85-.32l-.21-.85.52.71q.41-.2.8-.42l-.32-.84.62.66c.25-.16.5-.33.74-.51l-.44-.82.73.6c.23-.19.46-.38.67-.58l-.57-.8.84.53c.2-.21.4-.42.59-.65l-.7-.77,1,.45c.17-.23.34-.46.5-.7l-.84-.71,1.07.34c.14-.24.28-.49.4-.74l-1-.64,1.19.22c.11-.25.21-.5.3-.76l-1.14-.55,1.29.07c.08-.25.14-.51.2-.77L198,36.48l1.38-.1c0-.25.08-.51.1-.76l-1.41-.28,1.45-.29c0-.16,0-.32,0-.48s0-.18,0-.26L198,34.2l1.5-.5q0-.36-.08-.71l-1.63.09,1.52-.73c0-.23-.1-.45-.16-.67l-1.71.31,1.5-1q-.11-.31-.24-.62l-1.75.55,1.44-1.22q-.14-.29-.3-.56l-1.75.81,1.34-1.46-.36-.49-1.71,1.07,1.2-1.69-.4-.43-1.63,1.34,1-1.9-.44-.36-1.51,1.59.8-2.09-.46-.29-1.34,1.82.55-2.24-.48-.21-1.13,2,.27-2.34-.49-.14-.89,2.2,0-2.4-.5-.07-.62,2.33-.32-2.41h-.49"/></clipPath><clipPath id="clip-path-10"><path class="cls-1" d="M188.71,23.95l-.3,2.28L187.82,24l-.52.06,0,2.32-.87-2.15-.51.13.27,2.3-1.12-2-.49.2.55,2.23-1.35-1.84-.46.27.81,2.12L182.56,26l-.43.34,1.05,2-1.7-1.39-.39.4,1.26,1.77L180.55,28l-.35.46L181.62,30l-1.87-.87c-.1.17-.2.35-.29.52L181,30.94l-1.89-.6q-.12.28-.23.58L180.52,32l-1.87-.34c-.06.21-.11.42-.16.63l1.67.81-1.81-.1c0,.22-.06.44-.08.66l1.67.56-1.71.12c0,.08,0,.17,0,.25s0,.3,0,.44l1.63.32-1.59.32q0,.36.1.72l1.56.11-1.44.49c.06.24.12.49.2.73l1.46-.08-1.28.62c.09.24.19.48.29.72l1.34-.25-1.11.72c.12.24.25.47.39.7l1.2-.38-.94.79c.15.23.32.45.49.66l1.06-.49-.77.84q.28.32.58.62l.92-.58-.61.86c.21.19.44.38.67.56l.78-.64-.47.87c.24.17.49.33.74.48l.64-.68-.33.86c.26.14.53.28.81.4l.52-.7-.21.83c.28.11.57.22.87.3l.4-.72-.09.81c.3.08.6.15.91.2l.29-.72v.77c.31,0,.62.08.93.1l.19-.72.1.73h.32l.63,0,.1-.72.18.7c.32,0,.63-.07.94-.12v-.72L191,45q.47-.1.92-.23l-.08-.72.35.64c.3-.1.59-.21.88-.34l-.18-.72.44.6q.43-.2.83-.44l-.27-.72.53.56q.4-.25.77-.53l-.38-.71.63.51q.36-.29.7-.61l-.49-.69.73.46q.32-.32.61-.67l-.62-.67.84.39q.27-.35.52-.73l-.74-.63.95.3c.15-.25.29-.5.42-.77l-.88-.57,1.06.19q.17-.39.32-.79l-1-.49,1.16.06q.12-.4.21-.8L198,36.48l1.25-.09q.07-.39.11-.8l-1.29-.26,1.32-.26c0-.17,0-.34,0-.51s0-.18,0-.27l-1.4-.1,1.37-.46c0-.25,0-.5-.08-.75l-1.5.08,1.4-.68c0-.24-.11-.48-.17-.71l-1.58.29,1.39-.9c-.08-.22-.16-.44-.25-.65l-1.62.52,1.34-1.13q-.15-.3-.32-.59l-1.63.76,1.25-1.36c-.12-.18-.25-.35-.38-.52l-1.6,1,1.12-1.58-.43-.46-1.53,1.25,1-1.79-.47-.38-1.42,1.49.76-2-.49-.3-1.26,1.72.52-2.11-.52-.23-1.07,1.91.26-2.21-.53-.15-.84,2.08,0-2.27-.53-.08-.58,2.2-.3-2.28h-.53"/></clipPath><clipPath id="clip-path-11"><path class="cls-1" d="M188.7,24.07l-.29,2.15-.56-2.11-.56.07,0,2.19-.82-2-.54.14.26,2.17-1.06-1.9-.52.22.52,2.11-1.27-1.73-.49.29.77,2-1.46-1.53-.46.36,1,1.85L181.59,27l-.42.43,1.18,1.66L180.65,28l-.37.49L181.62,30l-1.76-.81q-.16.27-.31.56L181,30.94l-1.77-.56q-.13.3-.24.61l1.53,1-1.74-.32c-.06.22-.12.44-.17.66l1.56.75L178.5,33c0,.23-.06.46-.08.7l1.55.52-1.58.11q0,.13,0,.26c0,.16,0,.31,0,.47l1.5.3-1.46.29q0,.38.1.75l1.43.1-1.32.44c.06.26.13.51.2.76l1.33-.07-1.16.56q.14.38.31.75l1.21-.22-1,.65c.13.25.27.49.41.73l1.08-.34-.84.71q.24.36.51.69l.94-.44-.68.74q.29.34.61.65l.81-.51-.54.76c.22.2.46.4.7.58l.68-.55-.4.75c.25.18.51.35.77.5l.55-.58-.28.73q.41.23.84.42l.44-.6-.17.71c.29.12.6.22.9.32l.34-.6-.08.68q.46.13.94.21l.24-.6V45c.32,0,.64.08,1,.1l.16-.59.08.6h.34l.64,0,.08-.59.15.57c.33,0,.66-.07,1-.13v-.59l.22.55c.32-.06.64-.15,1-.24l-.07-.59.29.52q.47-.15.92-.35l-.15-.59.36.49q.45-.21.87-.45l-.23-.59.44.46c.27-.17.54-.35.8-.55l-.32-.59.53.43q.38-.3.72-.63l-.42-.58.62.39q.33-.33.63-.7l-.53-.57.72.33q.29-.36.54-.76l-.64-.54.82.26q.23-.39.43-.8l-.77-.5.93.17q.18-.4.33-.82l-.9-.44,1,.06q.13-.41.22-.84l-1-.35,1.11-.08q.07-.41.11-.83l-1.16-.23,1.19-.24c0-.18,0-.35,0-.53s0-.19,0-.28L198,34.2l1.25-.42c0-.26-.05-.53-.09-.78l-1.37.08,1.28-.62c-.05-.25-.11-.5-.18-.74l-1.45.27,1.28-.83c-.08-.23-.17-.46-.26-.69l-1.5.48,1.24-1c-.1-.21-.22-.42-.34-.62l-1.52.7,1.16-1.26c-.13-.19-.26-.37-.4-.55l-1.49.93,1-1.47c-.14-.17-.29-.33-.45-.48l-1.43,1.17.9-1.67-.49-.4-1.33,1.4.71-1.84-.52-.32-1.18,1.61.49-2-.54-.24-1,1.8.24-2.08-.56-.16-.79,2,0-2.14-.57-.08-.55,2.08-.29-2.15h-.57"/></clipPath><clipPath id="clip-path-12"><path class="cls-1" d="M188.68,24.21l-.27,2-.52-2-.59.07,0,2.06-.77-1.91-.58.15.24,2-1-1.78-.56.23.49,2-1.2-1.63-.52.31.72,1.87-1.36-1.44-.49.38.93,1.73-1.5-1.22-.44.45,1.11,1.55-1.59-1q-.2.26-.39.52L181.62,30,180,29.22c-.11.19-.22.39-.33.59L181,30.94l-1.64-.52c-.09.21-.18.43-.26.64l1.41.92-1.61-.3c-.07.23-.12.46-.17.7l1.43.69L178.63,33c0,.24-.07.49-.09.73l1.42.48-1.45.1c0,.09,0,.18,0,.27s0,.33,0,.5l1.37.27-1.33.27q0,.4.11.79l1.29.09-1.19.4c.06.27.13.53.21.79l1.19-.07-1,.5q.14.4.32.78l1.08-.2-.89.58c.13.26.28.51.43.76l.95-.3-.74.63q.25.37.53.72l.82-.38-.6.65c.2.23.41.46.63.67l.69-.44-.46.65c.23.21.47.41.72.6l.57-.47-.34.64q.39.28.8.52l.46-.49-.23.61c.28.16.58.3.88.43l.36-.49-.14.58c.3.12.62.23.93.33l.27-.49-.07.55q.48.13,1,.22l.19-.48v.51q.5.08,1,.1l.12-.47.06.47h.35l.66,0,.06-.46.12.44c.34,0,.68-.07,1-.13v-.46l.17.43c.34-.07.67-.15,1-.25l-.05-.46.23.41c.32-.11.64-.23.95-.36l-.11-.46.28.39a9.88,9.88,0,0,0,.9-.47l-.18-.47.35.37c.28-.18.56-.36.83-.56l-.26-.48.42.35q.39-.31.75-.65l-.34-.48.51.32c.23-.23.45-.47.66-.73l-.44-.48.6.28q.3-.38.56-.78l-.54-.46.7.22c.16-.27.31-.54.45-.83l-.66-.43.8.15q.19-.42.34-.86l-.79-.38.89.05q.13-.43.23-.87l-.91-.31,1-.07c.05-.29.09-.58.12-.87l-1-.21,1.06-.21c0-.18,0-.37,0-.56s0-.19,0-.29L198,34.2l1.12-.38c0-.28,0-.55-.09-.82l-1.24.07,1.16-.56c-.05-.26-.12-.52-.19-.78l-1.33.24,1.17-.76c-.08-.24-.17-.48-.27-.72l-1.38.44,1.14-1q-.16-.33-.35-.66l-1.4.65,1.07-1.17c-.13-.2-.27-.39-.42-.58l-1.38.86,1-1.36q-.23-.26-.47-.51l-1.33,1.09.83-1.55c-.17-.15-.34-.29-.52-.43l-1.24,1.3.66-1.71-.55-.34-1.11,1.51.46-1.85-.58-.26-.94,1.68.23-1.95-.59-.18-.74,1.84,0-2-.6-.09-.52,1.95-.27-2h-.6"/></clipPath><clipPath id="clip-path-13"><path class="cls-1" d="M188.66,24.33l-.25,1.9-.49-1.86-.62.07,0,1.93-.72-1.79-.61.16.23,1.91L185.24,25l-.59.24.46,1.85L184,25.56l-.55.32.67,1.75-1.27-1.34-.52.4.87,1.61-1.4-1.14q-.24.23-.47.48l1,1.45-1.48-.92c-.14.18-.28.36-.41.55L181.62,30l-1.52-.7q-.18.3-.34.62L181,30.94l-1.52-.48c-.1.22-.18.45-.27.68l1.3.84L179,31.71c-.07.24-.13.48-.18.73l1.32.64L178.76,33q-.06.38-.09.77l1.29.43-1.32.09c0,.09,0,.19,0,.28s0,.35,0,.52l1.24.25-1.2.24c0,.28.07.55.11.82l1.16.08-1.07.36q.1.42.22.83l1.06-.06-.93.45c.1.28.21.55.33.82l.94-.17-.78.51q.21.41.45.79l.82-.26-.64.54c.17.26.36.51.55.75l.7-.32-.51.55q.31.36.66.7l.58-.36-.39.54q.36.33.75.63l.47-.38-.28.52c.27.19.55.37.83.54l.37-.39-.19.49c.29.16.6.31.91.44l.28-.38-.11.45a10.23,10.23,0,0,0,1,.34l.21-.37,0,.41a10,10,0,0,0,1,.22l.14-.35v.37a10.18,10.18,0,0,0,1,.1l.09-.33,0,.34h.37l.68,0,0-.32.08.31a10.07,10.07,0,0,0,1-.14v-.32l.12.3a9.93,9.93,0,0,0,1-.26l0-.33.16.29a9.79,9.79,0,0,0,1-.37l-.08-.33.2.28a9.55,9.55,0,0,0,.93-.49l-.13-.34.26.27a10,10,0,0,0,.86-.58l-.19-.36.32.26c.27-.21.53-.44.78-.68l-.26-.37.39.25a10,10,0,0,0,.68-.75l-.35-.38.48.22c.21-.26.4-.53.58-.81l-.44-.37.57.18c.17-.28.33-.56.47-.86l-.55-.36.66.12c.13-.29.25-.59.36-.89l-.67-.32.76,0q.14-.45.24-.91l-.79-.26.85-.06c.05-.3.1-.6.12-.91l-.9-.18.93-.19c0-.19,0-.39,0-.58s0-.2,0-.3l-1-.07,1-.33c0-.29-.05-.57-.09-.85l-1.11.06,1-.5c-.05-.27-.12-.55-.19-.81l-1.2.22,1.05-.68c-.08-.26-.18-.51-.28-.75l-1.25.4,1-.87c-.11-.24-.24-.46-.37-.69l-1.28.59,1-1.07c-.14-.21-.28-.41-.44-.61l-1.27.8.89-1.26c-.16-.18-.32-.36-.5-.53l-1.23,1,.77-1.43c-.18-.16-.36-.31-.55-.45l-1.15,1.21.61-1.59-.58-.36-1,1.4.43-1.72-.61-.27-.88,1.57.21-1.82-.63-.18-.69,1.72,0-1.87-.64-.1-.48,1.83-.25-1.89h-.64"/></clipPath><clipPath id="clip-path-14"><path class="cls-1" d="M188.64,24.47l-.23,1.76L188,24.5l-.66.08v1.79l-.67-1.66-.65.17.21,1.78-.87-1.55-.62.26.42,1.72-1-1.42-.59.34.63,1.63-1.18-1.25-.54.42.8,1.5-1.29-1.06c-.17.16-.33.33-.49.5l1,1.34L181,28.24c-.15.19-.29.38-.43.58L181.62,30l-1.4-.65c-.13.21-.25.43-.36.65l1.15,1-1.4-.44c-.1.23-.2.47-.28.71l1.19.77-1.36-.25c-.07.25-.14.51-.19.77l1.2.58L178.89,33q-.06.4-.09.8l1.17.39-1.19.08c0,.09,0,.19,0,.29s0,.37,0,.55l1.11.22-1.08.22q0,.44.12.86l1,.07-.95.32c.07.29.15.58.23.86l.93-.05-.81.39c.1.29.22.57.35.85l.81-.15-.67.44c.14.28.3.56.47.82l.69-.22-.54.46q.27.4.58.78l.58-.27-.42.46q.32.38.68.72l.47-.29L182,42c.25.23.51.44.78.65l.37-.3-.22.41a10.07,10.07,0,0,0,.86.56l.28-.29-.14.37a10.08,10.08,0,0,0,.94.46l.2-.27-.08.33a10.12,10.12,0,0,0,1,.35l.14-.25,0,.29a9.79,9.79,0,0,0,1,.23l.09-.23v.25a10.49,10.49,0,0,0,1.07.11l.05-.21,0,.21h.39l.7,0,0-.19.05.19a10.07,10.07,0,0,0,1.08-.14v-.19l.07.18a9.78,9.78,0,0,0,1.06-.27l0-.2.1.17a9.73,9.73,0,0,0,1-.39l-.05-.21.13.17a10.06,10.06,0,0,0,1-.5l-.09-.22.17.18a10.3,10.3,0,0,0,.89-.6l-.13-.25.22.18a10.25,10.25,0,0,0,.8-.7l-.19-.26.28.18a10,10,0,0,0,.71-.78l-.26-.28.36.17a10,10,0,0,0,.6-.84l-.34-.29.44.14c.18-.29.34-.58.49-.89l-.44-.29.53.1a9.84,9.84,0,0,0,.37-.92l-.55-.27.63,0q.15-.46.25-.94l-.66-.22.72-.05q.09-.46.13-.94l-.78-.16.8-.16c0-.2,0-.41,0-.61s0-.21,0-.31L198,34.2l.87-.29q0-.45-.1-.89l-1,.05.92-.44c-.05-.29-.12-.57-.2-.85l-1.07.2.94-.61c-.09-.27-.19-.53-.3-.79l-1.13.36.93-.79q-.18-.37-.38-.72l-1.16.54.89-1q-.22-.33-.46-.64l-1.16.73.82-1.15c-.17-.19-.34-.38-.52-.56l-1.13.92.71-1.32c-.18-.16-.37-.32-.57-.47l-1.06,1.11.56-1.47q-.3-.2-.61-.38l-1,1.3.39-1.59-.64-.29-.81,1.46L192,25l-.66-.19-.64,1.59V24.63l-.67-.1-.45,1.7-.23-1.75h-.67"/></clipPath><clipPath id="clip-path-15"><path class="cls-1" d="M188.63,24.59l-.22,1.64-.42-1.6-.7.08v1.66l-.62-1.54L186,25l.19,1.65-.8-1.44-.65.27.39,1.6-1-1.31-.61.36.58,1.51L183,26.48c-.19.14-.38.29-.57.45l.74,1.38-1.2-1c-.18.17-.35.34-.51.53l.88,1.23-1.26-.79q-.24.3-.45.61l1,1.06-1.28-.59q-.2.33-.38.68l1,.89-1.27-.4c-.11.24-.21.49-.29.74l1.08.7-1.23-.23q-.12.39-.2.8l1.07.52L179,33q-.06.41-.09.84l1,.35-1.06.07c0,.1,0,.2,0,.3s0,.38,0,.58l1,.19-.95.19c0,.3.07.6.13.89l.89.06-.82.28c.07.3.15.6.24.9l.79,0-.69.33c.11.3.23.59.36.88l.68-.12-.56.37c.15.29.31.58.48.85l.57-.18-.44.37q.28.42.6.8l.46-.21-.33.36a9.83,9.83,0,0,0,.71.74l.35-.22-.23.33a9.77,9.77,0,0,0,.81.67l.26-.21-.16.29a9.92,9.92,0,0,0,.89.58l.18-.2-.09.25a10,10,0,0,0,1,.47l.12-.17,0,.2a9.81,9.81,0,0,0,1,.36l.08-.14,0,.15a9.48,9.48,0,0,0,1.08.24l0-.11v.11a9.89,9.89,0,0,0,1.11.11l0-.08v.08h.41l.72,0v-.06l0,.06a10,10,0,0,0,1.12-.15v-.06l0,.05a9.49,9.49,0,0,0,1.09-.28V44l0,.06a9.86,9.86,0,0,0,1-.4l0-.08,0,.07a10.06,10.06,0,0,0,1-.52l0-.1.08.08a10.19,10.19,0,0,0,.92-.62l-.07-.13.11.09a10,10,0,0,0,.83-.72l-.11-.16.17.1a9.89,9.89,0,0,0,.73-.8l-.17-.19.24.11a9.85,9.85,0,0,0,.62-.87l-.24-.21.31.1a10,10,0,0,0,.51-.92l-.33-.22.4.07a9.94,9.94,0,0,0,.39-1l-.43-.21.49,0a10,10,0,0,0,.26-1l-.54-.18.58,0q.09-.48.14-1l-.65-.13.67-.13c0-.21,0-.42,0-.64s0-.21,0-.32L198,34.2l.74-.25q0-.47-.1-.92l-.85,0,.8-.39c-.06-.3-.13-.59-.21-.88l-.94.17.83-.54c-.09-.28-.2-.55-.31-.82l-1,.32.83-.7c-.12-.26-.26-.51-.4-.75l-1,.48.8-.87c-.15-.23-.31-.45-.48-.67l-1,.66.74-1q-.26-.3-.54-.58l-1,.84.65-1.2c-.19-.17-.39-.34-.6-.49l-1,1,.52-1.34c-.21-.14-.42-.27-.64-.4l-.88,1.19.36-1.47-.67-.3-.75,1.34L192,25.1l-.7-.2-.59,1.48V24.76l-.71-.11-.42,1.57-.22-1.62h-.71"/></clipPath><clipPath id="clip-path-16"><path class="cls-1" d="M188.61,24.72l-.2,1.5L188,24.75l-.73.09v1.53L186.7,25l-.71.19.18,1.52-.74-1.33c-.23.09-.46.18-.68.28l.36,1.47-.89-1.21q-.33.18-.65.38l.53,1.38-1-1.06q-.31.22-.6.47l.68,1.26-1.09-.89c-.19.18-.37.36-.54.55l.8,1.12-1.15-.72c-.17.2-.32.42-.47.63l.89,1-1.16-.54q-.21.34-.39.71l.95.8-1.15-.36c-.11.25-.21.51-.3.77l1,.63-1.1-.2c-.08.27-.15.55-.21.83l1,.46-1-.06q-.07.43-.1.88l.91.31-.93.06c0,.1,0,.2,0,.31s0,.4,0,.6l.85.17-.82.16q0,.47.13.93l.76.05-.7.24q.11.47.26.93l.66,0-.58.28a9.47,9.47,0,0,0,.38.91l.55-.1-.46.3a9.78,9.78,0,0,0,.5.88l.44-.14-.34.29a10.26,10.26,0,0,0,.62.83l.34-.16-.24.26a10,10,0,0,0,.73.77l.24-.15-.16.22a10,10,0,0,0,.83.69l.16-.13-.09.18a9.84,9.84,0,0,0,.92.59l.09-.1,0,.12a9.83,9.83,0,0,0,1,.49l0-.06,0,.07a9.65,9.65,0,0,0,1.07.37v0a9.79,9.79,0,0,0,8.61-1.66h0a10,10,0,0,0,.86-.74l0-.05.05,0a9.93,9.93,0,0,0,.76-.83l-.08-.09.11.05a10,10,0,0,0,.64-.9l-.14-.12.18.06a9.74,9.74,0,0,0,.52-1l-.22-.15.27,0a9.42,9.42,0,0,0,.4-1l-.31-.15.36,0a9.75,9.75,0,0,0,.27-1l-.41-.14.45,0a9.87,9.87,0,0,0,.14-1l-.52-.1.54-.11c0-.22,0-.44,0-.66s0-.22,0-.33l-.62,0,.61-.21q0-.49-.1-1l-.72,0,.67-.33c-.06-.31-.13-.62-.22-.92l-.81.15.72-.46c-.09-.29-.2-.58-.32-.85l-.88.28.73-.62q-.19-.4-.42-.78l-.92.43.71-.77q-.23-.36-.5-.7l-.94.59.66-.93q-.27-.32-.57-.61l-.93.76.58-1.08c-.2-.18-.41-.35-.63-.52l-.88.92.47-1.22q-.33-.22-.67-.42l-.8,1.09.33-1.34c-.23-.11-.46-.22-.7-.32l-.68,1.23.17-1.42-.73-.21-.54,1.35V24.9l-.74-.11-.38,1.45-.2-1.49-.52,0h-.22"/></clipPath><clipPath id="clip-path-17"><path class="cls-1" d="M188.59,24.85l-.18,1.37-.36-1.34c-.26,0-.51.05-.76.09v1.4l-.52-1.3c-.25.06-.5.12-.75.2l.16,1.38-.67-1.21c-.24.09-.48.19-.72.3l.33,1.34L184.3,26c-.23.12-.46.25-.68.4l.48,1.26-.91-1c-.21.15-.42.32-.62.49l.62,1.15-1-.81q-.29.28-.56.58l.72,1-1-.65q-.26.32-.49.66l.8.87-1-.48c-.15.24-.28.49-.41.74l.84.71-1-.33c-.12.26-.22.53-.32.81l.85.55-1-.18c-.08.28-.15.57-.21.87l.84.4-.9-.05c0,.3-.08.6-.1.91l.79.26-.8.06c0,.1,0,.21,0,.31s0,.42,0,.63l.72.14-.69.14c0,.32.08.65.14,1l.63,0-.58.2a10,10,0,0,0,.27,1l.53,0-.46.22a9.79,9.79,0,0,0,.39.95l.42-.08-.34.22a9.38,9.38,0,0,0,.52.91l.31-.1-.24.21a9.8,9.8,0,0,0,.64.86l.21-.1-.15.17a9.54,9.54,0,0,0,.76.8l.13-.08-.08.12a9.82,9.82,0,0,0,.86.71l.06,0,0,.06a10,10,0,0,0,1,.61h0A9.65,9.65,0,0,0,197,39.78l0,0,.06,0a9.74,9.74,0,0,0,.54-1l-.12-.08.14,0a9.89,9.89,0,0,0,.41-1l-.2-.1H198a9.59,9.59,0,0,0,.28-1l-.29-.1.32,0a9.68,9.68,0,0,0,.15-1l-.39-.08.41-.08c0-.23,0-.46,0-.69s0-.22,0-.34l-.49,0,.49-.16a9.84,9.84,0,0,0-.1-1l-.6,0,.56-.27a9.7,9.7,0,0,0-.22-.95l-.69.13.61-.39q-.15-.45-.33-.89l-.76.24.63-.53c-.13-.28-.28-.55-.43-.81l-.81.37.62-.67c-.16-.25-.33-.49-.52-.73l-.83.52.58-.82c-.19-.22-.38-.43-.59-.64l-.83.67.52-1c-.21-.19-.43-.37-.65-.54l-.79.83.42-1.09c-.23-.16-.46-.3-.7-.44l-.72,1,.3-1.21c-.24-.12-.49-.23-.74-.33l-.62,1.11.15-1.29c-.25-.08-.5-.16-.76-.22l-.5,1.23V25c-.26,0-.51-.09-.78-.12l-.35,1.32-.18-1.36h-.78"/></clipPath><clipPath id="clip-path-18"><path class="cls-1" d="M188.57,25l-.17,1.24L188.08,25c-.27,0-.54.05-.8.09v1.27l-.47-1.18c-.27.06-.53.13-.78.21l.15,1.25-.61-1.1c-.25.09-.5.2-.75.31l.3,1.21-.73-1q-.36.19-.7.41l.43,1.13-.82-.87c-.23.16-.44.33-.65.51l.55,1-.89-.73c-.21.19-.4.39-.59.61l.65.91-.92-.58q-.27.33-.51.69l.71.77-.93-.43q-.23.38-.43.77l.74.63-.9-.29c-.12.27-.23.55-.33.84l.74.48-.84-.16q-.13.44-.22.9l.71.34-.77,0a9.25,9.25,0,0,0-.1.95l.66.22-.67,0c0,.11,0,.21,0,.32s0,.44,0,.65l.58.12-.57.11a9.6,9.6,0,0,0,.14,1l.49,0-.45.15a9.23,9.23,0,0,0,.28,1l.39,0-.34.17a9.35,9.35,0,0,0,.41,1l.29-.05-.24.15a9.52,9.52,0,0,0,.54.94l.18-.06-.14.12a9.65,9.65,0,0,0,.66.89l.09,0-.07.07a9.51,9.51,0,0,0,.78.82h0a9.52,9.52,0,0,0,15.09-2.9h0a9.81,9.81,0,0,0,.43-1.05l-.08,0h.09a9.44,9.44,0,0,0,.29-1.08l-.17-.06h.18a9.63,9.63,0,0,0,.15-1.08l-.27-.05.27-.05q0-.35,0-.71c0-.12,0-.23,0-.34l-.36,0,.36-.12a9.46,9.46,0,0,0-.11-1l-.46,0,.43-.21a9.72,9.72,0,0,0-.23-1l-.56.1.49-.32a9.74,9.74,0,0,0-.34-.92l-.63.2.52-.44q-.2-.44-.45-.85l-.69.32.53-.57a9.2,9.2,0,0,0-.54-.76l-.72.45.51-.71q-.29-.35-.61-.66l-.73.59.46-.85q-.33-.3-.68-.56l-.7.74.37-1q-.35-.24-.73-.46l-.64.88.27-1.08q-.38-.19-.77-.35l-.56,1,.14-1.16c-.26-.09-.53-.17-.8-.24l-.45,1.11V25.16c-.27-.05-.54-.09-.81-.12l-.32,1.19L189.38,25l-.56,0h-.25"/></clipPath><clipPath id="clip-path-19"><path class="cls-1" d="M188.56,25.12l-.15,1.11-.29-1.09q-.42,0-.84.1v1.13l-.42-1.05c-.28.06-.55.13-.82.21l.13,1.12-.55-1q-.4.14-.78.32l.27,1.08-.65-.89c-.25.13-.5.28-.73.43l.39,1-.73-.77c-.23.17-.46.35-.68.53l.49.91-.79-.65c-.21.2-.42.41-.61.63l.57.8-.81-.51q-.28.35-.53.72l.62.67-.81-.37q-.24.39-.44.8l.64.54-.78-.25q-.19.43-.34.87l.63.41-.72-.13a9.43,9.43,0,0,0-.23.94l.59.29-.64,0a9.61,9.61,0,0,0-.11,1l.53.18-.54,0c0,.11,0,.22,0,.33s0,.46,0,.68l.45.09-.44.09a9.47,9.47,0,0,0,.15,1l.36,0-.33.11a9.28,9.28,0,0,0,.29,1h.26l-.22.11a9.35,9.35,0,0,0,.42,1l.15,0-.13.08a9.44,9.44,0,0,0,.56,1l.06,0,0,0A9.4,9.4,0,0,0,198,36.5l0,0h0a9.49,9.49,0,0,0,.16-1.11l-.14,0,.14,0q0-.37,0-.74c0-.12,0-.24,0-.35l-.24,0,.23-.08a9.37,9.37,0,0,0-.11-1.07l-.34,0,.32-.15a9.59,9.59,0,0,0-.24-1l-.43.08.38-.25a9.68,9.68,0,0,0-.35-1l-.51.16.42-.36a9.18,9.18,0,0,0-.46-.88l-.57.26.44-.48a9.27,9.27,0,0,0-.56-.79l-.61.38.43-.6a9.06,9.06,0,0,0-.64-.69l-.62.51.39-.73q-.34-.31-.71-.59l-.61.64.33-.85c-.24-.17-.5-.33-.76-.48l-.57.77.23-.95c-.26-.13-.53-.25-.8-.36l-.49.89.12-1c-.27-.09-.55-.18-.83-.25l-.4,1V25.29c-.28-.06-.56-.1-.84-.13l-.28,1.06-.15-1.1-.57,0h-.27"/></clipPath><clipPath id="clip-path-20"><path class="cls-1" d="M188.54,25.25l-.13,1-.25-1c-.29,0-.58.06-.87.1v1l-.37-.93c-.29.06-.57.14-.85.22l.12,1-.48-.87c-.28.1-.55.21-.81.34l.24,1-.58-.78q-.39.21-.77.45l.34.89-.64-.68c-.24.17-.48.36-.71.56l.43.8-.69-.56q-.33.31-.63.66l.49.69-.7-.44a8.91,8.91,0,0,0-.55.75l.53.57-.69-.32q-.25.4-.46.83l.54.46-.66-.21a9.55,9.55,0,0,0-.35.91l.52.34-.59-.11a9.81,9.81,0,0,0-.24,1l.48.23-.51,0a9.39,9.39,0,0,0-.11,1l.41.14-.42,0c0,.11,0,.23,0,.34s0,.47,0,.7l.32.06-.31.06a9.14,9.14,0,0,0,.16,1.07l.23,0-.21.07a9.3,9.3,0,0,0,.3,1.06h.13l-.11.05a9.47,9.47,0,0,0,.44,1h0a9.28,9.28,0,0,0,17.58-3.37h0c0-.25,0-.51,0-.77s0-.24,0-.36H198l.1,0a9.29,9.29,0,0,0-.11-1.1h-.21L198,33a9.25,9.25,0,0,0-.24-1.06l-.3.06.27-.17a8.79,8.79,0,0,0-.37-1l-.39.12.32-.27a9.75,9.75,0,0,0-.48-.91l-.45.21.35-.38a9.66,9.66,0,0,0-.58-.81l-.5.31.35-.49a9.4,9.4,0,0,0-.66-.72l-.52.43.33-.61a9.45,9.45,0,0,0-.73-.61l-.52.55.28-.72a9.14,9.14,0,0,0-.79-.49l-.49.67.2-.82q-.4-.21-.83-.38l-.43.77.1-.89c-.28-.1-.57-.19-.86-.26l-.35.87v-.95c-.29-.06-.58-.1-.88-.14l-.25.94-.13-1-.59,0h-.29"/></clipPath><clipPath id="clip-path-21"><path class="cls-1" d="M188.52,25.38l-.11.85-.22-.83a8.93,8.93,0,0,0-.9.11v.87l-.33-.81a9,9,0,0,0-.88.23l.1.86-.42-.75q-.43.16-.85.35l.2.83-.5-.68a8.67,8.67,0,0,0-.79.47l.29.76-.55-.58a8.7,8.7,0,0,0-.73.58l.37.68-.59-.48a9.26,9.26,0,0,0-.66.68l.41.58-.59-.37a9.54,9.54,0,0,0-.57.78l.44.47-.57-.26a9,9,0,0,0-.47.87l.43.37-.53-.17a9.23,9.23,0,0,0-.36.94l.4.26-.46-.08a9.19,9.19,0,0,0-.24,1l.35.17-.38,0a9.3,9.3,0,0,0-.11,1.05l.28.09-.28,0q0,.18,0,.35,0,.37,0,.73l.19,0-.18,0a9.53,9.53,0,0,0,.16,1.1H180l-.08,0A9.15,9.15,0,0,0,198,34.57a9.26,9.26,0,0,0-.12-1.5h-.08l.07,0a9.37,9.37,0,0,0-.25-1.09l-.18,0,.15-.1a9.26,9.26,0,0,0-.38-1l-.26.08.22-.18a9.41,9.41,0,0,0-.49-.94l-.34.16.26-.28a9.07,9.07,0,0,0-.59-.85l-.39.24.27-.38a9.3,9.3,0,0,0-.68-.75l-.42.35.27-.49a9,9,0,0,0-.76-.63l-.43.45.23-.6a9.13,9.13,0,0,0-.82-.51l-.41.56.17-.69a9.08,9.08,0,0,0-.86-.39l-.36.66.09-.76a9,9,0,0,0-.9-.27l-.3.74v-.81a8.91,8.91,0,0,0-.91-.14l-.21.81-.11-.84-.61,0h-.3"/></clipPath><clipPath id="clip-path-22"><path class="cls-1" d="M188.5,25.5l-.1.72-.19-.71a9,9,0,0,0-.94.11v.74l-.28-.69a8.55,8.55,0,0,0-.91.24l.09.73-.36-.64a9,9,0,0,0-.88.37l.17.7-.42-.57a9,9,0,0,0-.83.49l.24.64-.46-.49a9.4,9.4,0,0,0-.76.6l.3.56-.49-.4a9,9,0,0,0-.68.71l.34.47-.48-.3a9.06,9.06,0,0,0-.59.81l.35.38-.45-.21a9.21,9.21,0,0,0-.49.9l.33.28-.41-.13a9,9,0,0,0-.37,1l.29.19-.33-.06a8.79,8.79,0,0,0-.25,1l.23.11h-.25a9.08,9.08,0,0,0-.11,1.09l.15.05h-.15c0,.12,0,.24,0,.36s0,.51,0,.76h0A9,9,0,1,0,197.48,32h0l0,0a9.22,9.22,0,0,0-.39-1.05l-.14,0,.11-.1a9,9,0,0,0-.51-1l-.22.1.17-.18a9.23,9.23,0,0,0-.61-.87l-.28.17.2-.28a9.21,9.21,0,0,0-.71-.77l-.32.26.2-.38a8.83,8.83,0,0,0-.79-.65l-.34.36.18-.47a9.14,9.14,0,0,0-.85-.53l-.34.46.14-.56a8.87,8.87,0,0,0-.9-.41l-.3.54.07-.63a8.81,8.81,0,0,0-.93-.28l-.25.62v-.68a8.94,8.94,0,0,0-.95-.15l-.18.68-.09-.71-.63,0h-.32"/></clipPath><clipPath id="clip-path-23"><path class="cls-1" d="M188.49,25.64l-.08.59-.15-.58a9.38,9.38,0,0,0-1,.12v.61l-.23-.56a8.53,8.53,0,0,0-1,.25l.07.6-.29-.52a8.43,8.43,0,0,0-.91.38l.14.57-.34-.47a9.31,9.31,0,0,0-.86.5l.2.51-.37-.39a8.55,8.55,0,0,0-.79.62l.24.44L182.8,28a8.9,8.9,0,0,0-.71.73l.26.36-.37-.23a8.87,8.87,0,0,0-.61.84l.26.28-.34-.16a9,9,0,0,0-.51.93l.23.2-.28-.09a8.5,8.5,0,0,0-.39,1l.18.12-.21,0a9.1,9.1,0,0,0-.26,1.08l.11.05h-.12a8.82,8.82,0,0,0-.12,1.12h0c0,.12,0,.25,0,.37a8.9,8.9,0,1,0,17-3.63h0a9,9,0,0,0-.53-1l-.1,0,.08-.08a9.1,9.1,0,0,0-.64-.91l-.17.11.12-.17a9.06,9.06,0,0,0-.73-.8l-.22.18.14-.26a8.78,8.78,0,0,0-.81-.68l-.25.26.13-.35a8.88,8.88,0,0,0-.88-.55l-.26.35.11-.43a8.74,8.74,0,0,0-.93-.42l-.24.43.06-.5a8.68,8.68,0,0,0-1-.29l-.2.5v-.55a8.61,8.61,0,0,0-1-.15l-.15.55-.08-.57-.65,0h-.34"/></clipPath><clipPath id="clip-path-24"><path class="cls-1" d="M188.47,25.77l-.06.46-.12-.45a8.61,8.61,0,0,0-1,.12v.48l-.18-.44a9,9,0,0,0-1,.26l.05.47-.23-.41a8.59,8.59,0,0,0-.94.39l.11.44-.26-.36a9,9,0,0,0-.89.52l.15.39-.28-.3A8.76,8.76,0,0,0,183,28l.18.33-.28-.23a8.71,8.71,0,0,0-.73.76l.18.26-.26-.16a8.88,8.88,0,0,0-.64.87l.17.18-.22-.1a8.56,8.56,0,0,0-.52,1l.13.11-.16-.05a8.83,8.83,0,0,0-.4,1l.07,0h-.08a8.77,8.77,0,1,0,15.22-2.91l-.06,0,0-.06a8.92,8.92,0,0,0-.75-.82l-.12.1.08-.14a8.93,8.93,0,0,0-.84-.7l-.16.17.08-.22a8.44,8.44,0,0,0-.91-.57l-.18.24.07-.3a8.54,8.54,0,0,0-1-.44l-.17.31,0-.36a8.58,8.58,0,0,0-1-.3l-.15.38V26a8.67,8.67,0,0,0-1-.16l-.11.43-.06-.44-.66,0h-.36"/></clipPath><clipPath id="clip-path-25"><path class="cls-1" d="M188.45,25.9l0,.33-.09-.32a8.87,8.87,0,0,0-1,.12v.34l-.13-.32a8.59,8.59,0,0,0-1,.27l0,.33-.16-.29a8.51,8.51,0,0,0-1,.41l.08.31-.19-.25a8.37,8.37,0,0,0-.92.54l.1.27-.19-.2a8.76,8.76,0,0,0-.84.67l.11.21-.18-.15a8.64,8.64,0,0,0-.76.79l.1.15L182.2,29a8.45,8.45,0,0,0-.65.9l.07.08-.1,0a9,9,0,0,0-.54,1l0,0h0a8.64,8.64,0,1,0,13.81-2.64h0v0a8.67,8.67,0,0,0-.86-.73l-.07.07,0-.1a8.71,8.71,0,0,0-.94-.59l-.1.14,0-.17a8.53,8.53,0,0,0-1-.45l-.11.2,0-.23a8.46,8.46,0,0,0-1-.31l-.1.26v-.28a8.6,8.6,0,0,0-1.05-.16l-.08.3,0-.31-.68,0h-.37"/></clipPath><clipPath id="clip-path-26"><path class="cls-1" d="M188.44,26l0,.2-.05-.2a8.31,8.31,0,0,0-1.08.13v.21l-.08-.2a8.43,8.43,0,0,0-1.05.28l0,.2-.1-.18a8.72,8.72,0,0,0-1,.42l0,.18-.11-.15a8.68,8.68,0,0,0-.95.56l.05.14-.1-.11a8.83,8.83,0,0,0-.87.69l.05.09-.08-.07a8.66,8.66,0,0,0-.78.81l0,0,0,0a8.5,8.5,0,1,0,10.56-2l0,0v0a8.65,8.65,0,0,0-1-.47l0,.08v-.1a8.39,8.39,0,0,0-1.06-.32l-.05.14v-.15a8.65,8.65,0,0,0-1.09-.17l0,.18,0-.18-.7,0h-.39"/></clipPath><clipPath id="clip-path-27"><path class="cls-1" d="M188.42,26.16v.07l0-.07a8.3,8.3,0,0,0-1.11.13v.08l0-.07a8.54,8.54,0,0,0-1.09.28v.07l0-.06a8.34,8.34,0,0,0-1,.43v.05l0,0a8.29,8.29,0,0,0-1,.58v0h0a8.37,8.37,0,1,0,6.59-1.26h0a8.29,8.29,0,0,0-1.12-.17v0c-.24,0-.48,0-.72,0h-.41"/></clipPath><clipPath id="clip-path-28"><path class="cls-1" d="M180.58,34.57a8.25,8.25,0,1,0,8.25-8.29,8.27,8.27,0,0,0-8.25,8.29"/></clipPath><clipPath id="clip-path-29"><path class="cls-1" d="M180.7,34.57a8.12,8.12,0,1,0,8.12-8.16,8.14,8.14,0,0,0-8.12,8.16"/></clipPath><clipPath id="clip-path-30"><path class="cls-1" d="M180.83,34.57a8,8,0,1,0,8-8,8,8,0,0,0-8,8"/></clipPath><clipPath id="clip-path-31"><path class="cls-1" d="M181,34.57a7.86,7.86,0,1,0,7.86-7.9,7.88,7.88,0,0,0-7.86,7.9"/></clipPath><clipPath id="clip-path-32"><path class="cls-1" d="M181.09,34.57a7.74,7.74,0,1,0,7.74-7.77,7.75,7.75,0,0,0-7.74,7.77"/></clipPath><clipPath id="clip-path-33"><path class="cls-1" d="M181.22,34.57a7.6,7.6,0,1,0,7.6-7.64,7.62,7.62,0,0,0-7.6,7.64"/></clipPath><clipPath id="clip-path-34"><path class="cls-1" d="M181.35,34.57a7.48,7.48,0,1,0,7.47-7.51,7.49,7.49,0,0,0-7.47,7.51"/></clipPath><clipPath id="clip-path-35"><path class="cls-1" d="M181.48,34.57a7.35,7.35,0,1,0,7.35-7.38,7.36,7.36,0,0,0-7.35,7.38"/></clipPath><clipPath id="clip-path-36"><path class="cls-1" d="M181.61,34.57a7.22,7.22,0,1,0,7.21-7.25,7.23,7.23,0,0,0-7.21,7.25"/></clipPath><clipPath id="clip-path-37"><path class="cls-1" d="M181.74,34.57a7.09,7.09,0,1,0,7.09-7.12,7.1,7.1,0,0,0-7.09,7.12"/></clipPath><clipPath id="clip-path-38"><path class="cls-1" d="M181.87,34.57a7,7,0,1,0,7-7,7,7,0,0,0-7,7"/></clipPath><clipPath id="clip-path-39"><path class="cls-1" d="M182,34.57a6.83,6.83,0,1,0,6.83-6.86A6.84,6.84,0,0,0,182,34.57"/></clipPath><clipPath id="clip-path-40"><path class="cls-1" d="M182.13,34.57a6.7,6.7,0,1,0,6.7-6.73,6.71,6.71,0,0,0-6.7,6.73"/></clipPath><clipPath id="clip-path-41"><path class="cls-1" d="M182.25,34.57a6.57,6.57,0,1,0,6.57-6.6,6.59,6.59,0,0,0-6.57,6.6"/></clipPath><clipPath id="clip-path-42"><path class="cls-1" d="M182.39,34.57a6.44,6.44,0,1,0,6.44-6.47,6.45,6.45,0,0,0-6.44,6.47"/></clipPath><clipPath id="clip-path-43"><path class="cls-1" d="M182.51,34.57a6.31,6.31,0,1,0,6.31-6.34,6.33,6.33,0,0,0-6.31,6.34"/></clipPath><clipPath id="clip-path-44"><path class="cls-1" d="M182.64,34.57a6.18,6.18,0,1,0,6.18-6.21,6.2,6.2,0,0,0-6.18,6.21"/></clipPath><clipPath id="clip-path-45"><path class="cls-1" d="M182.77,34.57a6.05,6.05,0,1,0,6.05-6.08,6.07,6.07,0,0,0-6.05,6.08"/></clipPath><clipPath id="clip-path-46"><path class="cls-1" d="M182.9,34.57a5.93,5.93,0,1,0,5.92-6,5.94,5.94,0,0,0-5.92,6"/></clipPath><clipPath id="clip-path-47"><path class="cls-1" d="M183,34.57a5.8,5.8,0,1,0,5.8-5.82,5.81,5.81,0,0,0-5.8,5.82"/></clipPath><clipPath id="clip-path-48"><path class="cls-1" d="M183.16,34.57a5.67,5.67,0,1,0,5.66-5.69,5.68,5.68,0,0,0-5.66,5.69"/></clipPath><clipPath id="clip-path-49"><path class="cls-1" d="M183.29,34.57A5.54,5.54,0,1,0,188.83,29a5.55,5.55,0,0,0-5.53,5.56"/></clipPath><clipPath id="clip-path-50"><path class="cls-1" d="M183.42,34.57a5.41,5.41,0,1,0,5.41-5.43,5.42,5.42,0,0,0-5.41,5.43"/></clipPath><clipPath id="clip-path-51"><path class="cls-1" d="M183.55,34.57a5.28,5.28,0,1,0,5.28-5.3,5.29,5.29,0,0,0-5.28,5.3"/></clipPath><clipPath id="clip-path-52"><path class="cls-1" d="M183.68,34.57a5.15,5.15,0,1,0,5.15-5.17,5.16,5.16,0,0,0-5.15,5.17"/></clipPath><clipPath id="clip-path-53"><path class="cls-1" d="M183.81,34.57a5,5,0,1,0,5-5,5,5,0,0,0-5,5"/></clipPath><clipPath id="clip-path-54"><path class="cls-1" d="M183.94,34.57a4.89,4.89,0,1,0,4.89-4.91,4.9,4.9,0,0,0-4.89,4.91"/></clipPath><clipPath id="clip-path-55"><path class="cls-1" d="M184.07,34.57a4.76,4.76,0,1,0,4.76-4.79,4.77,4.77,0,0,0-4.76,4.79"/></clipPath><clipPath id="clip-path-56"><path class="cls-1" d="M184.19,34.57a4.63,4.63,0,1,0,4.63-4.65,4.64,4.64,0,0,0-4.63,4.65"/></clipPath><clipPath id="clip-path-57"><path class="cls-1" d="M184.32,34.57a4.5,4.5,0,1,0,4.5-4.52,4.51,4.51,0,0,0-4.5,4.52"/></clipPath><clipPath id="clip-path-58"><path class="cls-1" d="M184.45,34.57a4.37,4.37,0,1,0,4.37-4.39,4.38,4.38,0,0,0-4.37,4.39"/></clipPath><clipPath id="clip-path-59"><path class="cls-1" d="M184.58,34.57a4.25,4.25,0,1,0,4.24-4.26,4.25,4.25,0,0,0-4.24,4.26"/></clipPath><clipPath id="clip-path-60"><path class="cls-1" d="M184.71,34.57a4.11,4.11,0,1,0,4.11-4.13,4.12,4.12,0,0,0-4.11,4.13"/></clipPath><clipPath id="clip-path-61"><path class="cls-1" d="M184.84,34.57a4,4,0,1,0,4-4,4,4,0,0,0-4,4"/></clipPath><clipPath id="clip-path-62"><path class="cls-1" d="M185,34.57a3.86,3.86,0,1,0,3.86-3.87A3.87,3.87,0,0,0,185,34.57"/></clipPath><clipPath id="clip-path-63"><path class="cls-1" d="M185.1,34.57a3.73,3.73,0,1,0,3.73-3.75,3.73,3.73,0,0,0-3.73,3.75"/></clipPath><clipPath id="clip-path-64"><path class="cls-1" d="M185.23,34.57a3.6,3.6,0,1,0,3.6-3.62,3.61,3.61,0,0,0-3.6,3.62"/></clipPath><clipPath id="clip-path-65"><path class="cls-1" d="M185.36,34.57a3.47,3.47,0,1,0,3.47-3.48,3.48,3.48,0,0,0-3.47,3.48"/></clipPath><clipPath id="clip-path-66"><path class="cls-1" d="M185.49,34.57a3.34,3.34,0,1,0,3.34-3.36,3.35,3.35,0,0,0-3.34,3.36"/></clipPath><clipPath id="clip-path-67"><path class="cls-1" d="M185.62,34.57a3.21,3.21,0,1,0,3.21-3.22,3.22,3.22,0,0,0-3.21,3.22"/></clipPath><clipPath id="clip-path-68"><path class="cls-1" d="M185.75,34.57a3.08,3.08,0,1,0,3.08-3.09,3.09,3.09,0,0,0-3.08,3.09"/></clipPath><clipPath id="clip-path-69"><path class="cls-1" d="M185.87,34.57a3,3,0,1,0,3-3,3,3,0,0,0-3,3"/></clipPath><clipPath id="clip-path-70"><path class="cls-1" d="M186,34.57a2.82,2.82,0,1,0,2.82-2.84A2.83,2.83,0,0,0,186,34.57"/></clipPath><clipPath id="clip-path-71"><path class="cls-1" d="M186.13,34.57a2.69,2.69,0,1,0,2.69-2.7,2.7,2.7,0,0,0-2.69,2.7"/></clipPath><clipPath id="clip-path-72"><path class="cls-1" d="M186.26,34.57A2.57,2.57,0,1,0,188.83,32a2.57,2.57,0,0,0-2.56,2.58"/></clipPath><clipPath id="clip-path-73"><path class="cls-1" d="M186.39,34.57a2.43,2.43,0,1,0,2.43-2.45,2.44,2.44,0,0,0-2.43,2.45"/></clipPath><clipPath id="clip-path-74"><path class="cls-1" d="M186.52,34.57a2.31,2.31,0,1,0,2.31-2.32,2.31,2.31,0,0,0-2.31,2.32"/></clipPath><clipPath id="clip-path-75"><path class="cls-1" d="M186.65,34.57a2.18,2.18,0,1,0,2.17-2.19,2.18,2.18,0,0,0-2.17,2.19"/></clipPath><clipPath id="clip-path-76"><path class="cls-1" d="M186.78,34.57a2,2,0,1,0,2-2.06,2.05,2.05,0,0,0-2,2.06"/></clipPath><clipPath id="clip-path-77"><path class="cls-1" d="M186.91,34.57a1.92,1.92,0,1,0,1.92-1.93,1.93,1.93,0,0,0-1.92,1.93"/></clipPath><clipPath id="clip-path-78"><path class="cls-1" d="M187,34.57a1.79,1.79,0,1,0,1.79-1.8,1.79,1.79,0,0,0-1.79,1.8"/></clipPath><clipPath id="clip-path-79"><path class="cls-1" d="M187.17,34.57a1.66,1.66,0,1,0,1.66-1.67,1.66,1.66,0,0,0-1.66,1.67"/></clipPath><clipPath id="clip-path-80"><path class="cls-1" d="M187.3,34.57A1.53,1.53,0,1,0,188.83,33a1.53,1.53,0,0,0-1.53,1.54"/></clipPath><clipPath id="clip-path-81"><path class="cls-1" d="M187.43,34.57a1.4,1.4,0,1,0,1.4-1.41,1.4,1.4,0,0,0-1.4,1.41"/></clipPath><clipPath id="clip-path-82"><path class="cls-1" d="M187.56,34.57a1.27,1.27,0,1,0,1.27-1.28,1.28,1.28,0,0,0-1.27,1.28"/></clipPath><clipPath id="clip-path-83"><path class="cls-1" d="M187.69,34.57a1.14,1.14,0,1,0,1.14-1.15,1.15,1.15,0,0,0-1.14,1.15"/></clipPath><clipPath id="clip-path-84"><path class="cls-1" d="M187.81,34.57a1,1,0,1,0,1-1,1,1,0,0,0-1,1"/></clipPath><clipPath id="clip-path-85"><path class="cls-1" d="M187.94,34.57a.88.88,0,1,0,.88-.89.89.89,0,0,0-.88.89"/></clipPath><clipPath id="clip-path-86"><path class="cls-1" d="M188.07,34.57a.75.75,0,1,0,.75-.76.75.75,0,0,0-.75.76"/></clipPath><clipPath id="clip-path-87"><path class="cls-1" d="M188.2,34.57a.62.62,0,1,0,.62-.63.62.62,0,0,0-.62.63"/></clipPath><clipPath id="clip-path-88"><path class="cls-1" d="M148.89,41.74c-1.53.18-3.07.24-4.6.47q-.87.13-1.72.29A30.68,30.68,0,0,0,194.1,59.09,90.76,90.76,0,0,0,176,47.59a62.72,62.72,0,0,0-14.69-4.8,60.25,60.25,0,0,0-11.2-1.06h-1.18"/></clipPath><clipPath id="clip-path-89"><path class="cls-1" d="M165.26,29.5a21.74,21.74,0,0,0-8.45,5,.67.67,0,0,0-.7.29c-.83.9-1.81,1.62-2.68,2.48-1.35,1.33-2.6,2.77-4.08,4-.24.2-.53.41-.42.81a55,55,0,0,1,9.64.58,52.31,52.31,0,0,1,8,1.76A66.3,66.3,0,0,1,178.26,49a91.63,91.63,0,0,1,14.1,9.09l1.54,1.21a31,31,0,0,0,6.72-9.33,32.89,32.89,0,0,1-3.6-3.07c-2.58-2.49-5.08-5.07-7.61-7.62a2,2,0,0,0-1.08-.74,53.4,53.4,0,0,0-7.78-6.36A19.5,19.5,0,0,0,170,28.85a18.08,18.08,0,0,0-4.76.65"/></clipPath><clipPath id="clip-path-90"><path class="cls-1" d="M199,25c-1.86,2.29-3.3,4.86-4.95,7.29a22.46,22.46,0,0,1-5.74,6.26h0c3,3,5.9,6,8.94,9a29.94,29.94,0,0,0,3.23,2.72,31.07,31.07,0,0,0,0-26.78A14.8,14.8,0,0,0,199,25"/></clipPath><clipPath id="clip-path-91"><path class="cls-1" d="M139.64,69.79c-1.48-5.88-1.08-9.81,1.23-12H141c.43,0,.59.47.68.88a5.41,5.41,0,0,1-.44,3.46l0,.06.05,0a3.4,3.4,0,0,0,1.68.38h0c.25,1.4.16,9.18-1.59,9.63a1.13,1.13,0,0,1-.25,0c-.63,0-1.09-.73-1.52-2.45M134,51.85a69,69,0,0,0-6.83,2.79,4.17,4.17,0,0,1,0-.49v-.2l0,0a4.12,4.12,0,0,0-2.61-.1h-.05v.06a14.51,14.51,0,0,0-.1,2.19,29.14,29.14,0,0,0-5.27,3.54A.35.35,0,0,0,119,60a2.59,2.59,0,0,0,2,1.18,1,1,0,0,0,.53-.14c1.07-.71,2.06-1.33,3-1.87.23,2,.65,4.53,1.24,7.44a7.8,7.8,0,0,0-1.75,1.56.55.55,0,0,0,.07.54,2.51,2.51,0,0,0,1.79,1.09.77.77,0,0,0,.44-.12l.11-.06c.76,3.32,1.67,6.89,2.51,9.82v0h0a4.24,4.24,0,0,0,1.65.3c.52,0,.86-.1,1-.29a.44.44,0,0,0,.06-.39c-.29-1.06-.66-2.25-1.06-3.52-1-3.25-2.08-6.62-1.63-7.64.36-.82,4.49-2.54,6.63-3.29a18,18,0,0,0,.71,4.5c1,3.33,3,5.4,5.12,5.4a3.37,3.37,0,0,0,.8-.1,4.21,4.21,0,0,0,2.82-3.15h0A2.64,2.64,0,0,0,147.49,73a2.31,2.31,0,0,0,.43,0,3.18,3.18,0,0,0,2.13-1.82,3,3,0,0,0,2.08.78,1.37,1.37,0,0,0,.87-.24l0,0v0a29.32,29.32,0,0,1,.75-10.73l0-.2a2.54,2.54,0,0,0,2.6,2.22l.4,0a2.56,2.56,0,0,0,1.1-.37c0,1.78.06,3.56.18,5,.22,2.85,1.1,4.32,2.54,4.23a1.58,1.58,0,0,0,1.11-.59v0c-.17-2.92,1-7.6,2.16-11h.18c-.17,2.65-.21,5.72-.11,8.45.08,2.19.28,4,1.84,4h0a1.59,1.59,0,0,0,1.13-.53v0a31.41,31.41,0,0,1,3-12.2h.28a48,48,0,0,0-1.17,6.48c-.07,3.4.84,5.17,2.71,5.27,2.2.11,3.87-2.26,4-3.81a.91.91,0,0,0-.72-1h-.06l0,.06c-.63,1.61-1.38,2.48-2.1,2.44a1,1,0,0,1-.73-.34,3,3,0,0,1-.41-2.17,41.72,41.72,0,0,1,1.66-7.81c.38-1.37.78-2.79,1.09-4.2a1.07,1.07,0,0,0-.26-.87,3.58,3.58,0,0,0-2.34-1h-.21a.7.7,0,0,0-.69.31,56,56,0,0,0-4.63,11.43c0-1.75.29-4,.51-5.93.11-1,.22-1.9.28-2.67a1,1,0,0,0-.28-.83,3,3,0,0,0-2.1-.73h-.06c-.33,0-.71,0-.87.36a86.56,86.56,0,0,0-3.23,9.68h0A49.94,49.94,0,0,1,161.74,56c.08-.43.15-.86.22-1.27a.44.44,0,0,0-.13-.34,3.3,3.3,0,0,0-1.94-.86.59.59,0,0,0-.34.08c-1,.69-1.47,3.77-1.59,7.15a1.37,1.37,0,0,1-.91.47,1,1,0,0,1-1.06-.83,9.41,9.41,0,0,1,.61-3.78,5.75,5.75,0,0,0,.4-2c-.06-.67-.49-1-1.36-1.12l-.43,0c-1,0-1.71.44-1.86,1.15-.1.53-.2,1.19-.31,1.89a49.18,49.18,0,0,1-1,5l-.13,0c-.08-1-.09-2.18-.09-3.31s0-2-.07-2.89v0l0,0a5.15,5.15,0,0,0-1.93-.5l-.31,0c-1.3.19-.91,3.28-.5,6.56l0,.16c.26,2,.42,3.59.54,4.8.07,2-.1,3.94-1.62,4.22-.9.16-1.4-.47-1.74-2.2a35.27,35.27,0,0,1,.07-10,.52.52,0,0,0-.13-.42,1.46,1.46,0,0,0-1-.27h-.5a1.93,1.93,0,0,0,0-.31,2.92,2.92,0,0,0-3-1.9,4.59,4.59,0,0,0-1.23.18,5.71,5.71,0,0,0-3.53,2.89,10.74,10.74,0,0,0-1.15,4.29l-.16-.1-.05,0a.75.75,0,0,0-.4-.12,1.06,1.06,0,0,0-.24,0l-.17,0a.32.32,0,0,1-.25-.13.58.58,0,0,0-.44-.16,4.86,4.86,0,0,0-1.54.46l-.15.06a33.13,33.13,0,0,0-3.82,2c-.46-2.62-.8-5-1-7.21a65.21,65.21,0,0,1,10.67-4.1,1,1,0,0,0,.64-.43.5.5,0,0,0,.07-.37c0-.13-.25-.39-1.69-1.3l-.07,0a1.13,1.13,0,0,0-.58-.12,8.43,8.43,0,0,0-2.45.53"/></clipPath><clipPath id="clip-path-92"><path class="cls-1" d="M199.61,67.51c-.56-.17-.55-.85-.55-1a25,25,0,0,1,4.17-5.95c.3-.32.48-.39.57-.39h.06c.29.1.11.89-.1,1.53-.93,2.92-2.91,5.78-4,5.78l-.16,0m-16.84-20a14.6,14.6,0,0,0-1.07,1.92,28.48,28.48,0,0,0-6.23.78.35.35,0,0,0-.25.37v.07s0,.06,0,.1c.1.73,1,2,1.76,1.87,1.26-.15,2.41-.25,3.51-.31-.7,1.92-1.45,4.33-2.23,7.2a7.75,7.75,0,0,0-2.24.6c-.2.14-.24.48-.1.93.19.61.75,1.47,1.39,1.47h.18c-.81,3.3-1.6,6.9-2.17,9.89v.05a4,4,0,0,0,2.11,1.26.44.44,0,0,0,.47-.37c.22-1.08.42-2.32.64-3.62.55-3.37,1.11-6.84,2-7.55.18-.15.72-.32,2.31-.32a43,43,0,0,1,5.29.4c-1.06,4.75-1.68,6.79-2,7.88a10.22,10.22,0,0,0-.3,1.1,1,1,0,0,0,.29.74,3.26,3.26,0,0,0,2.07,1.13.9.9,0,0,0,.3,0h0v0a29.09,29.09,0,0,1,4.35-9.84L193,63a2.6,2.6,0,0,0,2.1,3.11,2.75,2.75,0,0,0,.67.08l.27,0a29.25,29.25,0,0,0-1.46,4.06c-1.13,4.1.59,7,2.88,7.72a4,4,0,0,0,1.17.18,6,6,0,0,0,4-1.88,5.85,5.85,0,0,0,3,3.66,4.61,4.61,0,0,0,1.77.37c1.26,0,3-.61,4.37-3.51,2.3-5.06-2.29-10-2.68-10.45v-.05a12.88,12.88,0,0,1,2.32-.17,6.28,6.28,0,0,1,1.89.2c.13.05.15.29.17.52s0,.55.26.64a1.92,1.92,0,0,0,.76.12,6.41,6.41,0,0,0,3.09-.85c-2,3.25-3.71,6.78-5.23,9.92-.44.91-.86,1.77-1.27,2.6a2.86,2.86,0,0,0,1.29,3,1.44,1.44,0,0,0,.63.17.5.5,0,0,0,.32-.08l0,0a29.71,29.71,0,0,1,8.95-9l.24.19a29.51,29.51,0,0,0-4,5.26,8.69,8.69,0,0,0-1,3.55,3.18,3.18,0,0,0,1.46,3.1,4.23,4.23,0,0,0,2.15.54,5,5,0,0,0,4.11-2.06,1.14,1.14,0,0,0,.2-.93,1.08,1.08,0,0,0-.52-.62l0,0,0,0a6.54,6.54,0,0,1-3.45,1.88,1,1,0,0,1-.52-.13c-1.05-.63-.49-2-.06-2.72a44.45,44.45,0,0,1,4.56-5.86c1-1.14,2-2.32,3-3.56a1,1,0,0,0-.1-.88c-.35-.78-1.31-1.89-1.84-2a2.47,2.47,0,0,0-.46,0c-2.56,0-6.44,3.71-9,6.17l-.35.33-.15-.12a84.2,84.2,0,0,1,6.89-10.06c.39-.48.8-.9,1.19-1.31a10.73,10.73,0,0,0,2.08-2.71,1,1,0,0,0-.17-1,3.45,3.45,0,0,0-2.16-1.57l-.16,0h0a28.73,28.73,0,0,0-5.74,6.7,2.47,2.47,0,0,0-.11-.64,1.5,1.5,0,0,0-.53-.84,40.32,40.32,0,0,0-6.57-.47c-2.56,0-4,.25-4.22.74a3.3,3.3,0,0,0,0,2.78v0h0a6.45,6.45,0,0,1,2.91,7.69c-.7,1.64-1.75,2.52-3,2.52a3.29,3.29,0,0,1-1.22-.26,2.21,2.21,0,0,1-1.46-2.55,6.6,6.6,0,0,1,.72-.76,10.37,10.37,0,0,0,2.06-2.45,1.05,1.05,0,0,0-.14-.62,2.53,2.53,0,0,0-.95-1.19,1,1,0,0,0-.35-.06c-1.2,0-2.62,2-3,3a4.66,4.66,0,0,0-.15.7,6,6,0,0,1-3.82,2,2.38,2.38,0,0,1-.72-.11c-1.37-.43-1.82-1.49-1.34-3.17A15.47,15.47,0,0,1,198.13,68a2.29,2.29,0,0,0,1.53,1.78,2.73,2.73,0,0,0,.83.13c2.48,0,4.54-3.41,5.64-6.6a4.53,4.53,0,0,0,0-3.49,2.91,2.91,0,0,0-1.72-1.46h-.3c-3.1,0-5.57,2.88-7.3,6.11a1.45,1.45,0,0,1-.62.16,1.3,1.3,0,0,1-.35,0,1,1,0,0,1-.73-1.14A9.29,9.29,0,0,1,197,60.09a5.59,5.59,0,0,0,1-1.71c.17-.64-.12-1.13-.91-1.52a3,3,0,0,0-1.32-.35,1.37,1.37,0,0,0-1.23.62c-.27.46-.59,1-.93,1.67A48.76,48.76,0,0,1,191,63.21l-.11-.07c.27-1,.66-2.08,1-3.14s.69-1.92.91-2.75v0l0,0a4.75,4.75,0,0,0-2-1.21l-.15,0c-1,0-1.59,2-2.16,4.35a.82.82,0,0,0-.46-.27c-.16,0-.27-.07-.33-.28-.13-.48-1.07-.56-1.9-.62l-.16,0c-.3,0-.72,0-1.21,0-.92,0-2,0-3.1.13.77-2.55,1.52-4.82,2.31-6.91a65,65,0,0,1,11.36,1.14,1.42,1.42,0,0,0,.28,0,.69.69,0,0,0,.72-.42c0-.12-.05-.46-.93-1.92l0-.07c-.29-.49-1.69-.83-2.9-1a68.1,68.1,0,0,0-7.34-.58c.05-.14.12-.29.19-.45l.08-.19,0,0a4.09,4.09,0,0,0-2.26-1.27h-.05Z"/></clipPath><clipPath id="clip-path-93"><path class="cls-1" d="M163.8,80.12a57.1,57.1,0,0,0-18.06,4.09l-.07,0,.43.93.07,0a56.77,56.77,0,0,1,17.75-4c1.6-.12,3.23-.18,4.86-.18a70.67,70.67,0,0,1,36.53,10.46l.07,0,.53-.88-.06,0a71.72,71.72,0,0,0-37.07-10.6c-1.66,0-3.34.06-5,.18"/></clipPath><clipPath id="clip-path-94"><path class="cls-1" d="M160.7,76.77c-15.94.45-26.44,4.66-26.54,4.71l-.07,0,.54,1.32.07,0c.1,0,10.38-4.17,26-4.6.86,0,1.75,0,2.62,0,13.84,0,35,3.1,57,17.85l.07,0,.79-1.18-.07,0c-22.32-14.95-43.73-18.09-57.77-18.09-.89,0-1.78,0-2.67,0"/></clipPath></defs><title>Asset 7logo</title><g id="Layer_2" data-name="Layer 2"><g id="Layer_1-2" data-name="Layer 1"><g class="cls-2"><rect class="cls-3" x="135.98" width="73.6" height="73.73"/></g><g class="cls-4"><rect class="cls-5" x="99.77" y="9.15" width="82.94" height="42.63"/></g><polygon class="cls-6" points="188.41 26.23 187.31 22.07 187.28 26.37 185.67 22.38 186.17 26.66 184.08 22.9 185.11 27.08 182.57 23.62 184.11 27.63 181.15 24.52 183.19 28.31 179.86 25.59 182.35 29.09 178.72 26.81 181.63 29.97 177.74 28.17 181.01 30.94 176.93 29.65 180.53 31.98 176.31 31.2 180.17 33.07 175.9 32.83 179.96 34.19 175.69 34.5 179.89 35.34 175.69 36.18 179.96 36.48 175.9 37.85 180.17 37.61 176.31 39.48 180.53 38.7 176.93 41.04 181.01 39.74 177.74 42.51 181.63 40.71 178.72 43.87 182.35 41.59 179.86 45.09 183.19 42.38 181.15 46.16 184.11 43.05 182.57 47.06 185.11 43.6 184.08 47.78 186.17 44.02 185.67 48.3 187.28 44.31 187.31 48.61 188.41 44.46 188.98 48.72 189.55 44.46 190.65 48.61 190.68 44.31 192.29 48.3 191.79 44.02 193.88 47.78 192.85 43.6 195.4 47.06 193.85 43.05 196.81 46.16 194.77 42.38 198.09 45.09 195.61 41.59 199.24 43.87 196.33 40.71 200.22 42.51 196.95 39.74 201.03 41.04 197.43 38.7 201.65 39.48 197.78 37.61 202.06 37.85 198 36.48 202.27 36.18 198.07 35.34 202.27 34.5 198 34.19 202.06 32.83 197.78 33.07 201.65 31.2 197.43 31.98 201.03 29.65 196.95 30.94 200.22 28.17 196.33 29.97 199.24 26.81 195.61 29.09 198.09 25.59 194.77 28.31 196.81 24.52 193.85 27.63 195.4 23.62 192.85 27.08 193.88 22.9 191.79 26.66 192.29 22.38 190.68 26.37 190.65 22.07 189.55 26.23 188.98 21.96 188.41 26.23"/><polygon class="cls-6" points="188.41 26.23 187.31 22.07 187.28 26.37 185.67 22.38 186.17 26.66 184.08 22.9 185.11 27.08 182.57 23.62 184.11 27.63 181.15 24.52 183.19 28.31 179.86 25.59 182.35 29.09 178.72 26.82 181.62 29.97 177.74 28.17 181.01 30.94 176.93 29.65 180.53 31.98 176.31 31.2 180.17 33.07 175.9 32.83 179.96 34.2 175.69 34.5 179.89 35.34 175.69 36.18 179.96 36.48 175.9 37.85 180.17 37.61 176.31 39.48 180.53 38.7 176.93 41.04 181.01 39.74 177.74 42.51 181.62 40.71 178.72 43.87 182.35 41.59 179.86 45.09 183.19 42.38 181.15 46.16 184.11 43.05 182.57 47.06 185.11 43.6 184.08 47.78 186.17 44.02 185.67 48.3 187.28 44.31 187.31 48.61 188.41 44.46 188.98 48.72 189.55 44.46 190.65 48.61 190.68 44.31 192.29 48.3 191.79 44.02 193.88 47.78 192.85 43.6 195.4 47.06 193.85 43.05 196.81 46.16 194.77 42.38 198.09 45.09 195.61 41.59 199.24 43.87 196.33 40.71 200.22 42.51 196.95 39.74 201.03 41.04 197.43 38.7 201.65 39.48 197.78 37.61 202.06 37.85 198 36.48 202.27 36.18 198.07 35.34 202.27 34.5 198 34.2 202.06 32.83 197.78 33.07 201.65 31.2 197.43 31.98 201.03 29.65 196.95 30.94 200.22 28.17 196.33 29.97 199.24 26.82 195.61 29.09 198.09 25.59 194.77 28.31 196.81 24.52 193.85 27.63 195.4 23.62 192.85 27.08 193.88 22.9 191.79 26.66 192.29 22.38 190.68 26.37 190.65 22.07 189.55 26.23 188.98 21.97 188.41 26.23"/><g class="cls-7"><rect class="cls-6" x="172.35" y="18.04" width="32.97" height="33.07"/></g><g class="cls-8"><rect class="cls-6" x="172.47" y="18.16" width="32.71" height="32.81"/></g><g class="cls-9"><rect class="cls-6" x="172.6" y="18.29" width="32.45" height="32.55"/></g><g class="cls-10"><rect class="cls-6" x="172.73" y="18.42" width="32.19" height="32.29"/></g><g class="cls-11"><rect class="cls-6" x="172.86" y="18.55" width="31.93" height="32.03"/></g><g class="cls-12"><rect class="cls-6" x="172.99" y="18.68" width="31.67" height="31.77"/></g><g class="cls-13"><rect class="cls-6" x="173.12" y="18.81" width="31.41" height="31.51"/></g><g class="cls-14"><rect class="cls-6" x="173.25" y="18.94" width="31.16" height="31.25"/></g><g class="cls-15"><rect class="cls-6" x="173.38" y="19.07" width="30.9" height="30.99"/></g><g class="cls-16"><rect class="cls-6" x="173.51" y="19.2" width="30.64" height="30.73"/></g><g class="cls-17"><rect class="cls-6" x="173.64" y="19.33" width="30.38" height="30.47"/></g><g class="cls-18"><rect class="cls-6" x="173.77" y="19.46" width="30.12" height="30.21"/></g><g class="cls-19"><rect class="cls-6" x="173.9" y="19.59" width="29.86" height="29.95"/></g><g class="cls-20"><rect class="cls-6" x="174.02" y="19.72" width="29.6" height="29.69"/></g><g class="cls-21"><rect class="cls-6" x="174.15" y="19.85" width="29.35" height="29.44"/></g><g class="cls-22"><rect class="cls-6" x="174.28" y="19.98" width="29.09" height="29.17"/></g><g class="cls-23"><rect class="cls-6" x="174.41" y="20.11" width="28.83" height="28.91"/></g><g class="cls-24"><rect class="cls-6" x="174.54" y="20.24" width="28.57" height="28.65"/></g><g class="cls-25"><rect class="cls-6" x="174.67" y="20.37" width="28.31" height="28.4"/></g><g class="cls-26"><rect class="cls-6" x="174.8" y="20.5" width="28.05" height="28.14"/></g><g class="cls-27"><rect class="cls-6" x="174.93" y="20.63" width="27.79" height="27.88"/></g><g class="cls-28"><rect class="cls-6" x="175.06" y="20.76" width="27.54" height="27.62"/></g><g class="cls-29"><rect class="cls-6" x="175.19" y="20.89" width="27.28" height="27.36"/></g><g class="cls-30"><rect class="cls-6" x="175.32" y="21.02" width="27.02" height="27.1"/></g><g class="cls-31"><rect class="cls-6" x="175.45" y="21.15" width="26.76" height="26.83"/></g><g class="cls-32"><rect class="cls-6" x="175.58" y="21.28" width="26.5" height="26.58"/></g><g class="cls-33"><rect class="cls-6" x="175.7" y="21.41" width="26.24" height="26.32"/></g><g class="cls-34"><rect class="cls-6" x="175.83" y="21.54" width="25.98" height="26.06"/></g><g class="cls-35"><rect class="cls-6" x="175.96" y="21.67" width="25.73" height="25.8"/></g><g class="cls-36"><rect class="cls-6" x="176.09" y="21.8" width="25.47" height="25.54"/></g><g class="cls-37"><rect class="cls-6" x="176.22" y="21.93" width="25.21" height="25.28"/></g><g class="cls-38"><rect class="cls-6" x="176.35" y="22.06" width="24.95" height="25.02"/></g><g class="cls-39"><rect class="cls-6" x="176.48" y="22.19" width="24.69" height="24.76"/></g><g class="cls-40"><rect class="cls-6" x="176.61" y="22.32" width="24.43" height="24.5"/></g><g class="cls-41"><rect class="cls-6" x="176.74" y="22.45" width="24.17" height="24.24"/></g><g class="cls-42"><rect class="cls-6" x="176.87" y="22.58" width="23.92" height="23.98"/></g><g class="cls-43"><rect class="cls-6" x="177" y="22.71" width="23.66" height="23.72"/></g><g class="cls-44"><rect class="cls-6" x="177.13" y="22.84" width="23.4" height="23.46"/></g><g class="cls-45"><rect class="cls-6" x="177.25" y="22.97" width="23.14" height="23.2"/></g><g class="cls-46"><rect class="cls-6" x="177.39" y="23.1" width="22.88" height="22.94"/></g><g class="cls-47"><rect class="cls-6" x="177.51" y="23.23" width="22.63" height="22.68"/></g><g class="cls-48"><rect class="cls-6" x="177.64" y="23.36" width="22.36" height="22.42"/></g><g class="cls-49"><rect class="cls-6" x="177.77" y="23.49" width="22.11" height="22.16"/></g><g class="cls-50"><rect class="cls-6" x="177.9" y="23.62" width="21.85" height="21.9"/></g><g class="cls-51"><rect class="cls-6" x="178.03" y="23.75" width="21.59" height="21.64"/></g><g class="cls-52"><rect class="cls-6" x="178.16" y="23.88" width="21.33" height="21.38"/></g><g class="cls-53"><rect class="cls-6" x="178.29" y="24.01" width="21.07" height="21.12"/></g><g class="cls-54"><rect class="cls-6" x="178.42" y="24.14" width="20.82" height="20.86"/></g><g class="cls-55"><rect class="cls-6" x="178.55" y="24.27" width="20.56" height="20.6"/></g><g class="cls-56"><rect class="cls-6" x="178.68" y="24.4" width="20.3" height="20.35"/></g><g class="cls-57"><rect class="cls-6" x="178.81" y="24.53" width="20.04" height="20.09"/></g><g class="cls-58"><rect class="cls-6" x="178.94" y="24.66" width="19.78" height="19.82"/></g><g class="cls-59"><rect class="cls-6" x="179.07" y="24.78" width="19.52" height="19.57"/></g><g class="cls-60"><rect class="cls-6" x="179.19" y="24.92" width="19.26" height="19.31"/></g><g class="cls-61"><rect class="cls-6" x="179.32" y="25.05" width="19.01" height="19.04"/></g><g class="cls-62"><rect class="cls-6" x="179.45" y="25.17" width="18.75" height="18.79"/></g><g class="cls-63"><rect class="cls-6" x="179.58" y="25.31" width="18.49" height="18.53"/></g><g class="cls-64"><rect class="cls-6" x="179.71" y="25.43" width="18.23" height="18.27"/></g><g class="cls-65"><rect class="cls-6" x="179.84" y="25.56" width="17.97" height="18.01"/></g><g class="cls-66"><rect class="cls-6" x="179.97" y="25.69" width="17.71" height="17.75"/></g><g class="cls-67"><rect class="cls-6" x="180.1" y="25.82" width="17.46" height="17.49"/></g><g class="cls-68"><rect class="cls-6" x="180.23" y="25.96" width="17.2" height="17.23"/></g><g class="cls-69"><rect class="cls-6" x="180.36" y="26.08" width="16.94" height="16.97"/></g><g class="cls-70"><rect class="cls-6" x="180.49" y="26.21" width="16.68" height="16.71"/></g><g class="cls-71"><rect class="cls-6" x="180.62" y="26.34" width="16.42" height="16.45"/></g><g class="cls-72"><rect class="cls-6" x="180.75" y="26.47" width="16.16" height="16.19"/></g><g class="cls-73"><rect class="cls-6" x="180.87" y="26.6" width="15.9" height="15.93"/></g><g class="cls-74"><rect class="cls-6" x="181.01" y="26.73" width="15.64" height="15.67"/></g><g class="cls-75"><rect class="cls-6" x="181.13" y="26.86" width="15.39" height="15.41"/></g><g class="cls-76"><rect class="cls-6" x="181.26" y="26.99" width="15.13" height="15.15"/></g><g class="cls-77"><rect class="cls-6" x="181.39" y="27.12" width="14.87" height="14.89"/></g><g class="cls-78"><rect class="cls-6" x="181.52" y="27.25" width="14.61" height="14.63"/></g><g class="cls-79"><rect class="cls-6" x="181.65" y="27.38" width="14.35" height="14.38"/></g><g class="cls-80"><rect class="cls-6" x="181.78" y="27.51" width="14.1" height="14.11"/></g><g class="cls-81"><rect class="cls-6" x="181.91" y="27.64" width="13.84" height="13.85"/></g><g class="cls-82"><rect class="cls-6" x="182.04" y="27.77" width="13.58" height="13.59"/></g><g class="cls-83"><rect class="cls-6" x="182.17" y="27.9" width="13.32" height="13.33"/></g><g class="cls-84"><rect class="cls-6" x="182.3" y="28.03" width="13.06" height="13.07"/></g><g class="cls-85"><rect class="cls-6" x="182.43" y="28.16" width="12.8" height="12.81"/></g><g class="cls-86"><rect class="cls-6" x="182.56" y="28.29" width="12.54" height="12.56"/></g><g class="cls-87"><rect class="cls-6" x="182.69" y="28.42" width="12.28" height="12.29"/></g><g class="cls-88"><rect class="cls-6" x="182.81" y="28.55" width="12.03" height="12.04"/></g><g class="cls-89"><rect class="cls-6" x="182.94" y="28.68" width="11.77" height="11.78"/></g><g class="cls-90"><rect class="cls-6" x="183.07" y="28.81" width="11.51" height="11.51"/></g><g class="cls-91"><rect class="cls-6" x="183.2" y="28.94" width="11.25" height="11.26"/></g><g class="cls-92"><rect class="cls-93" y="35.46" width="216.67" height="71.15"/></g><g class="cls-94"><rect class="cls-95" x="143.92" y="23.85" width="72.73" height="53.58"/></g><g class="cls-96"><rect class="cls-97" x="183.33" y="14.98" width="33.32" height="43.32"/></g><g class="cls-98"><rect class="cls-6" x="113.99" y="46.32" width="66.88" height="38.48"/></g><g class="cls-99"><rect class="cls-6" x="170.23" y="42.51" width="63.1" height="48.42"/></g><g class="cls-100"><rect class="cls-6" x="140.67" y="74.93" width="70.24" height="21.52"/></g><g class="cls-101"><rect class="cls-6" x="129.09" y="71.73" width="97.11" height="29.31"/></g></g></g></svg>