<svg xmlns="http://www.w3.org/2000/svg" xmlns:xlink="http://www.w3.org/1999/xlink" viewBox="0 0 141.42 54.77"><defs><style>.cls-1{fill:none;}.cls-2{fill:#231f20;}.cls-3{clip-path:url(#clip-path);}.cls-4{clip-path:url(#clip-path-2);}.cls-5{clip-path:url(#clip-path-3);}.cls-6{clip-path:url(#clip-path-4);}.cls-7{clip-path:url(#clip-path-5);}.cls-8{clip-path:url(#clip-path-6);}.cls-9{clip-path:url(#clip-path-7);}.cls-10{clip-path:url(#clip-path-8);}.cls-11{clip-path:url(#clip-path-9);}.cls-12{clip-path:url(#clip-path-10);}.cls-13{clip-path:url(#clip-path-11);}.cls-14{clip-path:url(#clip-path-12);}.cls-15{clip-path:url(#clip-path-13);}.cls-16{clip-path:url(#clip-path-14);}.cls-17{clip-path:url(#clip-path-15);}.cls-18{clip-path:url(#clip-path-16);}</style><clipPath id="clip-path"><path class="cls-1" d="M76.49,38.51a5.62,5.62,0,0,1,1.36-.13c1.45,0,2.45.62,2.45,2,0,1.22-.93,2-2.4,2H76.49Zm-1.38-1V48.11h1.38V43.47h1.29c1.25,0,1.82.6,2.13,2.08a14,14,0,0,0,.71,2.56H82a17.3,17.3,0,0,1-.82-2.94A2.66,2.66,0,0,0,79.66,43v0a2.82,2.82,0,0,0,2-2.73,2.68,2.68,0,0,0-.84-2,4.34,4.34,0,0,0-3.08-.87,14.45,14.45,0,0,0-2.64.22"/></clipPath><clipPath id="clip-path-2"><path class="cls-1" d="M94,37.41l-1.41,5.4c-.33,1.33-.63,2.53-.85,3.7h0c-.16-1.13-.44-2.4-.74-3.67l-1.3-5.43H88.2l-1.42,5.4c-.36,1.38-.69,2.65-.87,3.72h0c-.19-1-.47-2.37-.78-3.7l-1.26-5.41H82.38l2.7,10.7h1.44L88,42.53a34.1,34.1,0,0,0,.82-3.5h0a31.87,31.87,0,0,0,.7,3.5l1.34,5.57h1.43l3-10.7Z"/></clipPath><clipPath id="clip-path-3"><path class="cls-1" d="M98.88,40.56c.2-.65.38-1.3.54-1.94h0c.15.62.31,1.26.55,2l1,3.08h-3.2Zm-.24-3.16L95,48.11h1.42l1.1-3.37h3.78l1.14,3.37h1.47L100.3,37.4Z"/></clipPath><clipPath id="clip-path-4"><path class="cls-1" d="M112.19,37.41v4.48c0,1.67,0,3,.16,4.4l0,0a30.73,30.73,0,0,0-1.91-3.48L107,37.41h-1.5v10.7h1.29V43.53c0-1.78,0-3.06-.11-4.41h.05a33.43,33.43,0,0,0,2,3.57l3.38,5.43h1.39V37.41Z"/></clipPath><clipPath id="clip-path-5"><path class="cls-1" d="M117.27,47V38.56a7.87,7.87,0,0,1,1.61-.14c2.91,0,4.33,1.6,4.31,4.13,0,2.89-1.59,4.54-4.53,4.54a8.69,8.69,0,0,1-1.39-.08m-1.37-9.46V48.08a22.44,22.44,0,0,0,2.5.13,6.53,6.53,0,0,0,4.71-1.54,5.68,5.68,0,0,0,1.53-4.16,4.94,4.94,0,0,0-1.5-3.84,6.08,6.08,0,0,0-4.31-1.33,19.33,19.33,0,0,0-2.92.22"/></clipPath><clipPath id="clip-path-6"><path class="cls-1" d="M129.08,40.56c.2-.65.38-1.3.54-1.94h0c.16.62.32,1.26.55,2l1,3.08H128Zm-.24-3.16-3.61,10.71h1.42l1.1-3.37h3.78l1.14,3.37h1.47L130.5,37.4Z"/></clipPath><clipPath id="clip-path-7"><path class="cls-1" d="M88.6,5.1,86.8,12c-.42,1.7-.81,3.22-1.09,4.72h0c-.2-1.44-.57-3.06-.95-4.69L83.07,5.1H81.24L79.42,12c-.46,1.76-.89,3.39-1.11,4.75h0c-.24-1.32-.61-3-1-4.73L75.65,5.1H73.8l3.45,13.67h1.83L81,11.65a43.79,43.79,0,0,0,1.05-4.46h0A40.73,40.73,0,0,0,83,11.65l1.71,7.12h1.83L90.39,5.1Z"/></clipPath><clipPath id="clip-path-8"><path class="cls-1" d="M94.87,9.14c.26-.83.48-1.66.68-2.47h0c.2.79.4,1.6.71,2.49l1.33,3.93H93.54Zm-.3-4L90,18.77h1.81l1.41-4.3H98l1.45,4.3h1.87L96.68,5.1Z"/></clipPath><clipPath id="clip-path-9"><path class="cls-1" d="M123.54,6.52a7,7,0,0,1,1.73-.16c1.86,0,3.13.79,3.13,2.55,0,1.56-1.19,2.6-3.07,2.6h-1.79Zm-1.75-1.24V18.77h1.75V12.85h1.65c1.59.06,2.32.77,2.72,2.66a18,18,0,0,0,.91,3.27h1.81a22.05,22.05,0,0,1-1-3.75,3.4,3.4,0,0,0-2-2.76V12.2a3.59,3.59,0,0,0,2.56-3.49,3.42,3.42,0,0,0-1.07-2.6A5.54,5.54,0,0,0,125.16,5a18.21,18.21,0,0,0-3.37.28"/></clipPath><clipPath id="clip-path-10"><path class="cls-1" d="M92.84,28.15a4.52,4.52,0,0,0,1.25,3.3,4.66,4.66,0,0,0,3.36,1.17,8.51,8.51,0,0,0,2.76-.49V27.87h-3v.92h1.83v2.64a3.79,3.79,0,0,1-1.54.24,3.27,3.27,0,0,1-3.46-3.57,3.34,3.34,0,0,1,3.61-3.56,4.75,4.75,0,0,1,2,.38l.28-.93a5.61,5.61,0,0,0-2.24-.41c-3,0-4.85,1.93-4.87,4.57"/></clipPath><clipPath id="clip-path-11"><path class="cls-1" d="M103.14,24.58a4.9,4.9,0,0,1,1.15-.1c1.23,0,2.07.51,2.07,1.65s-.79,1.68-2,1.68h-1.18Zm-1.16-.8v8.74h1.16V28.69h1.09c1.05,0,1.53.5,1.8,1.72a11.76,11.76,0,0,0,.6,2.12h1.2a13.79,13.79,0,0,1-.69-2.43,2.22,2.22,0,0,0-1.32-1.79v0A2.33,2.33,0,0,0,107.51,26a2.18,2.18,0,0,0-.71-1.68,3.71,3.71,0,0,0-2.6-.73,12.36,12.36,0,0,0-2.22.18"/></clipPath><clipPath id="clip-path-12"><path class="cls-1" d="M109.48,28.15c0-1.95,1-3.69,2.88-3.69s2.86,1.84,2.86,3.6c0,2-1,3.68-2.88,3.68s-2.87-1.7-2.87-3.59m-1.24,0c0,2.68,1.66,4.5,4,4.5S116.46,31,116.46,28c0-2.63-1.59-4.48-4-4.48s-4.17,1.84-4.17,4.65"/></clipPath><clipPath id="clip-path-13"><path class="cls-1" d="M127.74,23.67h-1.18l-1.19,4.47c-.28,1.1-.53,2.09-.72,3.06h0c-.14-.94-.37-2-.63-3l-1.09-4.49h-1.21l-1.2,4.47c-.31,1.14-.59,2.19-.73,3.08h0c-.16-.85-.4-2-.67-3.06L118,23.67h-1.23l2.28,8.86h1.21l1.28-4.61a27.68,27.68,0,0,0,.69-2.89h0a26.06,26.06,0,0,0,.59,2.89L124,32.52h1.21l2.27-7.89h2.73v7.89h1.17V24.64h2.75v-1Z"/></clipPath><clipPath id="clip-path-14"><path class="cls-1" d="M77.33,24.79a2.67,2.67,0,0,0-.65,2V27h-.79v.78h.79v4.86h1V27.81H79V27H77.69v-.3c0-.86.22-1.63,1.09-1.63a1.57,1.57,0,0,1,.65.13l.14-.79a2.34,2.34,0,0,0-.87-.17,2,2,0,0,0-1.37.53"/></clipPath><clipPath id="clip-path-15"><path class="cls-1" d="M80.48,29.87c0-1.07.52-2.19,1.73-2.19s1.68,1.21,1.68,2.17c0,1.27-.73,2.19-1.7,2.19s-1.7-.93-1.7-2.17m-1,0a2.68,2.68,0,0,0,2.69,2.91,2.75,2.75,0,0,0,2.79-3,2.67,2.67,0,0,0-2.7-2.9,2.75,2.75,0,0,0-2.78,3"/></clipPath><clipPath id="clip-path-16"><path class="cls-1" d="M87.15,28.14h0l0-1.1h-.89c0,.52,0,1.1,0,1.76v3.88h1v-3a2.81,2.81,0,0,1,0-.48A1.4,1.4,0,0,1,89,27.91v-1a1.14,1.14,0,0,0-.29,0,1.69,1.69,0,0,0-1.55,1.24"/></clipPath></defs><title>Asset 12logo</title><g id="Layer_2" data-name="Layer 2"><g id="Layer_1-2" data-name="Layer 1"><polygon class="cls-2" points="8.51 19.99 11.95 23.48 0.05 35.33 4.8 40.15 21.48 23.52 13.29 15.21 8.51 19.99"/><polygon class="cls-2" points="14.55 14.2 23.73 23.52 0 47.18 4.76 52.02 33.3 23.54 19.28 9.32 14.55 14.2"/><polygon class="cls-2" points="25.9 13.76 35.54 23.55 11.77 47.25 16.54 52.07 45.14 23.59 30.67 8.96 25.9 13.76"/><polygon class="cls-2" points="35.65 11.66 47.41 23.62 21 49.92 25.76 54.77 57.03 23.65 40.46 6.84 35.65 11.66"/><polygon class="cls-2" points="41.71 5.79 59.28 23.66 41.41 41.46 46.16 46.33 68.87 23.7 46.55 0.96 41.71 5.79"/><polygon class="cls-2" points="53.26 41.51 58.03 46.38 68.77 35.64 64.01 30.81 53.26 41.51"/><g class="cls-3"><rect class="cls-2" x="70.11" y="32.32" width="16.93" height="20.78"/></g><g class="cls-4"><rect class="cls-2" x="77.38" y="32.4" width="22.99" height="20.7"/></g><g class="cls-5"><rect class="cls-2" x="90.03" y="32.4" width="18.91" height="20.7"/></g><g class="cls-6"><rect class="cls-2" x="100.5" y="32.4" width="17.99" height="20.7"/></g><g class="cls-7"><rect class="cls-2" x="110.89" y="32.32" width="18.73" height="20.88"/></g><g class="cls-8"><rect class="cls-2" x="120.23" y="32.4" width="18.91" height="20.7"/></g><g class="cls-9"><rect class="cls-2" x="68.8" y="0.1" width="26.59" height="23.67"/></g><g class="cls-10"><rect class="cls-2" x="84.95" y="0.1" width="21.37" height="23.67"/></g><polygon class="cls-2" points="100.29 5.1 100.29 6.6 104.43 6.6 104.43 18.77 106.2 18.77 106.2 6.6 110.35 6.6 110.35 5.1 100.29 5.1"/><polygon class="cls-2" points="111.87 5.1 111.87 18.77 119.51 18.77 119.51 17.29 113.62 17.29 113.62 12.36 118.91 12.36 118.91 10.9 113.62 10.9 113.62 6.58 119.21 6.58 119.21 5.1 111.87 5.1"/><g class="cls-11"><rect class="cls-2" x="116.79" width="18.85" height="23.77"/></g><g class="cls-12"><rect class="cls-2" x="87.84" y="18.57" width="17.37" height="19.04"/></g><g class="cls-13"><rect class="cls-2" x="96.98" y="18.6" width="15.85" height="18.92"/></g><g class="cls-14"><rect class="cls-2" x="103.25" y="18.52" width="18.21" height="19.15"/></g><g class="cls-15"><rect class="cls-2" x="111.78" y="18.66" width="27.34" height="18.86"/></g><polygon class="cls-2" points="140.25 23.66 140.25 27.37 135.9 27.37 135.9 23.66 134.74 23.66 134.74 32.52 135.9 32.52 135.9 28.37 140.25 28.37 140.25 32.52 141.42 32.52 141.42 23.66 140.25 23.66"/><g class="cls-16"><rect class="cls-2" x="70.89" y="19.27" width="13.68" height="18.41"/></g><g class="cls-17"><rect class="cls-2" x="74.45" y="21.9" width="15.49" height="15.9"/></g><g class="cls-18"><rect class="cls-2" x="81.18" y="21.9" width="12.82" height="15.77"/></g></g></g></svg>