<svg xmlns="http://www.w3.org/2000/svg" xmlns:xlink="http://www.w3.org/1999/xlink" viewBox="0 0 155.6 61.34"><defs><style>.cls-1{fill:none;}.cls-2{fill:#231f20;}.cls-3{clip-path:url(#clip-path);}.cls-4{clip-path:url(#clip-path-2);}.cls-5{clip-path:url(#clip-path-3);}.cls-6{clip-path:url(#clip-path-4);}.cls-7{clip-path:url(#clip-path-5);}.cls-8{clip-path:url(#clip-path-6);}.cls-9{clip-path:url(#clip-path-7);}.cls-10{clip-path:url(#clip-path-8);}.cls-11{clip-path:url(#clip-path-9);}.cls-12{clip-path:url(#clip-path-10);}</style><clipPath id="clip-path"><path class="cls-1" d="M70.8,50.5c0-2.51,1.23-4.77,3.69-4.77s3.66,2.38,3.66,4.65c0,2.59-1.33,4.75-3.68,4.75S70.8,52.94,70.8,50.5m-1.58,0c0,3.47,2.13,5.81,5.16,5.81s5.33-2.09,5.33-6c0-3.4-2-5.8-5.16-5.8s-5.33,2.38-5.33,6"/></clipPath><clipPath id="clip-path-2"><path class="cls-1" d="M96.8,55V46a8,8,0,0,1,1.74-.16c3.14,0,4.67,1.72,4.66,4.42,0,3.09-1.72,4.86-4.9,4.86A8.64,8.64,0,0,1,96.8,55M95.32,44.86V56.12a24.69,24.69,0,0,0,2.7.13,7.09,7.09,0,0,0,5.08-1.64,6,6,0,0,0,1.65-4.45A5.27,5.27,0,0,0,103.13,46a6.58,6.58,0,0,0-4.65-1.42,21.77,21.77,0,0,0-3.16.24"/></clipPath><clipPath id="clip-path-3"><path class="cls-1" d="M123.6,44.71V49.5c0,1.78,0,3.17.17,4.7l0,0a31.48,31.48,0,0,0-2.06-3.72L118,44.71h-1.62V56.15h1.4V51.27c0-1.91,0-3.28-.12-4.72l.05,0a35.66,35.66,0,0,0,2.15,3.82l3.65,5.81H125V44.71Z"/></clipPath><clipPath id="clip-path-4"><path class="cls-1" d="M129.72,50.5a5.38,5.38,0,0,0,5.9,5.78,10.82,10.82,0,0,0,3.53-.63v-5.5h-3.78v1.19h2.33v3.42a4.85,4.85,0,0,1-2,.31c-2.68,0-4.43-1.72-4.43-4.62a4.29,4.29,0,0,1,4.62-4.6,6,6,0,0,1,2.54.49l.36-1.21a7.23,7.23,0,0,0-2.86-.53c-3.86,0-6.21,2.5-6.22,5.91"/></clipPath><clipPath id="clip-path-5"><path class="cls-1" d="M143.89,47.63c0,1.62,1.16,2.58,3,3.24,1.55.59,2.16,1.2,2.16,2.28s-.89,1.95-2.4,1.95a5.28,5.28,0,0,1-2.66-.74l-.37,1.24a5.89,5.89,0,0,0,2.93.74c2.71,0,4-1.54,4-3.3s-1-2.61-2.93-3.37c-1.58-.6-2.28-1.14-2.28-2.21,0-.78.6-1.71,2.16-1.71a4.66,4.66,0,0,1,2.18.54l.41-1.2a5.15,5.15,0,0,0-2.54-.56c-2.23,0-3.71,1.33-3.71,3.11"/></clipPath><clipPath id="clip-path-6"><path class="cls-1" d="M32,5v.46s2.29-.22,2.13,1.73v23.1L10.9,5H5v.49l1.34,0S9,5.2,9.19,10.22V34.66s.16,1.9-1.47,1.79h-.9v.44H13v-.44s-2.5.22-2.19-1.52V10.35L35.53,37.28V7.12s0-1.92,2.39-1.73V5Z"/></clipPath><clipPath id="clip-path-7"><path class="cls-1" d="M53.39,5.4a18,18,0,0,0-14.11,8.41,15.45,15.45,0,0,0-.54,14.72C44.48,38.78,54.31,38,54.31,38H68v-.4h-.82c-1.53-.1-1.36-1.95-1.36-1.95V28.8a1.5,1.5,0,0,1,1.38-1.62h.88v-.46H59.78l0,.46h.76c1.64.25,1.45,1.6,1.45,1.6V35c.07,1.57-1.16,1.7-1.16,1.7-.67.56-6.1.34-6.1.34-11.17-.38-13.26-9.37-13.26-9.37a19.6,19.6,0,0,1,.66-12.58c3.6-8.9,11.3-8.8,11.3-8.8,8.53-.59,11.9,4.91,11.9,4.91l.47,0L64.5,7.55a23,23,0,0,0-9.83-2.2c-.81,0-1.28,0-1.28,0"/></clipPath><clipPath id="clip-path-8"><path class="cls-1" d="M77.43,26.2h0Zm.14-.13h0a.08.08,0,0,0,0,0h0l4.79-4.47,3-2.91.17-.09L86.83,22l0,.35-1.79,1.93,0,0s0,0,0,0l0,.06h0a.26.26,0,0,0-.05.08l0,0,0,0a.27.27,0,0,1-.08.08.22.22,0,0,1-.08.07h0l-.05,0h0l0,0,0,0h0c-1.86,1.08-3.94,2.37-4,2.37s-2.85-1-3-1.08m7.93-7.54h0Zm-2.55-6.68,2.48,6.5h0l0,0-.08,0-.29.17-6.1,3.59ZM83.79,6S72.72,34.28,72.36,35.35a2.78,2.78,0,0,1-1.42,1.54H70v.47l4.63-.13V36.9s.17,0-.61-.06-.2-1.45-.2-1.45l3.65-9.17L80.54,29l.07.12,4.07-4.26,0,0s0,0,0,0h0l0,0,.05,0a.23.23,0,0,1,.12-.08.13.13,0,0,1,.06,0l.05,0,2.33-1.35,4.78,12.18c.54,1.59-.47,1.49-.47,1.49l-.33,0v.47h7.15v-.54h-.67c-1.43,0-2.26-2.33-2.26-2.33L84.36,6Z"/></clipPath><clipPath id="clip-path-9"><path class="cls-1" d="M99.47,5.19v.39l.22.08h.3c2,0,1.78,1.44,1.78,1.44V35c-.08,1.63-1,1.57-1,1.57h-.37l-.18.11h-.7v.48H121v-7.8h-.34v1.08L120.12,33c-.53,2.61-3.62,3-3.62,3h-6.12c-5.46,0-4.89-4.7-4.89-4.7V7.71c-.17-2.35,1.66-2,1.66-2h.74V5.19Z"/></clipPath><clipPath id="clip-path-10"><path class="cls-1" d="M123.55,5v.35h1.08a1.64,1.64,0,0,1,1.24,1.76c0,1.56.05,27.55.05,27.55s.17,1.93-1.48,2l-.9,0v.39H132v-.35h-.76s0,0-.05-.06,0,0,0,0V36.6h-.48s-1.12-.09-1.08-1.77l0-1.14V8.2s0-1.29.08-1.41-.12-1.35,1.64-1.41l.75,0V5Z"/></clipPath></defs><title>Asset 18logo</title><g id="Layer_2" data-name="Layer 2"><g id="Layer_1-2" data-name="Layer 1"><polygon class="cls-2" points="63.01 44.71 63.01 49.5 57.46 49.5 57.46 44.71 55.97 44.71 55.97 56.15 57.46 56.15 57.46 50.79 63.01 50.79 63.01 56.15 64.51 56.15 64.51 44.71 63.01 44.71"/><g class="cls-3"><rect class="cls-2" x="64.22" y="39.52" width="20.5" height="21.82"/></g><polygon class="cls-2" points="84.46 44.71 84.46 56.15 90.85 56.15 90.85 54.91 85.94 54.91 85.94 44.71 84.46 44.71"/><g class="cls-4"><rect class="cls-2" x="90.32" y="39.62" width="19.43" height="21.63"/></g><rect class="cls-2" x="109.49" y="44.71" width="1.48" height="11.44"/><g class="cls-5"><rect class="cls-2" x="111.37" y="39.71" width="18.63" height="21.44"/></g><g class="cls-6"><rect class="cls-2" x="124.73" y="39.59" width="19.42" height="21.69"/></g><g class="cls-7"><rect class="cls-2" x="138.65" y="39.52" width="16.95" height="21.81"/></g><g class="cls-8"><rect class="cls-2" width="42.92" height="42.27"/></g><g class="cls-9"><rect class="cls-2" x="32.12" y="0.35" width="40.97" height="42.64"/></g><g class="cls-10"><rect class="cls-2" x="64.97" y="1.01" width="38.56" height="41.35"/></g><g class="cls-11"><rect class="cls-2" x="94.47" y="0.19" width="31.52" height="41.94"/></g><g class="cls-12"><rect class="cls-2" x="118.55" width="18.47" height="42.08"/></g></g></g></svg>