<svg xmlns="http://www.w3.org/2000/svg" xmlns:xlink="http://www.w3.org/1999/xlink" viewBox="0 0 202.39 54.85"><defs><style>.cls-1{fill:none;}.cls-2{clip-path:url(#clip-path);}.cls-3{fill:#231f20;}.cls-4{clip-path:url(#clip-path-2);}.cls-5{clip-path:url(#clip-path-3);}.cls-6{clip-path:url(#clip-path-4);}.cls-7{clip-path:url(#clip-path-5);}.cls-8{clip-path:url(#clip-path-6);}.cls-9{clip-path:url(#clip-path-7);}.cls-10{clip-path:url(#clip-path-8);}.cls-11{clip-path:url(#clip-path-9);}.cls-12{clip-path:url(#clip-path-10);}.cls-13{clip-path:url(#clip-path-11);}.cls-14{clip-path:url(#clip-path-12);}.cls-15{clip-path:url(#clip-path-13);}.cls-16{clip-path:url(#clip-path-14);}.cls-17{clip-path:url(#clip-path-15);}.cls-18{clip-path:url(#clip-path-16);}.cls-19{clip-path:url(#clip-path-17);}.cls-20{clip-path:url(#clip-path-18);}.cls-21{clip-path:url(#clip-path-19);}.cls-22{clip-path:url(#clip-path-20);}.cls-23{clip-path:url(#clip-path-21);}.cls-24{clip-path:url(#clip-path-22);}</style><clipPath id="clip-path"><path class="cls-1" d="M64,39.86c0,1.31.93,2.1,2.44,2.64,1.24.49,1.74,1,1.74,1.85s-.71,1.59-1.93,1.59a4.18,4.18,0,0,1-2.14-.61l-.3,1a4.68,4.68,0,0,0,2.35.6c2.18,0,3.23-1.24,3.23-2.68s-.79-2.13-2.35-2.74c-1.27-.5-1.83-.93-1.83-1.8,0-.63.48-1.4,1.74-1.4a3.68,3.68,0,0,1,1.75.44l.33-1a4.18,4.18,0,0,0-2-.45c-1.79,0-3,1.08-3,2.53"/></clipPath><clipPath id="clip-path-2"><path class="cls-1" d="M73.55,40.83a1.72,1.72,0,0,1,1.67,2H71.7a2,2,0,0,1,1.85-2m-3,2.74a3.09,3.09,0,0,0,3.26,3.38,5.26,5.26,0,0,0,2.2-.42l-.2-.87A4.37,4.37,0,0,1,74,46a2.13,2.13,0,0,1-2.27-2.32h4.66a4.57,4.57,0,0,0,0-.57c0-1.23-.57-3.15-2.73-3.15-1.93,0-3.11,1.59-3.11,3.61"/></clipPath><clipPath id="clip-path-3"><path class="cls-1" d="M77.4,43.52a3.16,3.16,0,0,0,3.3,3.42,4.44,4.44,0,0,0,1.91-.39l-.21-.92a3.37,3.37,0,0,1-1.48.33,2.29,2.29,0,0,1-2.3-2.5A2.31,2.31,0,0,1,81,40.94a2.74,2.74,0,0,1,1.4.32l.28-.94A4,4,0,0,0,81,40a3.38,3.38,0,0,0-3.55,3.55"/></clipPath><clipPath id="clip-path-4"><path class="cls-1" d="M88.36,40.11v4.11a1.72,1.72,0,0,1-1.7,1.73c-1.1,0-1.48-.86-1.48-2.13V40.11H84V44C84,46.37,85.22,47,86.26,47a2.5,2.5,0,0,0,2.2-1.24h0l.07,1.09h1.07c0-.53-.06-1.13-.06-1.83V40.11Z"/></clipPath><clipPath id="clip-path-5"><path class="cls-1" d="M92.66,41.42H92.6l0-1.31H91.51c0,.62.06,1.3.06,2.09v4.6h1.19V43.23a3.22,3.22,0,0,1,.06-.56,1.65,1.65,0,0,1,2-1.52V40a1.24,1.24,0,0,0-.34,0,2,2,0,0,0-1.84,1.47"/></clipPath><clipPath id="clip-path-6"><path class="cls-1" d="M98.43,40.83a1.73,1.73,0,0,1,1.67,2H96.59a2,2,0,0,1,1.85-2m-3,2.74a3.1,3.1,0,0,0,3.26,3.38,5.26,5.26,0,0,0,2.2-.42l-.2-.87a4.37,4.37,0,0,1-1.84.34,2.13,2.13,0,0,1-2.27-2.32h4.66a4.66,4.66,0,0,0,0-.57c0-1.23-.58-3.15-2.74-3.15-1.93,0-3.11,1.59-3.11,3.61"/></clipPath><clipPath id="clip-path-7"><path class="cls-1" d="M105.94,38.5v1.6h-1V41h1v3.65a2.49,2.49,0,0,0,.47,1.74,1.67,1.67,0,0,0,1.3.51,2.85,2.85,0,0,0,1.07-.17l-.05-.91a2.59,2.59,0,0,1-.7.08c-.67,0-.9-.47-.9-1.3V41h1.72v-.93h-1.72V38.19Z"/></clipPath><clipPath id="clip-path-8"><path class="cls-1" d="M110.85,43.47c0-1.27.62-2.6,2-2.6s2,1.44,2,2.57c0,1.51-.86,2.6-2,2.6s-2-1.11-2-2.57m-1.22,0A3.17,3.17,0,0,0,112.81,47a3.26,3.26,0,0,0,3.3-3.55A3.16,3.16,0,0,0,112.92,40a3.25,3.25,0,0,0-3.29,3.55"/></clipPath><clipPath id="clip-path-9"><path class="cls-1" d="M123.45,40.42a2.81,2.81,0,0,0-.74.87h0A2,2,0,0,0,120.81,40a2.28,2.28,0,0,0-2.08,1.23h0l-.05-1.08h-1.05c0,.55.06,1.12.06,1.81V46.8h1.17v-4a1.68,1.68,0,0,1,.1-.59A1.65,1.65,0,0,1,120.4,41c.92,0,1.38.77,1.38,1.84v4H123V42.67a2.12,2.12,0,0,1,.1-.61A1.57,1.57,0,0,1,124.48,41c1,0,1.44.77,1.44,2.06V46.8h1.18V42.86c0-2.32-1.3-2.9-2.18-2.9a2.26,2.26,0,0,0-1.46.47"/></clipPath><clipPath id="clip-path-10"><path class="cls-1" d="M129.79,43.47c0-1.27.62-2.6,2-2.6s2,1.44,2,2.57c0,1.51-.87,2.6-2,2.6s-2-1.11-2-2.57m-1.22,0A3.17,3.17,0,0,0,131.75,47a3.26,3.26,0,0,0,3.3-3.55A3.15,3.15,0,0,0,131.86,40a3.25,3.25,0,0,0-3.28,3.55"/></clipPath><clipPath id="clip-path-11"><path class="cls-1" d="M137.67,41.42h-.05l0-1.31h-1.05c0,.62.05,1.3.05,2.09v4.6h1.19V43.23a3.31,3.31,0,0,1,.06-.56,1.65,1.65,0,0,1,2-1.52V40a1.19,1.19,0,0,0-.34,0,2,2,0,0,0-1.84,1.47"/></clipPath><clipPath id="clip-path-12"><path class="cls-1" d="M142.2,41.42h-.05l0-1.31H141c0,.62.05,1.3.05,2.09v4.6h1.19V43.23a3.05,3.05,0,0,1,.05-.56,1.65,1.65,0,0,1,2-1.52V40a1.22,1.22,0,0,0-.34,0,2,2,0,0,0-1.83,1.47"/></clipPath><clipPath id="clip-path-13"><path class="cls-1" d="M146.18,43.47c0-1.27.62-2.6,2-2.6s2,1.44,2,2.57c0,1.51-.86,2.6-2,2.6s-2-1.11-2-2.57m-1.22,0A3.17,3.17,0,0,0,148.14,47a3.26,3.26,0,0,0,3.3-3.55A3.16,3.16,0,0,0,148.25,40,3.25,3.25,0,0,0,145,43.51"/></clipPath><clipPath id="clip-path-14"><path class="cls-1" d="M160.55,40.11l-.95,3.36a21.15,21.15,0,0,0-.51,2.17h0c-.15-.68-.34-1.38-.59-2.18l-1-3.35h-1l-1.08,3.42c-.22.72-.44,1.44-.59,2.11h0c-.12-.69-.3-1.38-.49-2.13l-.87-3.4h-1.23l2,6.69h1.1l1.07-3.18a19,19,0,0,0,.6-2.21h0a22.4,22.4,0,0,0,.59,2.2l1,3.2h1.1l2.14-6.69Z"/></clipPath><clipPath id="clip-path-15"><path class="cls-1" d="M166.13,38.5v1.6h-1V41h1v3.65a2.49,2.49,0,0,0,.46,1.74,1.67,1.67,0,0,0,1.3.51,2.88,2.88,0,0,0,1.07-.17l-.06-.91a2.57,2.57,0,0,1-.7.08c-.67,0-.91-.47-.91-1.3V41H169v-.93H167.3V38.19Z"/></clipPath><clipPath id="clip-path-16"><path class="cls-1" d="M171,43.47c0-1.27.61-2.6,2-2.6s2,1.44,2,2.57c0,1.51-.86,2.6-2,2.6s-2-1.11-2-2.57m-1.22,0A3.17,3.17,0,0,0,173,47a3.25,3.25,0,0,0,3.3-3.55A3.15,3.15,0,0,0,173.11,40a3.25,3.25,0,0,0-3.29,3.55"/></clipPath><clipPath id="clip-path-17"><path class="cls-1" d="M178.55,43.5c0-1.48.74-2.59,2-2.59a1.78,1.78,0,0,1,1.74,1.41,2.19,2.19,0,0,1,.05.51V44a2.21,2.21,0,0,1-.05.53A1.82,1.82,0,0,1,180.52,46c-1.3,0-2-1.12-2-2.47M182.33,37v4h0a2.21,2.21,0,0,0-2-1c-1.62,0-3,1.37-3,3.59,0,2,1.23,3.4,2.83,3.4a2.45,2.45,0,0,0,2.26-1.32h0l.06,1.16h1.08c0-.46-.05-1.13-.05-1.73V37Z"/></clipPath><clipPath id="clip-path-18"><path class="cls-1" d="M186.22,44.89c0-1.3,1.49-1.54,2.81-1.51v1.16a1.12,1.12,0,0,1-.07.39,1.65,1.65,0,0,1-1.6,1.12,1.07,1.07,0,0,1-1.14-1.16m-.72-4.34.27.8a3.27,3.27,0,0,1,1.73-.5A1.38,1.38,0,0,1,189,42.41v.14c-2.56,0-4,.87-4,2.49A1.9,1.9,0,0,0,187,47a2.46,2.46,0,0,0,2-1h0l.1.84h1.1a9.65,9.65,0,0,1-.11-1.6V42.69c0-1.34-.49-2.73-2.52-2.73a4.07,4.07,0,0,0-2.18.59"/></clipPath><clipPath id="clip-path-19"><path class="cls-1" d="M196.11,40.11,194.8,44c-.17.48-.31,1-.43,1.4h0c-.11-.4-.27-.93-.42-1.37l-1.45-4h-1.31l2.45,6.17a1.09,1.09,0,0,1,.09.32.87.87,0,0,1-.1.29,3.64,3.64,0,0,1-1,1.36,3.19,3.19,0,0,1-1.05.59l.3,1a3.24,3.24,0,0,0,1.48-.79c.82-.72,1.41-1.89,2.27-4.19l1.81-4.77Z"/></clipPath><clipPath id="clip-path-20"><path class="cls-1" d="M69.94,18.12a4.94,4.94,0,0,1-1-.15V9.23h2.58a5.14,5.14,0,0,1,3.65,1.19,4.11,4.11,0,0,1,1.26,3.16A4.25,4.25,0,0,1,75.08,17a5.82,5.82,0,0,1-3.89,1.17c-.39,0-.8,0-1.24-.05m-6.26-13V30.7h5.25V22.3h2.24A11.94,11.94,0,0,0,79,19.83a8.13,8.13,0,0,0,3-6.62,7.39,7.39,0,0,0-2.63-6.06Q76.78,5,72,5Z"/></clipPath><clipPath id="clip-path-21"><path class="cls-1" d="M96.31,16.55V9.08h2.24a5.89,5.89,0,0,1,3.53.91,3.06,3.06,0,0,1,1.24,2.63,3.73,3.73,0,0,1-1.24,2.92,4.83,4.83,0,0,1-3.34,1.11ZM95.56,5.1q-2,0-4.5,0V30.7h5.25V20.19h.25l7.25,10.52,6.51,0L104,22.14l-2-2.74A8.75,8.75,0,0,0,107,17a6.68,6.68,0,0,0,1.89-4.91,6.11,6.11,0,0,0-2.48-5.29Q103.91,5,99.33,5l-3.77.1"/></clipPath><clipPath id="clip-path-22"><path class="cls-1" d="M162.05,5.1l-4.87,14.54c-.33,1-.58,1.74-.76,2.38s-.39,1.4-.62,2.28c-.1-.52-.29-1.33-.58-2.41s-.51-1.88-.67-2.41L149.84,5.1h-6.57l-3.89,25.6h5.22l1.68-13.07q.2-1.6.41-3.24c.15-1.09.23-2.08.26-3,.2.94.42,1.86.67,2.79s.55,1.95.92,3l4.29,13.43h5.52l4.79-14.44c.19-.66.41-1.46.66-2.4s.47-1.74.63-2.4l.73,5.89L167.1,30.7h5.51l-3.8-25.6Z"/></clipPath></defs><title>Asset 13logo</title><g id="Layer_2" data-name="Layer 2"><g id="Layer_1-2" data-name="Layer 1"><g class="cls-2"><rect class="cls-3" x="58.77" y="32.33" width="15.58" height="19.61"/></g><g class="cls-4"><rect class="cls-3" x="65.54" y="34.96" width="15.84" height="16.98"/></g><g class="cls-5"><rect class="cls-3" x="72.4" y="34.97" width="15.23" height="16.97"/></g><g class="cls-6"><rect class="cls-3" x="78.97" y="35.11" width="15.64" height="16.84"/></g><g class="cls-7"><rect class="cls-3" x="86.51" y="34.96" width="13.33" height="16.84"/></g><g class="cls-8"><rect class="cls-3" x="90.42" y="34.96" width="15.85" height="16.98"/></g><g class="cls-9"><rect class="cls-3" x="99.91" y="33.19" width="13.93" height="18.75"/></g><g class="cls-10"><rect class="cls-3" x="104.64" y="34.96" width="16.48" height="17"/></g><g class="cls-11"><rect class="cls-3" x="112.58" y="34.96" width="19.52" height="16.84"/></g><g class="cls-12"><rect class="cls-3" x="123.58" y="34.96" width="16.48" height="17"/></g><g class="cls-13"><rect class="cls-3" x="131.52" y="34.96" width="13.33" height="16.84"/></g><g class="cls-14"><rect class="cls-3" x="136.05" y="34.96" width="13.33" height="16.84"/></g><g class="cls-15"><rect class="cls-3" x="139.97" y="34.96" width="16.48" height="17"/></g><g class="cls-16"><rect class="cls-3" x="147.11" y="35.11" width="19.63" height="16.69"/></g><g class="cls-17"><rect class="cls-3" x="160.09" y="33.19" width="13.93" height="18.75"/></g><g class="cls-18"><rect class="cls-3" x="164.82" y="34.96" width="16.48" height="17"/></g><g class="cls-19"><rect class="cls-3" x="172.34" y="31.98" width="16.26" height="19.97"/></g><g class="cls-20"><rect class="cls-3" x="180.02" y="34.96" width="15.29" height="17"/></g><g class="cls-21"><rect class="cls-3" x="186.16" y="35.11" width="16.23" height="19.75"/></g><polygon class="cls-3" points="182.23 5.05 182.23 30.65 197.12 30.65 197.12 26.43 187.49 26.43 187.49 19.6 197.06 19.6 197.06 15.57 187.49 15.57 187.49 9.22 197.12 9.22 197.12 5.05 182.23 5.05"/><g class="cls-22"><rect class="cls-3" x="58.69" width="28.35" height="35.7"/></g><g class="cls-23"><rect class="cls-3" x="86.06" width="29.26" height="35.7"/></g><g class="cls-24"><rect class="cls-3" x="134.38" y="0.1" width="43.24" height="35.6"/></g><polygon class="cls-3" points="122.77 5.1 122.77 5.12 122.75 5.12 122.75 9.43 122.77 9.43 122.77 30.7 128.03 30.7 128.03 5.1 122.77 5.1"/><path class="cls-3" d="M23.3,12.89h7.34l-9.9,27H13.4Zm13.74,0h7.34L37.37,32H30ZM14.67,5,0,46.66H41.82L56.49,5Z"/></g></g></svg>