<svg xmlns="http://www.w3.org/2000/svg" xmlns:xlink="http://www.w3.org/1999/xlink" viewBox="0 0 119.78 87.49"><defs><style>.cls-1{fill:none;}.cls-2{fill:#7c7e80;}.cls-3{fill:#231f20;}.cls-4{fill:#d0d2d3;}.cls-5{fill:#a6a8ab;}.cls-6{fill:#808184;}.cls-7{clip-path:url(#clip-path);}.cls-8{clip-path:url(#clip-path-2);}.cls-9{clip-path:url(#clip-path-3);}.cls-10{clip-path:url(#clip-path-4);}.cls-11{clip-path:url(#clip-path-5);}.cls-12{clip-path:url(#clip-path-6);}.cls-13{clip-path:url(#clip-path-7);}</style><clipPath id="clip-path"><path class="cls-1" d="M7.91,66.26h1.4c1,0,1.48.59,1.48,1.92V70c0,1.49-.66,2-1.75,2H7.91ZM5,63.59V82.25H7.91V74.66h1c1.33,0,1.91.63,1.91,2.37V80a5.8,5.8,0,0,0,.26,2.29h3A5.46,5.46,0,0,1,13.75,80V77.1c0-1.94-.48-3.36-1.94-4,1.3-.61,1.91-1.87,1.91-3.79V67.88c0-2.88-1.3-4.29-4.32-4.29Z"/></clipPath><clipPath id="clip-path-2"><path class="cls-1" d="M40.83,78V67.88c0-1.33.58-1.84,1.51-1.84s1.51.5,1.51,1.84V78c0,1.33-.58,1.84-1.51,1.84s-1.51-.51-1.51-1.84m-2.91-9.89v9.7c0,3,1.56,4.69,4.42,4.69s4.43-1.7,4.43-4.69v-9.7c0-3-1.56-4.69-4.43-4.69s-4.42,1.71-4.42,4.69"/></clipPath><clipPath id="clip-path-3"><path class="cls-1" d="M66,68.07v9.7c0,3,1.48,4.69,4.35,4.69s4.35-1.7,4.35-4.69V71.85H70.62v2.66h1.32V78c0,1.33-.58,1.81-1.51,1.81s-1.51-.48-1.51-1.81V67.88c0-1.33.58-1.84,1.51-1.84s1.51.51,1.51,1.84v2h2.76V68.07c0-3-1.48-4.69-4.35-4.69S66,65.09,66,68.07"/></clipPath><clipPath id="clip-path-4"><path class="cls-1" d="M79,66.26h1.4c1,0,1.48.59,1.48,1.92V70c0,1.49-.66,2-1.75,2H79ZM76,63.59V82.25H79V74.66h1c1.33,0,1.91.63,1.91,2.37V80a5.84,5.84,0,0,0,.26,2.29h3A5.48,5.48,0,0,1,84.79,80V77.1c0-1.94-.48-3.36-1.94-4,1.3-.61,1.91-1.87,1.91-3.78V67.88c0-2.87-1.3-4.29-4.32-4.29Z"/></clipPath><clipPath id="clip-path-5"><path class="cls-1" d="M88.84,78V67.88c0-1.33.58-1.84,1.51-1.84s1.51.5,1.51,1.84V78c0,1.33-.58,1.84-1.51,1.84s-1.51-.51-1.51-1.84m-2.92-9.89v9.7c0,3,1.56,4.69,4.43,4.69s4.42-1.7,4.42-4.69v-9.7c0-3-1.56-4.69-4.42-4.69s-4.43,1.71-4.43,4.69"/></clipPath><clipPath id="clip-path-6"><path class="cls-1" d="M101.93,63.59V78c0,1.33-.58,1.8-1.51,1.8s-1.51-.48-1.51-1.8V63.59H96V77.8c0,3,1.48,4.69,4.35,4.69s4.35-1.71,4.35-4.69V63.59Z"/></clipPath><clipPath id="clip-path-7"><path class="cls-1" d="M109.06,66.26h1.38c.93,0,1.43.43,1.43,1.76v2.8c0,1.33-.5,1.76-1.43,1.76h-1.38Zm-2.92-2.66V82.25h2.92v-7h1.38c2.92,0,4.35-1.62,4.35-4.61V68.2c0-3-1.43-4.61-4.35-4.61Z"/></clipPath></defs><title>Asset 9logo</title><g id="Layer_2" data-name="Layer 2"><g id="Layer_1-2" data-name="Layer 1"><polygon class="cls-2" points="58.55 14.03 58.55 43 67.74 28.49 85.78 0 58.55 14.03"/><polygon class="cls-3" points="58.55 43 85.78 56.57 67.74 28.49 58.55 43"/><polygon class="cls-4" points="31.77 0 58.55 14.03 85.78 0 31.77 0"/><polygon class="cls-5" points="31.77 56.58 58.55 43 58.55 14.03 31.77 56.58"/><polygon class="cls-3" points="49.45 28.49 58.55 14.03 31.77 0 49.45 28.49"/><polygon class="cls-6" points="31.77 56.58 85.78 56.58 58.55 43 31.77 56.58"/><g class="cls-7"><rect class="cls-3" y="58.59" width="19.07" height="28.66"/></g><polygon class="cls-3" points="15.12 63.59 15.12 82.25 23.07 82.25 23.07 79.58 18.04 79.58 18.04 74.12 22.04 74.12 22.04 71.46 18.04 71.46 18.04 66.26 23.07 66.26 23.07 63.59 15.12 63.59"/><polygon class="cls-3" points="32.51 63.59 30.52 76.84 28.37 63.59 24.32 63.59 24.32 82.25 26.86 82.25 26.86 69.06 29.04 82.25 31.79 82.25 33.81 68.87 33.81 82.25 36.56 82.25 36.56 63.59 32.51 63.59"/><g class="cls-8"><rect class="cls-3" x="32.91" y="58.38" width="18.85" height="29.08"/></g><polygon class="cls-3" points="47.27 63.59 47.27 66.26 50.31 66.26 50.31 82.25 53.23 82.25 53.23 66.26 56.28 66.26 56.28 63.59 47.27 63.59"/><polygon class="cls-3" points="57.02 63.59 57.02 82.25 64.97 82.25 64.97 79.58 59.93 79.58 59.93 74.12 63.94 74.12 63.94 71.46 59.93 71.46 59.93 66.26 64.97 66.26 64.97 63.59 57.02 63.59"/><g class="cls-9"><rect class="cls-3" x="61" y="58.38" width="18.69" height="29.08"/></g><g class="cls-10"><rect class="cls-3" x="71.04" y="58.59" width="19.07" height="28.66"/></g><g class="cls-11"><rect class="cls-3" x="80.93" y="58.38" width="18.85" height="29.08"/></g><g class="cls-12"><rect class="cls-3" x="91" y="58.59" width="18.69" height="28.9"/></g><g class="cls-13"><rect class="cls-3" x="101.14" y="58.59" width="18.64" height="28.66"/></g></g></g></svg>