<svg xmlns="http://www.w3.org/2000/svg" xmlns:xlink="http://www.w3.org/1999/xlink" viewBox="0 0 195.8 52.82"><defs><style>.cls-1{fill:none;}.cls-2{clip-path:url(#clip-path);}.cls-3{fill:#231f20;}.cls-4{clip-path:url(#clip-path-2);}.cls-5{clip-path:url(#clip-path-3);}.cls-6{clip-path:url(#clip-path-4);}.cls-7{clip-path:url(#clip-path-5);}.cls-8{clip-path:url(#clip-path-6);}.cls-9{clip-path:url(#clip-path-7);}.cls-10{clip-path:url(#clip-path-8);}.cls-11{clip-path:url(#clip-path-9);}.cls-12{clip-path:url(#clip-path-10);}.cls-13{clip-path:url(#clip-path-11);}.cls-14{clip-path:url(#clip-path-12);}.cls-15{clip-path:url(#clip-path-13);}.cls-16{clip-path:url(#clip-path-14);}.cls-17{clip-path:url(#clip-path-15);}.cls-18{clip-path:url(#clip-path-16);}.cls-19{clip-path:url(#clip-path-17);}.cls-20{clip-path:url(#clip-path-18);}.cls-21{clip-path:url(#clip-path-19);}.cls-22{clip-path:url(#clip-path-20);}.cls-23{clip-path:url(#clip-path-21);}.cls-24{clip-path:url(#clip-path-22);}.cls-25{clip-path:url(#clip-path-23);}.cls-26{clip-path:url(#clip-path-24);}.cls-27{clip-path:url(#clip-path-25);}.cls-28{clip-path:url(#clip-path-26);}.cls-29{clip-path:url(#clip-path-27);}.cls-30{clip-path:url(#clip-path-28);}.cls-31{clip-path:url(#clip-path-29);}.cls-32{clip-path:url(#clip-path-30);}.cls-33{clip-path:url(#clip-path-31);}.cls-34{clip-path:url(#clip-path-32);}.cls-35{clip-path:url(#clip-path-33);}.cls-36{clip-path:url(#clip-path-34);}.cls-37{clip-path:url(#clip-path-35);}.cls-38{clip-path:url(#clip-path-36);}.cls-39{clip-path:url(#clip-path-37);}.cls-40{clip-path:url(#clip-path-38);}.cls-41{clip-path:url(#clip-path-39);}.cls-42{fill:#fefefe;}.cls-43{clip-path:url(#clip-path-40);}.cls-44{clip-path:url(#clip-path-41);}</style><clipPath id="clip-path"><path class="cls-1" d="M74,26.14l1.35-5.65a5.27,5.27,0,0,1,1.21-.11,5.52,5.52,0,0,1,2.62.54,1.88,1.88,0,0,1,1.1,1.73,3,3,0,0,1-1.49,2.6,7.14,7.14,0,0,1-3.89,1,7.06,7.06,0,0,1-.91-.06m-2.76-7a1,1,0,0,1,.49.86,2.44,2.44,0,0,1-.06.56l-3.06,13.1a2.09,2.09,0,0,1-1.1,1.42H72.7A1.51,1.51,0,0,1,72.26,34a2.72,2.72,0,0,1,.08-.64l1.38-5.86a3.83,3.83,0,0,1,2.48.69,11.73,11.73,0,0,1,2.15,3.15,15.14,15.14,0,0,0,2.08,3.24,2.86,2.86,0,0,0,2,.63,19.2,19.2,0,0,0,3-.23,3.3,3.3,0,0,1-1.82-1,19.41,19.41,0,0,1-2.07-3.35A10.29,10.29,0,0,0,80,28.3,3.87,3.87,0,0,0,77.64,27a11.2,11.2,0,0,0,4.44-1.41,3.72,3.72,0,0,0,2.15-3.19,2.62,2.62,0,0,0-1.65-2.33,11.24,11.24,0,0,0-5.16-1Z"/></clipPath><clipPath id="clip-path-2"><path class="cls-1" d="M102.72,24a.31.31,0,0,1,.17.3,4.17,4.17,0,0,1-.72,1.69l-3.26,5.4L97.56,24H96l-4.83,7.43-.61-5.63a8.2,8.2,0,0,1-.05-.86,1,1,0,0,1,.52-.94H87a1.49,1.49,0,0,1,.48.73,11.72,11.72,0,0,1,.26,1.63l1,8.74h1.85l4.77-7.37,1.32,7.37h1.91l5.16-8.58a8.22,8.22,0,0,1,2-2.51Z"/></clipPath><clipPath id="clip-path-3"><path class="cls-1" d="M108.63,31.24a8,8,0,0,1,1.08-4,4,4,0,0,1,3.48-2.33,2.53,2.53,0,0,1,2,.88L113.79,32a5.43,5.43,0,0,1-1.35,1,3.33,3.33,0,0,1-1.6.49q-2.21,0-2.21-2.33m-1.46-5A7.14,7.14,0,0,0,105,31.19a4.28,4.28,0,0,0,1,3,4.24,4.24,0,0,0,3.23,1.22,6.18,6.18,0,0,0,4-1.41v.47q0,.54.66.68a5.83,5.83,0,0,0,1.27.09,16.29,16.29,0,0,0,2.4-.19c-.73-.15-1.1-.43-1.1-.86a4.38,4.38,0,0,1,.14-.86L118.84,24h-1.6l-1.1.47a4.74,4.74,0,0,0-2.84-.83,8.06,8.06,0,0,0-6.13,2.66"/></clipPath><clipPath id="clip-path-4"><path class="cls-1" d="M128.63,24.08a9.35,9.35,0,0,0-2,1L126.9,24h-4c.35.11.53.45.53,1a3,3,0,0,1-.08.69l-1.74,7.58a2.74,2.74,0,0,1-1.19,1.82h4.64a1.06,1.06,0,0,1-.47-.86,5.41,5.41,0,0,1,.16-1L126.18,27a5.73,5.73,0,0,1,3.39-1.52c.9,0,1.35.34,1.35,1a6.82,6.82,0,0,1-.2,1.29l-1.27,5.5a8,8,0,0,0-.22,1.18q0,.79,1.35.79a20.46,20.46,0,0,0,3-.19c-.75-.14-1.13-.42-1.13-.86a3.69,3.69,0,0,1,.11-.81l1.33-5.7a8.63,8.63,0,0,0,.27-1.71q0-2.38-3.2-2.38a6.89,6.89,0,0,0-2.32.47"/></clipPath><clipPath id="clip-path-5"><path class="cls-1" d="M139.81,31.24a7.8,7.8,0,0,1,1.13-4,4,4,0,0,1,3.45-2.25,2.35,2.35,0,0,1,2,.88l-1.46,6.27A4.08,4.08,0,0,1,142,33.57q-2.21,0-2.21-2.33m7.48-12.57a1,1,0,0,1,.52.94,4.08,4.08,0,0,1-.14.81l-.91,3.77a4.34,4.34,0,0,0-2.35-.58,8,8,0,0,0-6,2.57,7.11,7.11,0,0,0-2.26,5,4.22,4.22,0,0,0,1,3,4.27,4.27,0,0,0,3.32,1.24,6.37,6.37,0,0,0,4-1.41,1.75,1.75,0,0,0-.08.47.65.65,0,0,0,.5.64,6,6,0,0,0,1.49.13,16,16,0,0,0,2.35-.19c-.72-.17-1.08-.46-1.08-.88a4.76,4.76,0,0,1,.14-1l3.34-14.47Z"/></clipPath><clipPath id="clip-path-6"><path class="cls-1" d="M157.89,28.37l4.8-6.53,1.66,6.51q-2.1.1-3.15.13-2.43,0-3.31-.1m3.67-9.23c.26.07.39.19.39.36a1.5,1.5,0,0,1-.36.77L151.9,33.42a6.12,6.12,0,0,1-1.6,1.65h3.42c-.22-.1-.33-.21-.33-.35a2.58,2.58,0,0,1,.58-1.07l2.79-3.77q1.68-.13,4.19-.13,2.18,0,3.67.13l1,3.85a3.16,3.16,0,0,1,.11.68.67.67,0,0,1-.5.65h4.66a2,2,0,0,1-.88-1.39l-3.61-14.54Z"/></clipPath><clipPath id="clip-path-7"><path class="cls-1" d="M174.52,24a.93.93,0,0,1,.52.94,3.58,3.58,0,0,1-.11.79l-1.79,7.77a5.87,5.87,0,0,0-.17.94q0,.84,1.46.84a15.16,15.16,0,0,0,2.82-.19c-.72-.17-1.08-.46-1.08-.86a6.21,6.21,0,0,1,.19-1.07l2.1-9.16Zm2-4.89a1.23,1.23,0,0,0-.54,1,1.2,1.2,0,0,0,.54,1,2,2,0,0,0,1.27.41,2,2,0,0,0,1.29-.41,1.21,1.21,0,0,0,.54-1,1.23,1.23,0,0,0-.54-1,2,2,0,0,0-1.29-.42,2,2,0,0,0-1.27.42"/></clipPath><clipPath id="clip-path-8"><path class="cls-1" d="M185.75,25.46l.33-1.48h-3.86a.87.87,0,0,1,.5.86,3.74,3.74,0,0,1-.11.83l-1.79,7.71a2.37,2.37,0,0,1-1.18,1.69h4.6a1,1,0,0,1-.47-.9,4.34,4.34,0,0,1,.14-.77l1.46-6.12a4.24,4.24,0,0,1,3-1.43,3,3,0,0,1,2.24.94l.19-2.84v0a3.53,3.53,0,0,0-1.46-.3,5,5,0,0,0-3.59,1.84"/></clipPath><clipPath id="clip-path-9"><path class="cls-1" d="M67.8,42.36a.2.2,0,0,1,.15.2.55.55,0,0,1,0,.12l-.81,3.56a.62.62,0,0,1-.29.43H68.2a.35.35,0,0,1-.11-.26,1.15,1.15,0,0,1,0-.23l.38-1.63h1.06a2.21,2.21,0,0,1,.78.09l0-.49c-.41,0-1,0-1.81,0l.34-1.46h.82a4.3,4.3,0,0,1,1.37.14l.05-.52Z"/></clipPath><clipPath id="clip-path-10"><path class="cls-1" d="M71.82,42.23a.26.26,0,0,1,.14.26,1,1,0,0,1,0,.19l-.84,3.57a1,1,0,0,0,0,.24.2.2,0,0,0,.09.19.76.76,0,0,0,.31,0,4.6,4.6,0,0,0,.75,0c-.19-.05-.29-.14-.29-.26A2.09,2.09,0,0,1,72,46.1l.89-3.87Z"/></clipPath><clipPath id="clip-path-11"><path class="cls-1" d="M73.24,43.67a.47.47,0,0,1,.34.23,2.55,2.55,0,0,1,.18.54l.51,2a3.45,3.45,0,0,1-.91.92,2.63,2.63,0,0,1-1.05.3,3,3,0,0,0,.87.16l.43,0a4,4,0,0,0,.91-.91l2-2.65a3.05,3.05,0,0,1,.5-.57h-.85s.07,0,.07.08a.89.89,0,0,1-.21.42l-1.09,1.47-.45-1.76a.29.29,0,0,0-.22-.22,1.32,1.32,0,0,0-.39,0,4.48,4.48,0,0,0-.6.05"/></clipPath><clipPath id="clip-path-12"><path class="cls-1" d="M80.06,45.38a2,2,0,0,1,.2-.89A.84.84,0,0,1,81,44q.58,0,.58,1a2,2,0,0,1-.19.88.85.85,0,0,1-.78.55c-.39,0-.58-.33-.58-1m-.41-1.18a1.86,1.86,0,0,0-.58,1.35,1.11,1.11,0,0,0,.37.85,1.46,1.46,0,0,0,1,.37A2.09,2.09,0,0,0,82,46.13a1.9,1.9,0,0,0,.56-1.35,1.11,1.11,0,0,0-.37-.85,1.46,1.46,0,0,0-1-.37,2.07,2.07,0,0,0-1.55.63"/></clipPath><clipPath id="clip-path-13"><path class="cls-1" d="M85.67,43.67a.24.24,0,0,1,.13.23,1.18,1.18,0,0,1,0,.27l-.39,1.68a1.66,1.66,0,0,1-.92.41c-.24,0-.36-.09-.36-.28a1.79,1.79,0,0,1,.05-.34l.45-2h-1a.28.28,0,0,1,.14.23,1.15,1.15,0,0,1,0,.27l-.35,1.5a2.22,2.22,0,0,0-.07.45c0,.44.28.66.85.66a2,2,0,0,0,1.19-.42v.14c0,.16.13.23.38.23a5.26,5.26,0,0,0,.78,0c-.2,0-.3-.12-.3-.23a1.12,1.12,0,0,1,0-.23l.59-2.54Z"/></clipPath><clipPath id="clip-path-14"><path class="cls-1" d="M88.68,44.07l.09-.4h-1a.24.24,0,0,1,.13.23,1,1,0,0,1,0,.23l-.48,2.09a.64.64,0,0,1-.32.46h1.25a.27.27,0,0,1-.13-.24,1,1,0,0,1,0-.21l.39-1.66a1.15,1.15,0,0,1,.82-.39.81.81,0,0,1,.6.25l.05-.77a.92.92,0,0,0-.39-.08,1.36,1.36,0,0,0-1,.5"/></clipPath><clipPath id="clip-path-15"><path class="cls-1" d="M93.07,45.63a2.12,2.12,0,0,1,.31-1.1,1.08,1.08,0,0,1,.93-.61.64.64,0,0,1,.54.24l-.4,1.7a1.1,1.1,0,0,1-.79.4q-.6,0-.6-.63m2-3.4a.28.28,0,0,1,.14.26,1.1,1.1,0,0,1,0,.22l-.24,1a1.16,1.16,0,0,0-.64-.16,2.19,2.19,0,0,0-1.62.7,1.93,1.93,0,0,0-.61,1.36,1.12,1.12,0,0,0,.28.81,1.15,1.15,0,0,0,.9.34,1.72,1.72,0,0,0,1.08-.38.45.45,0,0,0,0,.13.18.18,0,0,0,.13.17,1.61,1.61,0,0,0,.4,0,4.8,4.8,0,0,0,.64,0c-.2,0-.29-.13-.29-.24a1.2,1.2,0,0,1,0-.28l.9-3.92Z"/></clipPath><clipPath id="clip-path-16"><path class="cls-1" d="M97.83,44.07l.09-.4h-1a.24.24,0,0,1,.13.23,1.23,1.23,0,0,1,0,.23l-.49,2.09a.64.64,0,0,1-.32.46h1.25a.26.26,0,0,1-.13-.24,1,1,0,0,1,0-.21l.4-1.66a1.15,1.15,0,0,1,.82-.39.81.81,0,0,1,.61.25l.05-.77a.93.93,0,0,0-.4-.08,1.35,1.35,0,0,0-1,.5"/></clipPath><clipPath id="clip-path-17"><path class="cls-1" d="M101.24,43.94c.3,0,.45.18.45.55a1.74,1.74,0,0,1-.06.43c-.41,0-.86,0-1.36,0,.2-.68.52-1,1-1m-1.46.3a1.9,1.9,0,0,0-.58,1.35,1,1,0,0,0,.38.83,1.65,1.65,0,0,0,1.11.35,2.38,2.38,0,0,0,1.1-.18.77.77,0,0,0,.24-.28l.17-.32a2.59,2.59,0,0,1-1.21.35.84.84,0,0,1-.59-.2.75.75,0,0,1-.22-.57,1.49,1.49,0,0,1,0-.28l2.27,0a2.79,2.79,0,0,0,.1-.72.89.89,0,0,0-.28-.7,1.27,1.27,0,0,0-.9-.29,2.15,2.15,0,0,0-1.63.67"/></clipPath><clipPath id="clip-path-18"><path class="cls-1" d="M103.92,45.63a2.14,2.14,0,0,1,.29-1.07,1.07,1.07,0,0,1,.94-.63.69.69,0,0,1,.55.24l-.39,1.68a1.5,1.5,0,0,1-.37.28.89.89,0,0,1-.43.14c-.4,0-.6-.21-.6-.63m-.4-1.34a2,2,0,0,0-.59,1.33,1.16,1.16,0,0,0,.28.81,1.15,1.15,0,0,0,.88.33,1.66,1.66,0,0,0,1.09-.38v.13c0,.1.06.16.18.18a1.56,1.56,0,0,0,.34,0,4.87,4.87,0,0,0,.65,0c-.2,0-.3-.12-.3-.23a1.56,1.56,0,0,1,0-.23l.59-2.54h-.43l-.3.13a1.3,1.3,0,0,0-.77-.23,2.18,2.18,0,0,0-1.66.72"/></clipPath><clipPath id="clip-path-19"><path class="cls-1" d="M110.73,44q-.07-.47-.79-.46a2,2,0,0,0-1.14.41l.08-.31h-1.07a.3.3,0,0,1,.15.26.65.65,0,0,1,0,.16l-.5,2.16a.66.66,0,0,1-.31.43h1.24a.32.32,0,0,1-.11-.25,1.2,1.2,0,0,1,0-.21l.4-1.73a1.48,1.48,0,0,1,.88-.41c.21,0,.32.09.32.26a1.47,1.47,0,0,1-.05.32l-.37,1.59a.64.64,0,0,1-.31.43h1.26a.3.3,0,0,1-.13-.25,1,1,0,0,1,0-.19l.4-1.74a1.42,1.42,0,0,1,.88-.41c.21,0,.31.1.31.28a1.42,1.42,0,0,1,0,.31l-.36,1.53a2,2,0,0,0-.06.32c0,.15.13.22.4.22a5.62,5.62,0,0,0,.76-.05c-.2,0-.29-.12-.29-.25a2,2,0,0,1,.06-.35l.33-1.44a2.21,2.21,0,0,0,.07-.43c0-.43-.27-.64-.81-.64a2.12,2.12,0,0,0-1.23.46"/></clipPath><clipPath id="clip-path-20"><path class="cls-1" d="M115.56,44.06h.52l-.39,1.7a2,2,0,0,0-.06.45c0,.37.28.56.84.56a2,2,0,0,0,.83-.14,1.59,1.59,0,0,0,.26-.47,1.28,1.28,0,0,1-.7.2c-.26,0-.4-.09-.4-.28a2.32,2.32,0,0,1,.07-.35l.39-1.68h.4a1.49,1.49,0,0,1,.7.14l.05-.53H117l.16-.71a5.87,5.87,0,0,1-1.62,1.1"/></clipPath><clipPath id="clip-path-21"><path class="cls-1" d="M119.2,45.38a2,2,0,0,1,.2-.89.83.83,0,0,1,.78-.55q.58,0,.58,1a2,2,0,0,1-.2.88.84.84,0,0,1-.79.55c-.39,0-.58-.33-.58-1m-.41-1.18a1.86,1.86,0,0,0-.57,1.35,1.1,1.1,0,0,0,.37.85,1.46,1.46,0,0,0,1,.37,2.1,2.1,0,0,0,1.57-.64,1.9,1.9,0,0,0,.56-1.35,1.1,1.1,0,0,0-.37-.85,1.45,1.45,0,0,0-1-.37,2.08,2.08,0,0,0-1.56.63"/></clipPath><clipPath id="clip-path-22"><path class="cls-1" d="M124.33,44.06h.51l-.39,1.7a2.05,2.05,0,0,0-.06.45c0,.37.28.56.84.56a2,2,0,0,0,.84-.14,1.61,1.61,0,0,0,.26-.47,1.3,1.3,0,0,1-.7.2c-.27,0-.4-.09-.4-.28a2.37,2.37,0,0,1,.07-.35l.39-1.68h.4a1.49,1.49,0,0,1,.7.14l.05-.53h-1.06L126,43a6,6,0,0,1-1.62,1.1"/></clipPath><clipPath id="clip-path-23"><path class="cls-1" d="M127.9,42.23a.32.32,0,0,1,.14.3.81.81,0,0,1,0,.16l-.82,3.49a.75.75,0,0,1-.32.49h1.25a.29.29,0,0,1-.13-.23,1.35,1.35,0,0,1,0-.27l.38-1.68a1.64,1.64,0,0,1,.92-.41c.24,0,.37.09.37.28a1.62,1.62,0,0,1-.06.35l-.34,1.49a2.58,2.58,0,0,0-.06.32c0,.14.12.21.36.21a6.13,6.13,0,0,0,.82-.05c-.2,0-.31-.12-.31-.23a.81.81,0,0,1,0-.22l.35-1.54a2.34,2.34,0,0,0,.08-.45.58.58,0,0,0-.21-.5,1.18,1.18,0,0,0-.69-.16,1.68,1.68,0,0,0-.57.12,2.34,2.34,0,0,0-.57.29l.43-1.75Z"/></clipPath><clipPath id="clip-path-24"><path class="cls-1" d="M133.16,43.94c.3,0,.45.18.45.55a2,2,0,0,1-.06.43c-.41,0-.86,0-1.36,0q.3-1,1-1m-1.46.3a1.9,1.9,0,0,0-.58,1.35,1,1,0,0,0,.38.83,1.67,1.67,0,0,0,1.12.35,2.39,2.39,0,0,0,1.1-.18.75.75,0,0,0,.24-.28c0-.07.1-.18.17-.32a2.58,2.58,0,0,1-1.21.35.84.84,0,0,1-.58-.2.73.73,0,0,1-.22-.57,1.67,1.67,0,0,1,0-.28l2.27,0a2.8,2.8,0,0,0,.11-.72.9.9,0,0,0-.29-.7,1.26,1.26,0,0,0-.9-.29,2.15,2.15,0,0,0-1.64.67"/></clipPath><clipPath id="clip-path-25"><path class="cls-1" d="M137.8,42.23a.31.31,0,0,1,.14.3.79.79,0,0,1,0,.16l-.82,3.49a.76.76,0,0,1-.32.49H138a.28.28,0,0,1-.12-.23,1.52,1.52,0,0,1,0-.27l.38-1.68a1.64,1.64,0,0,1,.92-.41c.24,0,.37.09.37.28a1.75,1.75,0,0,1-.05.35l-.34,1.49a2.23,2.23,0,0,0-.06.32c0,.14.12.21.36.21a6.14,6.14,0,0,0,.81-.05c-.2,0-.31-.12-.31-.23a.89.89,0,0,1,0-.22l.36-1.54a2.19,2.19,0,0,0,.07-.45.57.57,0,0,0-.21-.5,1.19,1.19,0,0,0-.69-.16,1.7,1.7,0,0,0-.57.12,2.43,2.43,0,0,0-.56.29l.43-1.75Z"/></clipPath><clipPath id="clip-path-26"><path class="cls-1" d="M143.05,43.94c.31,0,.45.18.45.55a1.82,1.82,0,0,1-.06.43c-.41,0-.86,0-1.36,0q.3-1,1-1m-1.46.3a1.91,1.91,0,0,0-.57,1.35,1,1,0,0,0,.38.83,1.66,1.66,0,0,0,1.11.35,2.39,2.39,0,0,0,1.1-.18.78.78,0,0,0,.24-.28c0-.07.1-.18.17-.32a2.57,2.57,0,0,1-1.21.35.84.84,0,0,1-.59-.2.74.74,0,0,1-.22-.57,1.74,1.74,0,0,1,0-.28l2.27,0a2.76,2.76,0,0,0,.11-.72.89.89,0,0,0-.28-.7,1.28,1.28,0,0,0-.9-.29,2.16,2.16,0,0,0-1.64.67"/></clipPath><clipPath id="clip-path-27"><path class="cls-1" d="M145.74,45.63a2.17,2.17,0,0,1,.29-1.07,1.08,1.08,0,0,1,.94-.63.69.69,0,0,1,.55.24l-.39,1.68a1.47,1.47,0,0,1-.36.28.88.88,0,0,1-.43.14c-.4,0-.6-.21-.6-.63m-.4-1.34a2,2,0,0,0-.59,1.33,1.17,1.17,0,0,0,.28.81,1.16,1.16,0,0,0,.88.33,1.66,1.66,0,0,0,1.09-.38v.13c0,.1.06.16.18.18a1.55,1.55,0,0,0,.34,0,4.85,4.85,0,0,0,.65,0c-.2,0-.3-.12-.3-.23a1.14,1.14,0,0,1,0-.23l.59-2.54h-.44l-.3.13a1.3,1.3,0,0,0-.77-.23,2.18,2.18,0,0,0-1.66.72"/></clipPath><clipPath id="clip-path-28"><path class="cls-1" d="M150.58,44.07l.09-.4h-1a.23.23,0,0,1,.13.23.91.91,0,0,1,0,.23l-.49,2.09a.65.65,0,0,1-.32.46h1.24a.27.27,0,0,1-.12-.24,1,1,0,0,1,0-.21l.39-1.66a1.15,1.15,0,0,1,.82-.39.82.82,0,0,1,.61.25l.05-.77a.94.94,0,0,0-.4-.08,1.35,1.35,0,0,0-1,.5"/></clipPath><clipPath id="clip-path-29"><path class="cls-1" d="M152.2,44.06h.52l-.39,1.7a2.12,2.12,0,0,0-.06.45c0,.37.28.56.84.56a2,2,0,0,0,.83-.14,1.56,1.56,0,0,0,.26-.47,1.28,1.28,0,0,1-.7.2c-.26,0-.39-.09-.39-.28a2.18,2.18,0,0,1,.07-.35l.39-1.68h.4a1.5,1.5,0,0,1,.71.14l0-.53h-1.06l.17-.71a5.9,5.9,0,0,1-1.62,1.1"/></clipPath><clipPath id="clip-path-30"><path class="cls-1" d="M157.86,45.38a2,2,0,0,1,.2-.89.83.83,0,0,1,.78-.55c.38,0,.58.33.58,1a2,2,0,0,1-.19.88.84.84,0,0,1-.78.55c-.39,0-.58-.33-.58-1m-.41-1.18a1.86,1.86,0,0,0-.57,1.35,1.11,1.11,0,0,0,.37.85,1.45,1.45,0,0,0,1,.37,2.09,2.09,0,0,0,1.57-.64,1.91,1.91,0,0,0,.56-1.35,1.11,1.11,0,0,0-.36-.85,1.46,1.46,0,0,0-1-.37,2.08,2.08,0,0,0-1.56.63"/></clipPath><clipPath id="clip-path-31"><path class="cls-1" d="M161.68,43.67a1.85,1.85,0,0,1-.55.35h.46L161,46.7a1.29,1.29,0,0,1-.42.67.76.76,0,0,1-.52.26,1,1,0,0,0,.31.19,2,2,0,0,0,1-.52,2.31,2.31,0,0,0,.66-1.17l.48-2.11h.3a1.5,1.5,0,0,1,.73.14l0-.49h-1a2.36,2.36,0,0,1,.34-.89.62.62,0,0,1,.51-.21A.7.7,0,0,1,164,43l0-.67a3.32,3.32,0,0,0-.72-.08,1.58,1.58,0,0,0-1.64,1.44"/></clipPath><clipPath id="clip-path-32"><path class="cls-1" d="M167.17,44.85l1.3-1.76.45,1.76-.85,0c-.43,0-.74,0-.9,0m1-2.5c.07,0,.11.05.11.1a.42.42,0,0,1-.1.21l-2.62,3.55a1.7,1.7,0,0,1-.43.45H166c-.06,0-.09-.06-.09-.09a.7.7,0,0,1,.15-.29l.76-1c.3,0,.68,0,1.13,0s.73,0,1,0l.27,1a.74.74,0,0,1,0,.19.18.18,0,0,1-.13.17h1.26a.54.54,0,0,1-.24-.38l-1-3.93Z"/></clipPath><clipPath id="clip-path-33"><path class="cls-1" d="M172,43.67a1.8,1.8,0,0,1-.56.35h.46l-.62,2.68a1.29,1.29,0,0,1-.42.67.76.76,0,0,1-.52.26,1,1,0,0,0,.32.19,2,2,0,0,0,1-.52,2.28,2.28,0,0,0,.65-1.17l.49-2.11h.29a1.48,1.48,0,0,1,.73.14l0-.49h-1a2.29,2.29,0,0,1,.34-.89.61.61,0,0,1,.5-.21.7.7,0,0,1,.64.41l0-.67a3.33,3.33,0,0,0-.72-.08A1.58,1.58,0,0,0,172,43.67"/></clipPath><clipPath id="clip-path-34"><path class="cls-1" d="M175.34,44.07l.09-.4h-1a.24.24,0,0,1,.13.23,1,1,0,0,1,0,.23L174,46.21a.64.64,0,0,1-.32.46h1.25a.27.27,0,0,1-.13-.24,1.07,1.07,0,0,1,0-.21l.39-1.66a1.15,1.15,0,0,1,.82-.39.8.8,0,0,1,.6.25l.06-.77a.93.93,0,0,0-.4-.08,1.36,1.36,0,0,0-1,.5"/></clipPath><clipPath id="clip-path-35"><path class="cls-1" d="M177.35,43.67a.26.26,0,0,1,.14.26.88.88,0,0,1,0,.22l-.48,2.1a1.86,1.86,0,0,0,0,.26c0,.15.13.22.4.22a4.47,4.47,0,0,0,.76,0c-.2,0-.29-.13-.29-.23a2.28,2.28,0,0,1,.05-.29l.57-2.48Zm.54-1.32a.33.33,0,0,0-.14.27.32.32,0,0,0,.14.27.6.6,0,0,0,.7,0,.32.32,0,0,0,.14-.27.32.32,0,0,0-.14-.27.59.59,0,0,0-.7,0"/></clipPath><clipPath id="clip-path-36"><path class="cls-1" d="M179.52,44.23a1.82,1.82,0,0,0-.69,1.39,1,1,0,0,0,.38.8,1.61,1.61,0,0,0,1.08.34,3,3,0,0,0,1.06-.16,1,1,0,0,0,.22-.31c0-.07.09-.19.15-.35a1.79,1.79,0,0,1-1.11.41c-.53,0-.79-.31-.79-.94a1.53,1.53,0,0,1,.37-1,1.17,1.17,0,0,1,.93-.48,1.09,1.09,0,0,1,.87.37l.13-.64a3.42,3.42,0,0,0-.81-.1,2.59,2.59,0,0,0-1.8.66"/></clipPath><clipPath id="clip-path-37"><path class="cls-1" d="M183.37,45.63a2.19,2.19,0,0,1,.29-1.07,1.08,1.08,0,0,1,.94-.63.69.69,0,0,1,.55.24l-.39,1.68a1.4,1.4,0,0,1-.37.28.88.88,0,0,1-.43.14q-.6,0-.6-.63m-.4-1.34a1.94,1.94,0,0,0-.59,1.33,1.06,1.06,0,0,0,1.16,1.15,1.67,1.67,0,0,0,1.09-.38v.13c0,.1.06.16.18.18a1.54,1.54,0,0,0,.34,0,4.79,4.79,0,0,0,.65,0c-.2,0-.3-.12-.3-.23a1.1,1.1,0,0,1,0-.23l.59-2.54h-.43l-.3.13a1.31,1.31,0,0,0-.77-.23,2.19,2.19,0,0,0-1.66.72"/></clipPath><clipPath id="clip-path-38"><path class="cls-1" d="M186.83,46.1a.34.34,0,0,0,0,.56.58.58,0,0,0,.36.12.56.56,0,0,0,.35-.12.34.34,0,0,0,.15-.28.34.34,0,0,0-.15-.28.56.56,0,0,0-.36-.11.54.54,0,0,0-.35.12"/></clipPath><clipPath id="clip-path-39"><path class="cls-1" d="M26.61,26.29c1.38-3.75,5.56-6.8,9.34-6.8s5.73,3,4.35,6.8-5.56,6.8-9.34,6.8-5.73-3-4.36-6.8m-.68,0c-1.51,4.12.64,7.47,4.79,7.47S39.47,30.41,41,26.29s-.64-7.47-4.79-7.47-8.75,3.35-10.26,7.47"/></clipPath><clipPath id="clip-path-40"><path class="cls-1" d="M31.79,5.57C19.44,8,8.74,17,5,26.26h7.94C17,15.21,29.2,6.19,40.36,5.9h.55a27,27,0,0,1,4.43.35c.53.09,1.05.2,1.58.32a21.74,21.74,0,0,1,2.31.69C46.49,5.73,42.25,5,38.05,5a33.17,33.17,0,0,0-6.26.57"/></clipPath><clipPath id="clip-path-41"><path class="cls-1" d="M54,26.32c-4.05,11-16.26,20.07-27.42,20.36H26a27.26,27.26,0,0,1-4.43-.35c-.53-.09-1.05-.2-1.58-.32a21.12,21.12,0,0,1-2.31-.69c4.16,2.32,11.75,2.8,17.44,1.68C47.46,44.59,58.16,35.62,61.9,26.32Zm7.94,0h0Z"/></clipPath></defs><title>Asset 3logo</title><g id="Layer_2" data-name="Layer 2"><g id="Layer_1-2" data-name="Layer 1"><g class="cls-2"><rect class="cls-3" x="62.51" y="14.14" width="27.91" height="26.03"/></g><g class="cls-4"><rect class="cls-3" x="81.99" y="18.98" width="28.74" height="21.09"/></g><g class="cls-5"><rect class="cls-3" x="99.98" y="18.61" width="23.86" height="21.82"/></g><g class="cls-6"><rect class="cls-3" x="115.44" y="18.61" width="23.71" height="21.64"/></g><g class="cls-7"><rect class="cls-3" x="131.17" y="13.67" width="25.01" height="26.76"/></g><g class="cls-8"><rect class="cls-3" x="145.3" y="14.14" width="29.59" height="25.93"/></g><g class="cls-9"><rect class="cls-3" x="167.98" y="13.67" width="16.65" height="26.59"/></g><g class="cls-10"><rect class="cls-3" x="174.63" y="18.61" width="21.17" height="21.45"/></g><g class="cls-11"><rect class="cls-3" x="61.83" y="37.36" width="14.33" height="14.31"/></g><g class="cls-12"><rect class="cls-3" x="66.06" y="37.23" width="11.82" height="14.49"/></g><g class="cls-13"><rect class="cls-3" x="67.3" y="38.61" width="14.66" height="14.21"/></g><g class="cls-14"><rect class="cls-3" x="74.07" y="38.57" width="13.53" height="13.2"/></g><g class="cls-15"><rect class="cls-3" x="78.21" y="38.67" width="13.51" height="13.1"/></g><g class="cls-16"><rect class="cls-3" x="82.02" y="38.57" width="13.03" height="13.1"/></g><g class="cls-17"><rect class="cls-3" x="87.08" y="37.23" width="14.06" height="14.54"/></g><g class="cls-18"><rect class="cls-3" x="91.17" y="38.57" width="13.02" height="13.1"/></g><g class="cls-19"><rect class="cls-3" x="94.2" y="38.57" width="13.39" height="13.2"/></g><g class="cls-20"><rect class="cls-3" x="97.93" y="38.57" width="13.75" height="13.2"/></g><g class="cls-21"><rect class="cls-3" x="102.12" y="38.57" width="15.65" height="13.15"/></g><g class="cls-22"><rect class="cls-3" x="110.56" y="37.96" width="12.52" height="13.81"/></g><g class="cls-23"><rect class="cls-3" x="113.21" y="38.57" width="13.53" height="13.2"/></g><g class="cls-24"><rect class="cls-3" x="119.33" y="37.96" width="12.52" height="13.81"/></g><g class="cls-25"><rect class="cls-3" x="121.87" y="37.23" width="13.71" height="14.49"/></g><g class="cls-26"><rect class="cls-3" x="126.11" y="38.57" width="13.39" height="13.2"/></g><g class="cls-27"><rect class="cls-3" x="131.77" y="37.23" width="13.71" height="14.49"/></g><g class="cls-28"><rect class="cls-3" x="136.02" y="38.57" width="13.39" height="13.2"/></g><g class="cls-29"><rect class="cls-3" x="139.75" y="38.57" width="13.75" height="13.2"/></g><g class="cls-30"><rect class="cls-3" x="143.93" y="38.57" width="13.02" height="13.1"/></g><g class="cls-31"><rect class="cls-3" x="147.2" y="37.96" width="12.52" height="13.81"/></g><g class="cls-32"><rect class="cls-3" x="151.87" y="38.57" width="13.53" height="13.2"/></g><g class="cls-33"><rect class="cls-3" x="155.03" y="37.23" width="14.01" height="15.59"/></g><g class="cls-34"><rect class="cls-3" x="160.11" y="37.36" width="15.3" height="14.31"/></g><g class="cls-35"><rect class="cls-3" x="165.35" y="37.23" width="14.01" height="15.59"/></g><g class="cls-36"><rect class="cls-3" x="168.69" y="38.57" width="13.03" height="13.1"/></g><g class="cls-37"><rect class="cls-3" x="171.92" y="37.23" width="11.8" height="14.49"/></g><g class="cls-38"><rect class="cls-3" x="173.83" y="38.57" width="13.29" height="13.2"/></g><g class="cls-39"><rect class="cls-3" x="177.39" y="38.57" width="13.75" height="13.2"/></g><g class="cls-40"><rect class="cls-3" x="181.68" y="40.98" width="11.01" height="10.79"/></g><polygon class="cls-3" points="37.07 16.43 37.87 7.43 34.37 16.76 32.57 8.72 31.62 17.75 27.32 11.2 28.99 19.31 22.5 14.71 26.66 21.36 18.43 19.01 24.8 23.73 15.37 23.8 23.52 26.29 13.56 28.77 22.93 28.84 13.09 33.57 23.05 31.22 14.02 37.87 23.88 33.26 16.27 41.38 25.36 34.83 19.68 43.86 27.39 35.81 24.04 45.15 29.84 36.15 29.04 45.15 32.53 35.81 34.34 43.86 35.29 34.83 39.58 41.38 37.92 33.26 44.41 37.87 40.25 31.22 48.48 33.57 42.11 28.84 51.53 28.77 43.38 26.29 53.35 23.8 43.98 23.73 53.82 19.01 43.86 21.36 52.89 14.71 43.03 19.31 50.65 11.2 41.55 17.75 47.23 8.72 39.52 16.76 42.87 7.43 37.07 16.43"/><g class="cls-41"><rect class="cls-42" x="20.45" y="13.82" width="26.02" height="24.94"/></g><g class="cls-43"><rect class="cls-3" width="54.23" height="31.26"/></g><g class="cls-44"><rect class="cls-3" x="12.68" y="21.32" width="54.23" height="31.26"/></g></g></g></svg>