<svg xmlns="http://www.w3.org/2000/svg" xmlns:xlink="http://www.w3.org/1999/xlink" viewBox="0 0 217.95 40.41"><defs><style>.cls-1{fill:none;}.cls-2{clip-path:url(#clip-path);}.cls-3{fill:#231f20;}.cls-4{clip-path:url(#clip-path-2);}.cls-5{clip-path:url(#clip-path-3);}</style><clipPath id="clip-path"><path class="cls-1" d="M5.8,14.62H9.39c1.59,0,2.55,1,2.55,3.11,0,1.25-.21,3.38-2.49,3.38H5.8ZM5,13.84V26.57h.8V21.92H9.51c.22,0,.45,0,.65,0l1.78,4.69h.82l-1.84-4.94c1.66-.75,1.82-2.69,1.82-3.89,0-2.23-1-3.85-3.3-3.89Z"/></clipPath><clipPath id="clip-path-2"><path class="cls-1" d="M86,14.58h2.73a3,3,0,0,1,3.16,3.28V23c0,2.6-1.91,2.84-3.23,2.84H86Zm-.81-.76V26.57h3.71c2.05,0,3.79-.82,3.79-3.64V18a3.8,3.8,0,0,0-4.14-4.13Z"/></clipPath><clipPath id="clip-path-3"><path class="cls-1" d="M122,23.21v-6a3,3,0,0,1,5.91,0v6a2.64,2.64,0,0,1-3,2.8A2.68,2.68,0,0,1,122,23.21m-.81-5.86v5.86c0,2.67,2,3.57,3.77,3.57s3.73-.9,3.73-3.57V17.37c0-2.34-1.32-3.82-3.71-3.82a3.44,3.44,0,0,0-3.79,3.8"/></clipPath></defs><title>Asset 16logo</title><g id="Layer_2" data-name="Layer 2"><g id="Layer_1-2" data-name="Layer 1"><g class="cls-2"><rect class="cls-3" y="8.84" width="17.76" height="22.73"/></g><polygon class="cls-3" points="34.63 13.84 31.97 25.49 29.84 13.84 28.77 13.84 26.65 25.49 23.93 13.84 23.08 13.84 26.11 26.57 27.29 26.57 29.3 15.39 31.32 26.57 32.5 26.57 35.5 13.84 34.63 13.84"/><path class="cls-3" d="M49.24,15.17l1.93,5.95H47.35Zm-.37-1.33L44.76,26.57h.84l1.5-4.65h4.29l1.54,4.65h.86L49.61,13.84Z"/><polygon class="cls-3" points="72.42 0 72.42 25.08 65.23 13.84 64.42 13.84 64.42 26.57 65.23 26.57 65.23 15.31 72.42 26.57 73.2 26.57 73.2 0 72.42 0"/><g class="cls-4"><rect class="cls-3" x="80.16" y="8.82" width="17.5" height="22.75"/></g><path class="cls-3" d="M107.48,15.17l1.93,5.95h-3.82Zm-.37-1.33L103,26.57h.84l1.5-4.65h4.29l1.53,4.65H112l-4.16-12.73Z"/><g class="cls-5"><rect class="cls-3" x="116.19" y="8.55" width="17.5" height="23.23"/></g><polygon class="cls-3" points="148.33 13.84 148.33 25.08 141.14 13.84 140.34 13.84 140.34 26.57 141.14 26.57 141.14 15.31 148.33 26.57 149.12 26.57 149.12 13.84 148.33 13.84"/><polygon class="cls-3" points="161.07 13.84 161.07 26.57 167.52 26.57 167.52 25.82 161.88 25.82 161.88 13.84 161.07 13.84"/><polygon class="cls-3" points="177.2 13.84 177.2 14.57 178.49 14.6 178.49 40.41 179.29 40.41 179.29 13.84 177.2 13.84"/><polygon class="cls-3" points="199.25 13.84 199.25 25.08 192.05 13.84 191.25 13.84 191.25 26.57 192.05 26.57 192.05 15.31 199.25 26.57 200.03 26.57 200.03 13.84 199.25 13.84"/><polygon class="cls-3" points="211.99 13.84 211.99 26.57 217.91 26.57 217.91 25.82 212.79 25.82 212.79 19.86 216.13 19.86 216.4 19.06 212.79 19.06 212.79 14.6 217.95 14.6 217.95 13.84 211.99 13.84"/></g></g></svg>